<svg width="372" height="342" viewBox="0 0 372 342" fill="none" xmlns="http://www.w3.org/2000/svg">
<path d="M54.4762 159.504C-18.1587 201.154 -18.1587 268.687 54.4762 310.337C127.111 351.988 244.886 351.988 317.521 310.337C390.156 268.687 390.164 201.154 317.521 159.504C244.878 117.854 127.119 117.854 54.4762 159.504Z" fill="#FAFAFA"/>
<path d="M346.396 125.356C342.052 126.288 335.406 132.073 332.582 143.35C330.42 151.571 330.081 160.16 331.59 168.523C332.466 169.155 333.327 169.787 334.18 170.434L334.847 170.934C335.742 171.617 336.618 172.303 337.476 172.991L338.097 173.5C338.283 171.273 338.593 168.516 339.113 165.165C339.299 164.009 339.501 162.908 339.71 161.86C342.913 146.454 349.909 142.841 353.128 136.047C356.75 128.429 351.267 124.3 346.396 125.356Z" fill="#E0E0E0"/>
<path d="M347.552 129.746C340.765 135.909 333.102 152.085 334.847 170.934L334.204 170.449C332.652 151.615 340.346 135.462 347.148 129.307C347.177 129.278 347.212 129.255 347.25 129.239C347.288 129.223 347.328 129.215 347.369 129.215C347.411 129.215 347.451 129.223 347.489 129.239C347.527 129.255 347.562 129.278 347.59 129.307C347.617 129.338 347.638 129.375 347.65 129.414C347.663 129.453 347.668 129.494 347.664 129.535C347.661 129.576 347.649 129.616 347.629 129.652C347.61 129.688 347.584 129.72 347.552 129.746Z" fill="white"/>
<path d="M347.924 164.695C345.096 168.209 342.988 172.239 341.719 176.558C341.145 176.065 340.571 175.564 339.989 175.079L339.4 174.586C338.966 174.216 338.531 173.854 338.081 173.5L337.461 172.991C337.71 168.543 338.523 164.143 339.881 159.896C341.432 155.713 343.867 151.068 346 148.819C351.298 143.242 357.456 142.718 359.628 147.279C361.799 151.839 353.524 157.354 347.924 164.695Z" fill="#F0F0F0"/>
<path d="M353.19 150.922C348.792 153.572 341.323 165.165 340.005 175.079L339.415 174.586C340.896 164.503 348.327 153.133 352.872 150.391C352.907 150.37 352.946 150.356 352.986 150.35C353.027 150.345 353.068 150.347 353.107 150.357C353.147 150.367 353.184 150.384 353.217 150.409C353.25 150.433 353.277 150.463 353.298 150.498C353.319 150.533 353.333 150.572 353.339 150.612C353.345 150.652 353.342 150.693 353.332 150.733C353.322 150.772 353.304 150.809 353.28 150.841C353.256 150.874 353.225 150.901 353.19 150.922Z" fill="white"/>
<path d="M46.3475 164.472C45.3547 165.119 44.3697 165.774 43.408 166.429C42.198 167.261 41.0139 168.095 39.8557 168.932C39.8827 160.883 38.3201 152.906 35.2564 145.453C34.1516 142.77 32.7716 140.207 31.138 137.804C23.8628 127.421 25.1348 122.344 29.5325 120.858C33.9301 119.371 45.4866 125.911 47.3713 143.358C48.1934 151.069 47.2317 159.342 46.3475 164.472Z" fill="#F0F0F0"/>
<path d="M42.0588 165.974H42.0045C41.9033 165.954 41.8142 165.895 41.7562 165.81C41.6982 165.725 41.676 165.621 41.6943 165.52C44.7967 149.428 39.1193 131.357 32.1079 123.831C32.0715 123.795 32.0427 123.753 32.023 123.706C32.0033 123.659 31.9932 123.608 31.9932 123.558C31.9932 123.507 32.0033 123.456 32.023 123.409C32.0427 123.363 32.0715 123.32 32.1079 123.284C32.1817 123.213 32.2804 123.173 32.3832 123.173C32.486 123.173 32.5848 123.213 32.6586 123.284C39.7941 130.941 45.5645 149.313 42.4389 165.651C42.4242 165.741 42.378 165.822 42.3084 165.882C42.2389 165.941 42.1504 165.974 42.0588 165.974Z" fill="white"/>
<path d="M44.0054 163.74C43.898 164.654 43.698 165.555 43.4082 166.429C42.1983 167.261 41.0142 168.095 39.856 168.932C37.9325 170.329 36.0814 171.746 34.3027 173.184L33.5271 173.801C30.7142 176.096 28.0798 178.443 25.6237 180.841C24.7861 181.265 22.5601 179.362 21.9396 178.908C20.8737 178.105 20.0326 177.044 19.4965 175.826C18.9031 174.444 18.7541 172.913 19.0699 171.443C19.2426 170.659 19.4681 169.887 19.7447 169.132C20.0006 168.362 20.2566 167.661 20.5203 166.922C20.8253 166.211 20.9784 165.445 20.9701 164.672C20.846 163.132 19.5353 161.984 18.3331 160.998C17.0068 159.904 15.6417 158.479 15.7426 156.63C15.915 155.201 16.5586 153.869 17.573 152.841C18.5192 151.77 19.6283 150.83 20.4892 149.69C21.1629 148.9 21.5459 147.906 21.5751 146.871C21.5195 146.232 21.3348 145.611 21.0322 145.045C20.3388 143.861 19.7398 142.625 19.2405 141.348C18.8527 140.03 19.0001 138.428 20.0627 137.55C20.5342 137.237 21.0637 137.021 21.6204 136.914C22.1771 136.807 22.7496 136.811 23.3047 136.926C24.3544 137.106 25.352 137.511 26.2287 138.112C29.0984 139.892 30.6108 143.451 33.6744 144.86C34.194 145.092 34.7341 145.275 35.2877 145.407C35.9935 145.6 36.7225 145.746 37.4206 145.969C38.0591 146.124 38.658 146.409 39.1789 146.807C39.6998 147.205 40.1312 147.707 40.4454 148.28C41.477 150.591 39.2045 153.326 39.887 155.791C40.3136 157.331 41.4382 158.248 42.493 159.365C42.7516 159.635 42.99 159.923 43.2066 160.228C43.3623 160.435 43.5023 160.654 43.6254 160.883C44.0556 161.771 44.1887 162.772 44.0054 163.74Z" fill="#E0E0E0"/>
<path d="M34.3025 173.184L33.5269 173.8C34.0388 159.981 28.3847 145.153 23.8862 140.523C23.8517 140.489 23.8243 140.449 23.8057 140.405C23.787 140.361 23.7773 140.313 23.7773 140.265C23.7773 140.217 23.787 140.17 23.8057 140.125C23.8243 140.081 23.8517 140.041 23.8862 140.007C23.9557 139.94 24.0489 139.902 24.146 139.902C24.2431 139.902 24.3363 139.94 24.4058 140.007C28.9509 144.66 34.6127 159.357 34.3025 173.184Z" fill="white"/>
<path d="M32.2857 158.803C32.2499 158.81 32.2129 158.81 32.1771 158.803C28.7548 157.686 25.2206 156.943 21.6367 156.584C21.5888 156.58 21.5421 156.567 21.4993 156.545C21.4566 156.523 21.4186 156.493 21.3876 156.457C21.3566 156.42 21.3332 156.378 21.3187 156.332C21.3042 156.287 21.2989 156.239 21.3032 156.191C21.306 156.143 21.3188 156.095 21.341 156.051C21.3632 156.008 21.3942 155.969 21.432 155.938C21.4699 155.907 21.5138 155.884 21.561 155.871C21.6083 155.857 21.6578 155.854 21.7065 155.86C25.3552 156.22 28.9526 156.979 32.433 158.125C32.5113 158.159 32.5755 158.218 32.6148 158.294C32.6541 158.369 32.6661 158.455 32.6489 158.538C32.6316 158.622 32.5861 158.696 32.5199 158.75C32.4538 158.804 32.3711 158.833 32.2857 158.833V158.803Z" fill="white"/>
<path d="M173.794 162.8L66.6215 224.263C64.8996 225.249 64.8996 226.851 66.6215 227.845L213.861 312.039C214.829 312.525 215.899 312.778 216.983 312.778C218.068 312.778 219.137 312.525 220.105 312.039L327.277 250.561C329.007 249.575 329.007 247.973 327.277 246.979L180.037 162.8C179.07 162.314 178 162.061 176.916 162.061C175.831 162.061 174.762 162.314 173.794 162.8Z" fill="#E0E0E0"/>
<path d="M117.571 231.018C136.961 242.28 136.961 260.544 117.571 271.806C98.1811 283.068 66.6607 283.068 47.2397 271.806C27.8187 260.544 27.8497 242.28 47.2397 231.018C66.6297 219.756 98.1501 219.749 117.571 231.018Z" fill="#E0E0E0"/>
<path d="M29.6021 274.317C44.036 284.824 59.2843 287.089 75.6572 287.844C86.5156 288.337 97.374 287.605 108.139 286.527C112.956 286.042 117.757 285.472 122.55 284.886C127.731 284.247 132.904 283.584 138.132 283.746C141.948 283.862 146.02 284.27 149.587 286.003C153.039 287.675 155.358 291.164 154.008 295.054C153.355 296.724 152.347 298.235 151.053 299.483C146.974 303.759 141.932 306.686 139.016 312.07C138.023 313.919 137.232 316.9 138.295 318.71C140.901 323.132 149.929 323.124 154.016 322.962C165.394 322.5 172.266 320.744 179.944 317.948C191.741 313.642 201.072 307.163 209.58 300.639C212.109 298.698 214.792 296.934 217.336 294.962C217.763 294.623 217.972 295.624 217.662 295.894C213.59 299.46 209.076 302.41 204.934 305.846C201.077 309.028 196.891 311.796 192.447 314.104C183.605 318.726 178.261 321.26 167.713 323.478C165.084 324.033 158.833 324.834 156.149 325.019C151.672 325.42 147.163 325.296 142.716 324.649C140.032 324.218 136.387 322.592 135.363 319.642C134.2 316.299 135.363 313.01 137.186 310.114C139.027 307.383 141.276 304.947 143.856 302.888C145.593 301.347 148.44 298.99 149.805 297.142C154.962 290.124 147.478 286.981 141.428 286.303C136.729 285.865 131.995 285.94 127.312 286.527C122.659 287.089 117.765 287.913 113.134 288.429C102.553 289.742 91.8975 290.383 81.2338 290.348C76.014 290.286 69.3904 289.855 64.062 289.269C46.9445 287.405 33.0923 280.518 27.2908 273.578C26.6471 272.808 25.6621 271.221 26.1584 270.959C27.1722 272.207 28.3277 273.334 29.6021 274.317Z" fill="url(#paint0_linear_2409_5724)"/>
<path d="M327.161 270.119C323.94 270.245 320.811 271.221 318.095 272.946C316.072 274.368 314.518 276.351 313.627 278.646C311.998 282.56 312.076 286.665 310.098 290.54C308.12 294.415 302.761 297.619 295.501 298.382C292.461 298.682 289.391 298.492 286.411 297.819C290.444 294.838 293.012 291.141 291.166 287.374C290.492 286.094 289.515 284.995 288.32 284.173C287.124 283.35 285.745 282.828 284.302 282.652C280.424 282.113 276.391 284.239 274.444 285.934C269.852 289.947 273.885 295.116 280.013 297.75C280.579 297.997 281.176 298.212 281.781 298.42C277.353 300.973 272.527 302.774 267.502 303.751C260.988 305.148 254.26 305.242 247.709 304.028C240.945 302.582 234.652 299.479 229.405 295C228.218 294.037 227.016 293.09 225.759 292.158C225.279 291.803 223.34 291.88 223.774 292.473C227.241 297.234 233.616 301.717 241.442 304.359C248.066 306.57 255.907 307.001 263.322 306.1C270.069 305.341 276.617 303.349 282.634 300.223C283.247 299.891 283.844 299.537 284.434 299.175C290.299 300.531 296.42 300.337 302.187 298.613C309.121 296.456 312.681 292.597 314.085 288.275C315.434 284.108 315.178 279.694 318.157 275.742C319.933 273.37 323.136 271.483 327.751 271.159C331.329 270.798 334.925 271.653 337.95 273.586C339.147 274.383 340.081 275.514 340.634 276.836C340.688 276.975 341.269 277.152 341.269 276.921C341.184 272.754 334.204 269.657 327.161 270.119ZM277.29 293.228C275.506 291.333 274.715 289.015 276.515 287.027C277.56 285.997 278.82 285.208 280.207 284.716C280.94 284.379 281.728 284.17 282.533 284.1C283.363 284.121 284.175 284.343 284.899 284.747C287.606 286.149 288.777 288.352 288.668 290.401C288.544 292.712 286.815 294.861 284.418 296.702C284.232 296.849 284.022 296.98 283.829 297.126C281.366 296.359 279.124 295.017 277.29 293.213V293.228Z" fill="#455A64"/>
<path d="M180.31 163.864L76.7052 218.071L74.5723 221.398V224.079C74.5927 224.773 74.8017 225.449 75.1772 226.035C75.5527 226.62 76.0806 227.094 76.7052 227.407L213.265 305.731C214.36 306.308 215.581 306.609 216.821 306.609C218.061 306.609 219.282 306.308 220.377 305.731L321.709 247.627V244.946L180.31 163.864Z" fill="#263238"/>
<path d="M216.825 303.928C215.582 303.947 214.355 303.645 213.265 303.05L76.7052 224.726C76.0683 224.43 75.5295 223.959 75.1521 223.37C74.7747 222.781 74.5742 222.097 74.5742 221.398C74.5742 220.7 74.7747 220.016 75.1521 219.426C75.5295 218.837 76.0683 218.366 76.7052 218.07L175.749 161.253L321.709 244.946L220.377 303.05C219.29 303.644 218.066 303.946 216.825 303.928Z" fill="url(#paint1_linear_2409_5724)"/>
<path d="M175.75 153.388L77.7915 209.559L76.7832 210.953V221.398C76.811 221.699 76.9192 221.986 77.0964 222.231C77.2737 222.477 77.5136 222.67 77.7915 222.792L214.39 301.117C215.143 301.5 215.976 301.7 216.822 301.7C217.667 301.7 218.501 301.5 219.253 301.117L317.219 244.946V234.509L175.75 153.388Z" fill="#EBEBEB"/>
<path d="M317.227 234.509L316.001 235.21L300.078 244.353L297.116 246.056L219.261 290.679C218.507 291.059 217.674 291.257 216.829 291.257C215.984 291.257 215.151 291.059 214.398 290.679L77.7837 212.347C76.4497 211.577 76.4497 210.321 77.7837 209.551L79.0867 208.781L175.75 153.388L316.009 233.808L316.304 233.985L317.227 234.509Z" fill="#F0F0F0"/>
<path d="M216.818 291.257V301.702C215.973 301.721 215.139 301.519 214.398 301.117L77.7837 222.785C77.5069 222.662 77.2681 222.468 77.0921 222.223C76.9162 221.978 76.8095 221.69 76.7832 221.391V210.953C76.8134 211.252 76.9216 211.537 77.0971 211.782C77.2725 212.026 77.5092 212.221 77.7837 212.347L214.398 290.679C215.14 291.079 215.974 291.278 216.818 291.257Z" fill="#E0E0E0"/>
<path d="M317.226 233.114L299.581 243.229L296.82 244.769L219.26 289.247C218.506 289.626 217.673 289.824 216.829 289.824C215.984 289.824 215.151 289.626 214.397 289.247L92.0616 219.141C90.9603 218.54 89.9365 217.947 88.9592 217.377C83.9799 214.365 80.9861 211.677 79.0626 208.804L78.8299 208.449C78.6756 208.233 78.5698 207.986 78.5196 207.725C78.4363 207.176 78.5672 206.616 78.8858 206.159C79.2044 205.702 79.6865 205.383 80.2337 205.268C83.4403 204.34 86.5332 203.061 89.4556 201.455L89.5797 201.386L175.749 151.963L317.226 233.114Z" fill="white"/>
<path opacity="0.1" d="M298.961 231.89C297.712 232.614 297.712 233.785 298.961 234.509C299.665 234.866 300.443 235.052 301.233 235.052C302.024 235.052 302.802 234.866 303.506 234.509C304.762 233.785 304.762 232.614 303.506 231.89C302.802 231.533 302.024 231.346 301.233 231.346C300.443 231.346 299.665 231.533 298.961 231.89Z" fill="black"/>
<path d="M313.558 223.432C311.828 222.438 309.68 222.592 307.446 223.856C304.026 225.827 301.055 230.226 299.768 234.832C300.308 235.005 300.877 235.073 301.443 235.033C302.63 230.927 305.259 227.06 308.291 225.304C309.131 224.789 310.09 224.498 311.076 224.456C311.652 224.453 312.218 224.599 312.72 224.88C314.178 225.72 315.047 227.761 315.047 230.472C315.048 230.92 315.022 231.368 314.969 231.813L316.559 232.722C316.673 231.977 316.73 231.225 316.73 230.472C316.707 227.145 315.59 224.58 313.558 223.432Z" fill="#263238"/>
<path d="M316.365 233.615C316.349 233.745 316.323 233.874 316.288 234L315.993 233.823L316.365 233.615Z" fill="#263238"/>
<path opacity="0.1" d="M285.279 224.04C284.031 224.764 284.031 225.935 285.279 226.651C285.982 227.008 286.759 227.195 287.548 227.195C288.337 227.195 289.114 227.008 289.817 226.651C291.081 225.935 291.081 224.764 289.817 224.04C289.114 223.683 288.337 223.497 287.548 223.497C286.759 223.497 285.982 223.683 285.279 224.04Z" fill="black"/>
<path d="M299.876 215.582C298.139 214.589 295.998 214.743 293.757 216.006C290.336 217.978 287.366 222.376 286.078 226.983C286.619 227.151 287.187 227.219 287.753 227.183C288.94 223.077 291.569 219.203 294.602 217.454C295.441 216.937 296.4 216.645 297.386 216.607C297.962 216.604 298.529 216.75 299.031 217.03C300.489 217.862 301.357 219.911 301.357 222.615C301.359 223.063 301.333 223.511 301.28 223.955L302.87 224.872C302.984 224.125 303.041 223.371 303.04 222.615C303.017 219.295 301.869 216.73 299.876 215.582Z" fill="#263238"/>
<path opacity="0.1" d="M271.582 216.191C270.333 216.907 270.333 218.078 271.582 218.802C272.286 219.159 273.064 219.345 273.855 219.345C274.645 219.345 275.423 219.159 276.127 218.802C277.384 218.078 277.384 216.907 276.127 216.191C275.423 215.834 274.645 215.648 273.855 215.648C273.064 215.648 272.286 215.834 271.582 216.191Z" fill="black"/>
<path d="M286.179 207.725C284.449 206.731 282.301 206.893 280.067 208.149C276.639 210.128 273.676 214.519 272.381 219.133C272.923 219.298 273.49 219.365 274.056 219.333C275.251 215.228 277.88 211.353 280.912 209.605C281.75 209.085 282.71 208.79 283.697 208.75C284.274 208.745 284.842 208.894 285.341 209.181C286.799 210.013 287.668 212.054 287.668 214.766C287.669 215.214 287.643 215.661 287.59 216.106L289.188 217.023C289.298 216.275 289.355 215.521 289.359 214.766C289.328 211.446 288.18 208.873 286.179 207.725Z" fill="#263238"/>
<path opacity="0.1" d="M257.894 208.342C256.645 209.058 256.645 210.229 257.894 210.953C258.597 211.31 259.376 211.496 260.166 211.496C260.956 211.496 261.735 211.31 262.439 210.953C263.695 210.229 263.695 209.058 262.439 208.342C261.735 207.984 260.956 207.798 260.166 207.798C259.376 207.798 258.597 207.984 257.894 208.342Z" fill="black"/>
<path d="M272.489 199.876C270.76 198.882 268.611 199.044 266.378 200.307C262.949 202.279 259.987 206.678 258.691 211.284C259.234 211.448 259.801 211.516 260.367 211.484C261.561 207.378 264.19 203.504 267.223 201.755C268.061 201.238 269.021 200.946 270.007 200.908C270.581 200.904 271.145 201.05 271.644 201.332C273.11 202.164 273.971 204.205 273.971 206.916C273.972 207.364 273.946 207.812 273.893 208.257L275.491 209.173C275.601 208.426 275.658 207.672 275.662 206.916C275.638 203.573 274.483 201.031 272.489 199.876Z" fill="#263238"/>
<path opacity="0.1" d="M244.234 200.492C242.986 201.216 242.986 202.387 244.234 203.111C244.937 203.468 245.714 203.654 246.503 203.654C247.292 203.654 248.069 203.468 248.772 203.111C250.036 202.387 250.036 201.216 248.772 200.492C248.068 200.14 247.291 199.957 246.503 199.957C245.715 199.957 244.938 200.14 244.234 200.492Z" fill="black"/>
<path d="M258.8 192.019C257.07 191.025 254.922 191.187 252.688 192.442C249.26 194.422 246.297 198.813 245.002 203.427C245.544 203.591 246.111 203.659 246.677 203.627C247.872 199.521 250.493 195.647 253.534 193.898C254.371 193.378 255.331 193.084 256.318 193.043C256.893 193.038 257.458 193.187 257.954 193.475C259.42 194.307 260.281 196.348 260.281 199.059C260.283 199.507 260.257 199.955 260.204 200.4L261.801 201.316C261.909 200.569 261.963 199.815 261.964 199.059C261.941 195.747 260.801 193.174 258.8 192.019Z" fill="#263238"/>
<path opacity="0.1" d="M230.507 192.635C229.258 193.359 229.258 194.53 230.507 195.254C231.21 195.611 231.989 195.797 232.779 195.797C233.569 195.797 234.348 195.611 235.052 195.254C236.308 194.53 236.308 193.359 235.052 192.635C234.348 192.278 233.569 192.092 232.779 192.092C231.989 192.092 231.21 192.278 230.507 192.635Z" fill="black"/>
<path d="M245.103 184.177C243.373 183.184 241.225 183.338 238.991 184.601C235.571 186.581 232.6 190.971 231.312 195.578C231.851 195.748 232.416 195.819 232.98 195.786C234.174 191.68 236.804 187.805 239.836 186.049C240.676 185.535 241.635 185.243 242.621 185.202C243.197 185.199 243.763 185.345 244.265 185.625C245.723 186.465 246.592 188.506 246.592 191.218C246.593 191.666 246.567 192.113 246.514 192.558L248.065 193.475C248.179 192.728 248.236 191.973 248.236 191.218C248.252 187.89 247.104 185.325 245.103 184.177Z" fill="#263238"/>
<path opacity="0.1" d="M216.817 184.786C215.576 185.51 215.576 186.681 216.817 187.405C217.521 187.762 218.3 187.948 219.09 187.948C219.88 187.948 220.659 187.762 221.362 187.405C222.619 186.681 222.619 185.51 221.362 184.786C220.659 184.429 219.88 184.242 219.09 184.242C218.3 184.242 217.521 184.429 216.817 184.786Z" fill="black"/>
<path d="M231.414 176.328C229.685 175.334 227.536 175.488 225.302 176.751C221.882 178.723 218.912 183.122 217.624 187.728C218.162 187.9 218.728 187.968 219.292 187.928C220.486 183.823 223.115 179.956 226.148 178.199C226.988 177.686 227.947 177.394 228.932 177.352C229.508 177.349 230.075 177.495 230.577 177.776C232.035 178.615 232.903 180.657 232.903 183.368C232.905 183.816 232.879 184.264 232.826 184.709L234.416 185.625C234.53 184.878 234.587 184.124 234.586 183.368C234.563 180.04 233.415 177.475 231.414 176.328Z" fill="#263238"/>
<path opacity="0.1" d="M203.128 176.936C201.879 177.66 201.879 178.831 203.128 179.555C203.832 179.912 204.61 180.098 205.4 180.098C206.191 180.098 206.969 179.912 207.673 179.555C208.929 178.831 208.929 177.66 207.673 176.936C206.969 176.579 206.191 176.393 205.4 176.393C204.61 176.393 203.832 176.579 203.128 176.936Z" fill="black"/>
<path d="M217.725 168.478C215.995 167.485 213.847 167.639 211.613 168.902C208.185 170.874 205.222 175.272 203.927 179.879C204.467 180.051 205.036 180.119 205.602 180.079C206.796 175.973 209.418 172.106 212.458 170.35C213.298 169.836 214.257 169.544 215.243 169.503C215.816 169.499 216.38 169.646 216.879 169.926C218.345 170.766 219.206 172.807 219.206 175.519C219.207 175.967 219.181 176.414 219.129 176.859L220.726 177.776C220.836 177.028 220.893 176.274 220.897 175.519C220.874 172.191 219.726 169.626 217.725 168.478Z" fill="#263238"/>
<path opacity="0.1" d="M189.438 169.087C188.19 169.803 188.19 170.982 189.438 171.698C190.142 172.055 190.921 172.241 191.711 172.241C192.501 172.241 193.28 172.055 193.983 171.698C195.24 170.982 195.24 169.803 193.983 169.087C193.28 168.73 192.501 168.544 191.711 168.544C190.921 168.544 190.142 168.73 189.438 169.087Z" fill="black"/>
<path d="M204.035 160.629C202.306 159.635 200.157 159.789 197.924 161.053C194.495 163.025 191.533 167.423 190.237 172.029C190.779 172.197 191.347 172.265 191.913 172.23C193.107 168.124 195.736 164.249 198.769 162.501C199.607 161.983 200.567 161.691 201.553 161.653C202.127 161.649 202.691 161.795 203.19 162.077C204.656 162.909 205.517 164.958 205.517 167.669C205.518 168.115 205.492 168.56 205.439 169.002L207.037 169.919C207.147 169.174 207.204 168.422 207.207 167.669C207.184 164.342 206.036 161.777 204.035 160.629Z" fill="#263238"/>
<path opacity="0.1" d="M175.749 161.206C174.5 161.931 174.5 163.101 175.749 163.818C176.451 164.175 177.229 164.361 178.018 164.361C178.807 164.361 179.584 164.175 180.286 163.818C181.551 163.101 181.551 161.931 180.286 161.206C179.584 160.849 178.807 160.663 178.018 160.663C177.229 160.663 176.451 160.849 175.749 161.206Z" fill="black"/>
<path d="M190.346 152.779C188.608 151.786 186.468 151.94 184.234 153.203C180.806 155.175 177.843 159.574 176.548 164.18C177.089 164.348 177.657 164.415 178.223 164.38C179.41 160.275 182.039 156.4 185.072 154.651C185.913 154.134 186.875 153.842 187.864 153.804C188.437 153.802 189.001 153.948 189.5 154.228C190.958 155.067 191.827 157.109 191.827 159.82C191.828 160.265 191.802 160.71 191.75 161.153L193.34 162.069C193.453 161.325 193.51 160.573 193.51 159.82C193.487 156.492 192.339 153.927 190.346 152.779Z" fill="#263238"/>
<path d="M215.871 284.247C215.231 284.253 214.6 284.094 214.04 283.785L205.734 279.063C205.479 278.948 205.26 278.768 205.101 278.54C204.941 278.312 204.846 278.046 204.826 277.769C204.834 277.542 204.904 277.322 205.028 277.132C205.153 276.942 205.327 276.79 205.532 276.69L284.108 231.612C284.627 231.373 285.195 231.259 285.766 231.279C286.338 231.299 286.896 231.453 287.397 231.728L295.703 236.496C295.959 236.609 296.18 236.79 296.341 237.017C296.502 237.245 296.598 237.512 296.618 237.79C296.609 238.017 296.537 238.237 296.412 238.427C296.286 238.617 296.111 238.77 295.905 238.868L217.329 283.908C216.881 284.145 216.378 284.262 215.871 284.247ZM285.558 232.113C285.203 232.102 284.85 232.181 284.535 232.344L205.959 277.384C205.85 277.445 205.672 277.569 205.672 277.73C205.672 277.892 205.803 278.092 206.16 278.3L214.467 283.061C214.838 283.264 215.252 283.379 215.675 283.399C216.098 283.419 216.521 283.343 216.91 283.176L295.486 238.137C295.587 238.075 295.765 237.952 295.765 237.79C295.765 237.628 295.641 237.428 295.277 237.22L286.97 232.46C286.536 232.23 286.051 232.111 285.558 232.113Z" fill="#E0E0E0"/>
<path d="M292.424 235.323L210.824 281.899L211.247 282.63L292.847 236.053L292.424 235.323Z" fill="#E0E0E0"/>
<path d="M198.21 274.118C197.571 274.123 196.941 273.966 196.38 273.663L88.2843 211.677C88.0283 211.563 87.808 211.383 87.6468 211.155C87.4856 210.927 87.3897 210.66 87.3691 210.383C87.3787 210.156 87.4501 209.935 87.5757 209.746C87.7014 209.556 87.8766 209.403 88.0827 209.304L166.674 164.288C167.192 164.046 167.761 163.931 168.334 163.952C168.906 163.974 169.464 164.131 169.963 164.411L278.058 226.39C278.314 226.503 278.535 226.683 278.696 226.911C278.857 227.139 278.953 227.406 278.973 227.684C278.964 227.911 278.892 228.131 278.767 228.321C278.641 228.511 278.466 228.663 278.26 228.762L199.668 273.779C199.22 274.016 198.718 274.133 198.21 274.118ZM168.109 164.735C167.751 164.724 167.396 164.804 167.078 164.966L88.5015 210.036C88.4007 210.098 88.2223 210.221 88.2223 210.383C88.2223 210.545 88.3464 210.745 88.7109 210.953L196.806 272.901C197.176 273.105 197.588 273.222 198.01 273.243C198.433 273.263 198.854 273.185 199.242 273.016L277.825 227.976C277.926 227.915 278.105 227.792 278.105 227.63C278.105 227.468 277.973 227.276 277.616 227.068L169.521 165.112C169.086 164.882 168.601 164.763 168.109 164.765V164.735Z" fill="#E0E0E0"/>
<path d="M273.555 224.03L192.327 270.607L192.75 271.334L273.977 224.758L273.555 224.03Z" fill="#E0E0E0"/>
<path d="M267.994 220.834L186.767 267.41L187.189 268.138L268.417 221.561L267.994 220.834Z" fill="#E0E0E0"/>
<path d="M262.423 217.634L181.195 264.21L181.618 264.937L262.845 218.361L262.423 217.634Z" fill="#E0E0E0"/>
<path d="M256.862 214.452L175.635 261.029L176.057 261.756L257.285 215.179L256.862 214.452Z" fill="#E0E0E0"/>
<path d="M251.285 211.299L170.05 257.861L170.472 258.589L251.708 212.026L251.285 211.299Z" fill="#E0E0E0"/>
<path d="M245.727 208.073L164.5 254.65L164.923 255.377L246.15 208.801L245.727 208.073Z" fill="#E0E0E0"/>
<path d="M240.155 204.893L158.928 251.469L159.35 252.197L240.578 205.62L240.155 204.893Z" fill="#E0E0E0"/>
<path d="M234.596 201.692L153.368 248.269L153.791 248.996L235.018 202.419L234.596 201.692Z" fill="#E0E0E0"/>
<path d="M229.035 198.503L147.808 245.079L148.23 245.807L229.458 199.23L229.035 198.503Z" fill="#E0E0E0"/>
<path d="M223.456 195.318L142.229 241.895L142.651 242.622L223.879 196.045L223.456 195.318Z" fill="#E0E0E0"/>
<path d="M217.894 192.147L136.658 238.709L137.081 239.437L218.316 192.874L217.894 192.147Z" fill="#E0E0E0"/>
<path d="M212.336 188.928L131.108 235.505L131.531 236.232L212.758 189.656L212.336 188.928Z" fill="#E0E0E0"/>
<path d="M206.775 185.731L125.548 232.308L125.971 233.035L207.198 186.458L206.775 185.731Z" fill="#E0E0E0"/>
<path d="M201.196 182.554L119.969 229.131L120.391 229.858L201.619 183.282L201.196 182.554Z" fill="#E0E0E0"/>
<path d="M195.638 179.354L114.41 225.93L114.833 226.657L196.06 180.081L195.638 179.354Z" fill="#E0E0E0"/>
<path d="M190.076 176.164L108.849 222.741L109.271 223.468L190.499 176.891L190.076 176.164Z" fill="#E0E0E0"/>
<path d="M184.509 172.971L103.281 219.547L103.704 220.275L184.931 173.698L184.509 172.971Z" fill="#E0E0E0"/>
<path d="M178.935 169.808L97.6992 216.371L98.1218 217.098L179.357 170.535L178.935 169.808Z" fill="#E0E0E0"/>
<path d="M173.378 166.59L92.1504 213.166L92.5731 213.893L173.8 167.317L173.378 166.59Z" fill="#E0E0E0"/>
<path d="M275.258 230.395C275.182 230.394 275.107 230.372 275.041 230.334L163.874 166.599C163.825 166.572 163.781 166.536 163.745 166.492C163.71 166.448 163.685 166.398 163.67 166.343C163.656 166.289 163.652 166.233 163.661 166.177C163.669 166.122 163.689 166.068 163.719 166.021C163.747 165.973 163.783 165.931 163.827 165.898C163.871 165.864 163.921 165.84 163.974 165.825C164.027 165.811 164.083 165.807 164.138 165.814C164.193 165.821 164.245 165.839 164.293 165.867L275.46 229.61C275.508 229.637 275.55 229.673 275.584 229.716C275.618 229.76 275.643 229.809 275.657 229.862C275.671 229.915 275.675 229.971 275.668 230.025C275.661 230.08 275.643 230.132 275.615 230.18C275.58 230.244 275.529 230.298 275.466 230.336C275.404 230.374 275.332 230.394 275.258 230.395Z" fill="url(#paint2_linear_2409_5724)"/>
<path d="M221.501 145.484C218.5 143.381 218.771 140.431 222.106 138.906C223.969 138.169 225.98 137.881 227.976 138.063C229.972 138.245 231.896 138.892 233.593 139.953C236.594 142.064 236.315 145.006 232.98 146.539C231.118 147.272 229.108 147.559 227.113 147.375C225.119 147.192 223.196 146.544 221.501 145.484Z" fill="#263238"/>
<path d="M235.074 144.945L233.763 144.822C233.44 144.078 232.9 143.447 232.212 143.011C230.837 142.153 229.278 141.628 227.661 141.48C226.044 141.331 224.415 141.563 222.905 142.156C222.154 142.465 221.511 142.988 221.059 143.658L219.748 143.543L221.036 146.054C221.371 146.638 221.838 147.137 222.401 147.51C223.777 148.365 225.336 148.888 226.952 149.036C228.568 149.185 230.197 148.955 231.708 148.365C232.327 148.096 232.876 147.69 233.313 147.179L235.074 144.945Z" fill="#263238"/>
<path d="M218.95 143.111C214.513 139.984 214.932 135.624 219.873 133.383C224.813 131.141 232.414 131.842 236.851 134.977C241.287 138.112 240.861 142.464 235.92 144.706C230.979 146.948 223.379 146.239 218.95 143.111Z" fill="#455A64"/>
<path d="M218.778 141.501C214.187 138.258 214.621 133.744 219.748 131.41C224.874 129.076 232.755 129.823 237.346 133.066C241.938 136.309 241.511 140.831 236.384 143.157C231.258 145.484 223.378 144.752 218.778 141.501Z" fill="#37474F"/>
<path d="M218.724 139.73C214.016 136.402 214.458 131.765 219.717 129.377C224.976 126.989 233.05 127.751 237.765 131.079C242.481 134.407 242.031 139.036 236.772 141.424C231.514 143.812 223.44 143.05 218.724 139.73Z" fill="#455A64"/>
<path d="M218.639 137.95C213.815 134.538 214.265 129.793 219.655 127.343C225.046 124.894 233.321 125.672 238.145 129.084C242.97 132.497 242.52 137.242 237.137 139.691C231.754 142.141 223.502 141.355 218.639 137.95Z" fill="#37474F"/>
<path d="M218.639 136.171C213.698 132.674 214.164 127.813 219.678 125.31C225.193 122.806 233.639 123.6 238.619 127.089C243.598 130.578 243.094 135.447 237.579 137.95C232.065 140.454 223.564 139.637 218.639 136.171Z" fill="#455A64"/>
<path d="M218.562 134.392C213.505 130.817 213.978 125.841 219.624 123.276C225.271 120.711 233.95 121.527 239.014 125.102C244.079 128.676 243.598 133.644 237.952 136.217C232.305 138.79 223.619 137.966 218.562 134.392Z" fill="#37474F"/>
<path d="M243.8 124.054C243.993 121.951 242.791 119.718 240.146 117.853C234.849 114.11 225.767 113.232 219.865 115.943C216.909 117.283 215.304 119.255 215.11 121.335C215.033 122.152 214.722 125.356 214.645 126.173C214.443 128.283 215.645 130.517 218.298 132.381C223.595 136.125 232.677 137.003 238.588 134.292C241.535 132.951 243.14 130.979 243.334 128.9C243.412 128.083 243.722 124.879 243.8 124.054Z" fill="url(#paint3_linear_2409_5724)"/>
<path d="M238.735 25.4552C233.069 24.9201 227.352 25.4989 221.911 27.1585C216.47 28.8182 211.412 31.5262 207.025 35.1279C202.638 38.7296 199.008 43.1544 196.343 48.1495C193.678 53.1447 192.03 58.6123 191.494 64.2401C188.244 98.249 215.964 106.561 214.653 120.264C214.451 122.452 215.692 124.771 218.438 126.712C223.937 130.563 233.361 131.48 239.488 128.691C242.59 127.297 244.211 125.248 244.421 123.068C245.731 109.357 274.529 106.368 277.771 72.3591C278.855 60.9985 275.352 49.6755 268.032 40.8798C260.712 32.0841 250.174 26.5359 238.735 25.4552Z" fill="url(#paint4_linear_2409_5724)"/>
<g style="mix-blend-mode:screen" opacity="0.9">
<path d="M238.735 25.4552C233.069 24.9201 227.352 25.4989 221.911 27.1585C216.47 28.8182 211.412 31.5262 207.025 35.1279C202.638 38.7296 199.008 43.1544 196.343 48.1495C193.678 53.1447 192.03 58.6123 191.494 64.2401C188.244 98.249 215.964 106.561 214.653 120.264C214.451 122.452 215.692 124.771 218.438 126.712C223.937 130.563 233.361 131.48 239.488 128.691C242.59 127.297 244.211 125.248 244.421 123.068C245.731 109.357 274.529 106.368 277.771 72.3591C278.855 60.9985 275.352 49.6755 268.032 40.8798C260.712 32.0841 250.174 26.5359 238.735 25.4552Z" fill="white"/>
</g>
<path d="M220.268 125.957C215.669 122.714 216.103 118.2 221.23 115.866C226.357 113.532 234.237 114.279 238.828 117.522C243.42 120.765 242.993 125.287 237.867 127.621C232.74 129.955 224.844 129.208 220.268 125.957Z" fill="url(#paint5_linear_2409_5724)"/>
<path opacity="0.55" d="M220.268 125.957C215.669 122.714 216.103 118.2 221.23 115.866C226.357 113.532 234.237 114.279 238.828 117.522C243.42 120.765 242.993 125.287 237.867 127.621C232.74 129.955 224.844 129.208 220.268 125.957Z" fill="white"/>
<path opacity="0.25" d="M240.123 126.219C239.441 126.789 238.681 127.261 237.866 127.621C232.74 129.932 224.86 129.208 220.268 125.965C219.539 125.459 218.883 124.855 218.321 124.17C219 123.599 219.758 123.127 220.571 122.768C225.697 120.457 233.585 121.174 238.177 124.424C238.908 124.928 239.563 125.532 240.123 126.219Z" fill="url(#paint6_linear_2409_5724)"/>
<path d="M240.123 126.219C239.441 126.789 238.681 127.261 237.866 127.621C232.74 129.932 224.86 129.208 220.268 125.965C219.539 125.459 218.883 124.855 218.321 124.17C219 123.599 219.758 123.127 220.571 122.768C225.697 120.457 233.585 121.174 238.177 124.424C238.908 124.928 239.563 125.532 240.123 126.219Z" fill="url(#paint7_linear_2409_5724)"/>
<path opacity="0.35" d="M240.123 126.219C239.441 126.789 238.681 127.261 237.866 127.621C232.74 129.932 224.86 129.208 220.268 125.965C219.539 125.459 218.883 124.855 218.321 124.17C219 123.599 219.758 123.127 220.571 122.768C225.697 120.457 233.585 121.174 238.177 124.424C238.908 124.928 239.563 125.532 240.123 126.219Z" fill="white"/>
<path opacity="0.35" d="M270.497 51.1757C268.17 46.8543 264.292 43.1337 259.033 44.813C258.469 44.9979 257.931 45.257 257.436 45.5833C256.543 46.2173 255.829 47.0694 255.365 48.0571C254.9 49.0448 254.7 50.1349 254.783 51.2219C255 55.4278 258.77 58.3858 260.786 61.829C263.004 65.6028 264.532 69.7362 265.3 74.0384C265.477 75.594 265.815 77.1273 266.308 78.614C266.648 79.3785 267.261 79.9904 268.03 80.3307C268.798 80.6709 269.666 80.7152 270.466 80.455C272.226 79.7309 273.297 77.7281 273.684 76.1182C276.035 66.5356 274.708 59.1022 270.497 51.1757ZM268.279 83.0509C267.512 82.9501 266.733 83.1011 266.061 83.4808C265.389 83.8604 264.86 84.448 264.556 85.1539C264.297 85.766 264.172 86.4251 264.186 87.0886C264.201 87.7521 264.356 88.4051 264.641 89.0054C264.975 89.6507 265.551 90.1395 266.245 90.3659C266.939 90.5923 267.694 90.538 268.348 90.2147C269.011 89.8734 269.578 89.3736 269.998 88.7604C270.417 88.1472 270.677 87.4398 270.753 86.7022C270.885 85.1538 270.024 83.4053 268.279 83.0509Z" fill="white"/>
<path d="M234.152 126.488L233.655 126.442C235.105 111.198 236.913 101.723 239.689 94.775C240.396 92.9798 241.271 91.2545 242.303 89.6217C238.839 88.1016 235.738 85.8701 233.205 83.0741C230.192 85.3507 226.726 86.9654 223.037 87.8115C223.747 89.6045 224.28 91.462 224.627 93.3576C226.046 100.699 226.023 110.343 224.573 125.587L224.069 125.541C225.519 110.343 225.542 100.745 224.139 93.4501C223.785 91.5533 223.245 89.6956 222.525 87.9039C222.041 87.9939 221.551 88.0556 221.059 88.0888C215.964 88.4508 213.179 86.7407 212.272 85.0075C211.962 84.4228 211.838 83.7582 211.917 83.102C211.996 82.4457 212.274 81.8288 212.714 81.3332C213.144 80.8271 213.716 80.4605 214.358 80.2806C214.999 80.1007 215.68 80.1159 216.313 80.3241C218.461 80.8556 221.021 82.9894 222.89 87.3416C226.533 86.534 229.958 84.9578 232.934 82.7197C232.451 82.1507 232.025 81.5368 231.662 80.8864C229.653 77.1273 230.111 74.0692 231.158 72.467C231.501 71.9294 231.988 71.4968 232.564 71.217C233.14 70.9373 233.783 70.8213 234.421 70.8819C235.06 70.9425 235.669 71.1773 236.181 71.5604C236.693 71.9435 237.089 72.4599 237.324 73.0524C238.099 74.8241 237.929 77.9053 235.237 81.2254C234.757 81.7894 234.221 82.3054 233.64 82.766C236.138 85.5247 239.203 87.7183 242.629 89.198C245.289 85.2772 248.205 83.6595 250.385 83.5363C251.039 83.4585 251.701 83.5741 252.289 83.8688C252.876 84.1634 253.364 84.6239 253.689 85.1924C254.027 85.7627 254.183 86.4216 254.136 87.0819C254.089 87.7422 253.841 88.3727 253.425 88.8899C252.207 90.4305 249.144 91.5705 244.211 90.2687C243.746 90.1455 243.28 89.9914 242.807 89.8143C241.759 91.4375 240.878 93.1614 240.178 94.9599C237.425 101.893 235.625 111.29 234.152 126.488ZM243.079 89.3906C243.497 89.5446 243.916 89.6756 244.327 89.7834C249.028 91.0236 251.897 89.976 253.014 88.5741C253.372 88.1361 253.584 87.5986 253.622 87.0357C253.659 86.4728 253.52 85.9122 253.224 85.4312C252.945 84.9463 252.529 84.5542 252.026 84.3046C251.524 84.055 250.958 83.9592 250.4 84.0293C248.446 84.1756 245.669 85.7162 243.102 89.3906H243.079ZM215.576 80.7092C215.12 80.648 214.656 80.7028 214.227 80.8685C213.798 81.0342 213.419 81.3055 213.125 81.6567C212.743 82.0746 212.501 82.5995 212.432 83.1594C212.363 83.7193 212.469 84.2868 212.737 84.7842C213.567 86.3633 216.196 87.9347 221.044 87.5958C221.481 87.5637 221.916 87.5097 222.347 87.434C220.524 83.3129 218.089 81.2716 216.142 80.8094C215.956 80.7631 215.767 80.7297 215.576 80.7092ZM234.353 71.3501C233.804 71.2944 233.25 71.3935 232.755 71.636C232.26 71.8785 231.843 72.2546 231.553 72.7212C230.305 74.5853 230.514 77.6897 232.088 80.6322C232.433 81.2556 232.838 81.8439 233.298 82.3885C233.867 81.9287 234.387 81.4125 234.85 80.8479C236.951 78.252 237.743 75.2478 236.866 73.1834C236.664 72.6734 236.321 72.2307 235.876 71.9063C235.432 71.5819 234.904 71.389 234.353 71.3501Z" fill="#455A64"/>
<path d="M238.479 15.865C238.308 15.8533 238.141 15.8081 237.987 15.732C237.833 15.6559 237.696 15.5503 237.584 15.4215C237.472 15.2927 237.386 15.143 237.332 14.9812C237.278 14.8193 237.257 14.6485 237.269 14.4785L238.169 1.62978C238.181 1.45983 238.227 1.29394 238.304 1.14158C238.38 0.989215 238.487 0.853361 238.616 0.741775C238.746 0.63019 238.896 0.545058 239.059 0.491238C239.222 0.437418 239.394 0.415963 239.565 0.428102C239.736 0.440241 239.903 0.485735 240.057 0.561985C240.21 0.638235 240.347 0.743749 240.459 0.872502C240.571 1.00126 240.657 1.15072 240.711 1.31238C240.766 1.47403 240.787 1.64471 240.775 1.81465L239.875 14.6633C239.849 15.0061 239.688 15.3248 239.427 15.55C239.165 15.7751 238.824 15.8883 238.479 15.865Z" fill="#F0F0F0"/>
<path d="M265.315 25.1396C265.085 25.1214 264.863 25.0445 264.672 24.9162C264.529 24.8216 264.407 24.7 264.313 24.5584C264.218 24.4168 264.153 24.2579 264.12 24.0911C264.088 23.9242 264.089 23.7525 264.124 23.5861C264.158 23.4197 264.226 23.2617 264.322 23.1214L271.574 12.445C271.658 12.2806 271.776 12.1359 271.921 12.0205C272.066 11.9052 272.233 11.8218 272.413 11.776C272.593 11.7302 272.78 11.723 272.963 11.7549C273.145 11.7869 273.319 11.8572 273.472 11.9611C273.625 12.0651 273.754 12.2003 273.851 12.3578C273.947 12.5153 274.008 12.6914 274.03 12.8742C274.053 13.0571 274.035 13.2426 273.98 13.4184C273.924 13.5941 273.831 13.7559 273.707 13.8931L266.455 24.5695C266.329 24.7527 266.159 24.901 265.959 25.0007C265.76 25.1004 265.538 25.1482 265.315 25.1396Z" fill="#F0F0F0"/>
<path d="M283.882 46.4923C283.595 46.4737 283.322 46.3611 283.106 46.1722C282.89 45.9832 282.743 45.7285 282.688 45.4478C282.633 45.1671 282.673 44.8762 282.802 44.6206C282.931 44.365 283.142 44.1591 283.402 44.035L295.036 38.3886C295.338 38.2796 295.67 38.2853 295.968 38.4047C296.266 38.5241 296.509 38.7488 296.651 39.0355C296.792 39.3222 296.822 39.6507 296.734 39.9579C296.647 40.2651 296.448 40.5293 296.176 40.6996L284.542 46.3382C284.34 46.4478 284.112 46.501 283.882 46.4923Z" fill="#F0F0F0"/>
<path d="M302.149 75.1092L289.219 74.2079C289.045 74.2005 288.874 74.1586 288.717 74.0844C288.559 74.0103 288.418 73.9056 288.302 73.7764C288.186 73.6472 288.098 73.4962 288.041 73.3324C287.985 73.1685 287.963 72.9951 287.975 72.8225C287.987 72.6498 288.035 72.4814 288.114 72.3272C288.193 72.173 288.302 72.0361 288.436 71.9246C288.569 71.8132 288.724 71.7295 288.89 71.6784C289.057 71.6274 289.232 71.61 289.405 71.6274L302.342 72.5209C302.688 72.5454 303.01 72.7053 303.237 72.9653C303.463 73.2254 303.577 73.5643 303.552 73.9075C303.528 74.2507 303.367 74.5701 303.105 74.7955C302.843 75.0208 302.502 75.1337 302.156 75.1092H302.149Z" fill="#F0F0F0"/>
<path d="M290.623 108.055C290.395 108.039 290.176 107.964 289.987 107.839L279.237 100.637C278.95 100.445 278.751 100.148 278.685 99.8102C278.619 99.4729 278.69 99.1233 278.884 98.8383C279.077 98.5533 279.377 98.3563 279.716 98.2905C280.056 98.2248 280.408 98.2958 280.695 98.4878L291.445 105.69C291.683 105.849 291.862 106.082 291.954 106.353C292.045 106.624 292.044 106.917 291.95 107.187C291.856 107.457 291.675 107.688 291.435 107.845C291.195 108.002 290.909 108.076 290.623 108.055Z" fill="#F0F0F0"/>
<path d="M173.406 99.5816C173.119 99.5631 172.846 99.4505 172.629 99.2615C172.413 99.0726 172.266 98.8178 172.211 98.5371C172.157 98.2564 172.197 97.9656 172.326 97.71C172.455 97.4544 172.666 97.2484 172.925 97.1243L184.559 91.478C184.714 91.3812 184.887 91.3177 185.068 91.2918C185.249 91.2659 185.434 91.2781 185.609 91.3276C185.785 91.3772 185.949 91.4629 186.089 91.5793C186.23 91.6957 186.344 91.8402 186.424 92.0033C186.505 92.1663 186.55 92.3444 186.556 92.5259C186.563 92.7074 186.531 92.8882 186.462 93.0566C186.394 93.225 186.291 93.3773 186.159 93.5035C186.028 93.6296 185.871 93.7269 185.699 93.7889L174.065 99.4353C173.862 99.5401 173.635 99.5905 173.406 99.5816Z" fill="#F0F0F0"/>
<path d="M179.728 66.2505L166.791 65.3493C166.616 65.3419 166.446 65.2999 166.288 65.2258C166.131 65.1517 165.99 65.0469 165.874 64.9178C165.758 64.7886 165.669 64.6376 165.613 64.4737C165.556 64.3099 165.534 64.1365 165.546 63.9638C165.559 63.7912 165.606 63.6228 165.685 63.4685C165.764 63.3143 165.874 63.1774 166.007 63.066C166.141 62.9546 166.295 62.8708 166.462 62.8198C166.628 62.7687 166.803 62.7514 166.977 62.7687L179.914 63.6623C180.259 63.6868 180.581 63.8467 180.808 64.1067C181.035 64.3667 181.148 64.7056 181.124 65.0488C181.099 65.3921 180.938 65.7115 180.676 65.9368C180.414 66.1622 180.073 66.275 179.728 66.2505Z" fill="#F0F0F0"/>
<path d="M189.066 39.5979C188.839 39.5825 188.619 39.5081 188.43 39.3823L177.68 32.1799C177.538 32.0848 177.416 31.9629 177.322 31.821C177.227 31.6792 177.161 31.5202 177.129 31.3532C177.096 31.1862 177.096 31.0144 177.131 30.8476C177.165 30.6808 177.231 30.5224 177.327 30.3813C177.423 30.2401 177.546 30.1191 177.689 30.0251C177.831 29.9312 177.991 29.866 178.16 29.8335C178.328 29.8009 178.501 29.8016 178.669 29.8355C178.837 29.8693 178.996 29.9357 179.138 30.0308L189.888 37.2331C190.127 37.3923 190.306 37.6254 190.397 37.8961C190.488 38.1667 190.487 38.4598 190.393 38.7297C190.299 38.9995 190.118 39.231 189.878 39.388C189.638 39.5451 189.353 39.6189 189.066 39.5979Z" fill="#F0F0F0"/>
<path d="M210.573 21.1569C210.344 21.1412 210.123 21.0661 209.933 20.939C209.742 20.8119 209.589 20.6374 209.487 20.4329L203.802 8.8783C203.692 8.57821 203.698 8.24839 203.818 7.95226C203.938 7.65613 204.165 7.4146 204.453 7.2741C204.742 7.13361 205.073 7.10407 205.382 7.19117C205.691 7.27828 205.957 7.47586 206.129 7.74595L211.814 19.3005C211.889 19.4537 211.933 19.6201 211.944 19.7903C211.954 19.9604 211.93 20.1309 211.874 20.2919C211.818 20.453 211.73 20.6014 211.616 20.7287C211.502 20.856 211.364 20.9597 211.209 21.0337C211.012 21.1296 210.792 21.1722 210.573 21.1569Z" fill="#F0F0F0"/>
<path d="M74.8817 254.074C75.4478 251.679 73.059 250.169 71.9266 248.79C70.1815 246.664 69.5998 241.711 69.6619 239.184C69.6619 236.026 69.2973 233.792 71.2751 230.927C73.6019 227.545 76.8749 223.593 87.7799 213.918L74.3775 200.492C71.5698 204.867 64.4809 220.204 64.4809 220.204L64.0155 221.152C62.8392 222.719 61.408 224.08 59.7807 225.18L59.0051 225.558C57.7254 226.42 54.4679 227.345 54.5222 230.372C54.5764 233.399 55.7631 234.139 57.1437 236.612C58.225 238.199 58.7683 240.088 58.6949 242.004C58.7414 244.438 58.6406 247.149 58.6173 249.329C58.6173 251.163 60.3004 253.82 63.8526 255.014C69.0569 256.786 74.3232 256.424 74.8817 254.074Z" fill="#FFBDA7"/>
<path d="M52.6612 230.48C51.1209 232.539 49.8199 234.764 48.7832 237.113L52.351 242.073L55.3448 237.066C54.0186 235.07 53.1063 232.831 52.6612 230.48Z" fill="#263238"/>
<path d="M52.3662 242.089L57.268 241.75C57.4957 240.725 57.3209 239.654 56.7794 238.753C56.4127 238.115 55.9317 237.548 55.36 237.082L52.3662 242.089Z" fill="black"/>
<path d="M53.6615 229.355C53.2829 229.63 52.9616 229.976 52.7153 230.372C52.5479 232.141 52.9151 233.919 53.7701 235.479C54.7861 237.02 56.4459 238.561 56.8725 240.733C57.2991 242.905 56.4226 247.827 57.2835 250.824C58.1445 253.82 61.0607 257.256 67.4129 258.065C71.9501 258.642 73.6642 257.787 75.1689 256.848C75.7196 254.899 75.6653 254.39 73.1833 252.75C70.7014 251.109 53.6615 229.355 53.6615 229.355Z" fill="#263238"/>
<path d="M62.1231 221.437C60.0833 223.84 59.3542 224.764 57.4695 225.843C55.197 227.152 54.7317 227.676 53.6458 229.355C53.1882 231.959 53.7156 233.03 56.12 236.357C57.772 238.63 58.3072 240.124 58.2606 243.252C58.2064 247.034 56.9111 250.485 61.5492 254.352C65.1635 257.371 73.0746 257.572 75.2153 255.476C77.0534 250.315 72.1672 250.585 71.058 245.108C70.4453 242.081 70.391 237.505 71.345 234.478C71.765 233.115 72.3021 231.79 72.9505 230.519C73.7261 229.232 74.3854 228.292 73.7726 227.622L72.617 229.032C71.4691 229.278 68.6847 228.685 66.8465 227.214C62.4256 223.686 63.9691 221.175 63.9691 221.175L64.4344 220.227C64.0001 219.696 63.2788 220.073 62.1231 221.437Z" fill="#37474F"/>
<path d="M111.281 100.915C112.397 108.371 116.012 117.723 118.021 135.371C119.905 151.932 120.743 160.567 119.572 168.794C119.153 171.729 117.625 175.164 114.724 179.509C105.626 193.105 87.7256 214.512 87.7256 214.512C87.7256 214.512 83.6615 214.442 78.7442 210.552C77.3346 209.405 76.1702 207.989 75.3191 206.389C74.468 204.788 73.9475 203.035 73.7881 201.232C73.7881 201.232 74.2612 198.15 81.769 185.594C86.3929 177.579 89.2778 168.692 90.2386 159.504L85.3445 106.353C96.9785 107.37 105.844 105.252 111.281 100.915Z" fill="#263238"/>
<path d="M78.7207 210.552C77.3112 209.405 76.1467 207.989 75.2956 206.389C74.4446 204.788 73.924 203.035 73.7646 201.232C73.7646 201.232 74.2378 198.151 81.7456 185.595C86.3694 177.579 89.2544 168.692 90.2151 159.504L86.469 118.84C95.59 117.438 108.31 117.554 108.31 117.554C108.55 123.377 107.255 130.587 98.8088 134.932C98.8088 134.932 100.36 163.556 100.562 171.906C100.709 178.3 98.8398 194.569 97.9401 201.948C92.255 209.097 87.7022 214.543 87.7022 214.543C87.7022 214.543 83.638 214.442 78.7207 210.552Z" fill="black"/>
<path d="M94.1716 241.18L94.2259 239.893L95.4979 213.749L76.9766 218.371L81.095 239.331L81.2346 240.417C81.2346 240.417 81.4285 245.747 89.7042 246.048C93.9389 246.179 94.1716 241.18 94.1716 241.18Z" fill="#FFBDA7"/>
<path d="M84.166 265.013L90.5957 262.648L90.7974 256.578L84.2591 259.027L84.166 265.013Z" fill="black"/>
<path d="M77.9149 251.409C77.6512 253.643 79.4661 262.193 79.4661 262.193L84.1197 265.005L84.2127 259.02C84.2127 259.02 85.508 260.121 86.8808 263.287C88.176 266.276 89.9832 269.149 93.008 270.659C96.0329 272.169 101.346 272.793 105.829 272.2C109.016 271.791 110.979 270.436 111.514 269.635C111.671 269.23 111.735 268.796 111.7 268.364L77.9149 251.409Z" fill="#263238"/>
<path d="M94.2253 239.893C95.1094 239.824 95.0009 240.663 96.1255 245.67C96.9011 249.422 98.7082 255.884 105.572 260.144C108.403 261.901 112.32 263.01 111.777 268.379C109.815 270.99 102.974 271.676 98.8789 270.959C90.6032 269.511 89.37 266.268 87.2992 261.431C85.6471 257.579 84.1968 257.148 81.9785 255.592C80.5127 254.567 78.5271 253.088 77.9454 251.409C77.8368 247.727 79.2407 245.324 79.7371 243.467C80.2334 241.611 79.9387 239.569 81.1254 239.3L81.265 240.386C81.265 240.386 82.3741 243.344 88.129 243.467C93.884 243.59 94.202 241.195 94.202 241.195L94.2253 239.893Z" fill="#37474F"/>
<path d="M111.281 100.915C111.281 100.915 112.763 110.544 109.606 119.317C106.861 126.943 101.586 131.242 96.0409 133.029C96.0409 133.029 97.8868 167.269 98.3677 172.037C98.8486 176.805 97.7162 194.075 96.6692 205.445C95.6221 216.815 95.3196 220.705 95.3196 220.705C95.3196 220.705 92.8765 223.262 86.0124 223.393C79.1484 223.524 76.9922 220.72 76.9922 220.72C76.9922 220.72 72.6643 207.579 72.486 197.264C72.3774 191.356 73.6881 188.421 72.5558 182.559C71.4234 176.697 63.0702 150.615 61.6586 138.251C60.247 125.888 62.3644 115.019 71.2217 102.355C80.7539 108.533 102.602 106.985 111.281 100.915Z" fill="#263238"/>
<path d="M75.1531 104.266C70.3521 110.844 63.4338 124.417 68.3433 143.844C69.7394 149.375 71.1174 154.713 72.4772 159.859C75.6339 171.937 78.1236 181.481 78.4571 185.117C78.5773 187.176 78.4759 189.242 78.1546 191.279C77.469 196.07 77.469 200.932 78.1546 205.723C79.0156 211.947 80.2643 218.479 81.164 222.908C80.877 222.831 80.6055 222.754 80.3884 222.669C79.4887 218.248 78.2865 211.885 77.4411 205.823C76.7458 200.969 76.7458 196.041 77.4411 191.187C77.7541 189.205 77.8529 187.196 77.7358 185.194C77.4101 181.612 74.9204 172.099 71.7792 160.051C70.4297 154.89 69.0336 149.552 67.6375 144.029C62.6969 124.456 69.592 110.729 74.4628 103.973C74.6489 104.081 74.8816 104.204 75.1531 104.266Z" fill="black"/>
<path d="M141.918 94.0279C144.741 95.7688 146.998 95.5685 149.239 96.0923C152.086 96.747 154.327 98.1413 158.182 99.9053C158.849 100.206 159.5 100.522 160.16 100.83C160.473 100.995 160.796 101.139 161.129 101.261C161.439 101.361 161.703 101.461 161.695 101.877C161.662 102.173 161.522 102.447 161.3 102.648C160.932 102.976 160.499 103.226 160.029 103.38C159.559 103.533 159.062 103.588 158.57 103.541C157.589 103.434 156.618 103.246 155.669 102.979C154.932 102.817 155.281 103.595 155.498 103.942C156.576 105.636 162.006 106.954 163.774 107.839C164.55 108.24 165.643 108.232 165.798 109.288C165.818 109.643 165.87 109.997 165.953 110.343C166.115 110.685 166.318 111.005 166.558 111.298C166.897 111.739 167.07 112.284 167.047 112.839C167.027 113.119 166.925 113.388 166.753 113.611C166.58 113.835 166.345 114.003 166.077 114.094C165.643 114.21 165.162 114.094 164.759 114.264C164.578 114.37 164.404 114.489 164.239 114.618C163.464 115.134 162.44 114.865 161.501 114.834C160.726 114.834 159.95 115.057 159.175 115.065C158.313 115.108 157.449 115.082 156.592 114.988C154.644 114.658 152.732 114.142 150.884 113.447C148.46 112.379 146.271 110.851 144.438 108.949C143.004 107.273 141.165 105.985 139.094 105.205C135.612 103.664 122.179 98.5419 117.44 95.1525C115.718 93.92 114.857 92.5951 109.373 86.995C101.23 78.6834 98.6779 75.2324 98.6779 75.2324L92.7988 55.8362C99.5698 56.0442 102.509 55.4818 107.597 60.9356C114.725 68.5693 125.436 81.7338 125.436 81.7338C125.436 81.7338 139.529 92.5566 141.918 94.0279Z" fill="#FFBDA7"/>
<path d="M153.389 103.433C150.783 105.29 146.649 104.265 144.935 103.264C144.935 103.264 147.199 105.367 149.387 105.367C151.791 105.359 152.714 104.527 153.389 103.433Z" fill="#F0997A"/>
<path d="M176.4 208.703L201.22 234.123C201.376 234.287 201.58 234.398 201.804 234.44C202.028 234.482 202.259 234.453 202.465 234.356C202.67 234.26 202.84 234.101 202.95 233.902C203.059 233.704 203.102 233.477 203.073 233.252L198.947 197.818L176.4 208.703Z" fill="#FFA8A7"/>
<path d="M203.073 233.283C203.102 233.508 203.059 233.735 202.949 233.933C202.84 234.132 202.67 234.29 202.465 234.387C202.259 234.484 202.028 234.513 201.804 234.471C201.58 234.429 201.376 234.318 201.22 234.154L196.372 229.185C197.475 229.244 198.574 229 199.547 228.48C200.52 227.959 201.329 227.183 201.887 226.235L202.189 225.711L203.073 233.283Z" fill="#455A64"/>
<path d="M128.507 49.9199L129.919 52.8856L131.633 56.4598L198.955 197.88C197.846 201.731 194.945 204.751 191.517 206.792C186.305 209.912 179.883 210.752 176.416 208.695L109.14 67.3442L105.883 60.5039C108.241 64.8176 130.811 54.2798 128.507 49.9199Z" fill="#455A64"/>
<path d="M133.921 61.1895L137.023 67.8141C137.993 69.709 134.456 72.8673 129.911 75.5171C123.869 79.0528 115.624 80.8245 114.329 78.321L112.002 73.445L111.227 71.681C112.53 74.1845 120.774 72.4513 126.808 68.8848C131.167 66.3351 134.564 63.2924 133.983 61.3974C133.978 61.3243 133.957 61.2532 133.921 61.1895Z" fill="#EBEBEB"/>
<path d="M134.689 62.8534C136.961 67.2364 114.283 77.7434 112.01 73.3526L108.846 66.7357C111.118 71.1187 133.789 60.5733 131.516 56.2288L134.689 62.8534Z" fill="url(#paint8_linear_2409_5724)"/>
<path d="M128.507 49.9199L131.609 56.4598C133.874 60.7504 112.08 71.0956 109.117 67.3442C109.051 67.2758 108.996 67.1979 108.954 67.1131L105.852 60.5039C108.24 64.8176 130.81 54.2798 128.507 49.9199Z" fill="#EBEBEB"/>
<path opacity="0.1" d="M109.14 67.3441L105.883 60.5038C106.945 62.4527 112.274 61.7902 117.517 59.5872L188.337 208.418L201.251 234.154L176.431 208.733L109.14 67.3441Z" fill="black"/>
<path d="M92.3953 32.1951C92.3953 32.1258 92.3022 32.0565 92.2634 31.9794C90.9061 29.0985 94.8694 24.3997 101.121 21.4879C107.372 18.5762 113.53 18.5453 114.903 21.4109L128.499 49.9121C129.484 51.7763 126.002 54.9268 121.519 57.6152C115.493 61.174 107.233 63.0073 105.891 60.5269L92.5814 32.6342C92.5194 32.511 92.4651 32.3877 92.4108 32.2568C92.3565 32.1258 92.403 32.2182 92.3953 32.1951Z" fill="#F28F8F"/>
<path opacity="0.1" d="M99.795 22.1506L117.494 59.5874C112.313 61.7289 106.946 62.4607 105.86 60.5041L92.582 32.6345C92.5199 32.5112 92.4656 32.388 92.4113 32.257C92.357 32.1261 92.4113 32.257 92.4113 32.1954C92.4113 32.1338 92.3183 32.0567 92.2795 31.9797C90.9997 29.3145 94.3271 25.0778 99.795 22.1506Z" fill="black"/>
<path d="M92.2634 31.9798C93.6285 34.8608 99.7945 34.83 106.054 31.9182C112.313 29.0065 116.26 24.2999 114.911 21.419C113.561 18.538 107.372 18.5688 101.121 21.4883C94.8694 24.4077 90.9061 29.0989 92.2634 31.9798Z" fill="#FFA8A7"/>
<path d="M62.1309 85.9241C62.1309 85.9241 65.7839 84.1678 66.7845 76.2876C67.2343 72.7057 66.0089 68.0376 64.4577 62.6532L74.8274 58.17C74.8274 58.17 78.2556 57.2303 85.8177 55.8591H92.7981C92.7981 55.8591 105.44 61.1588 110.583 67.8528C113.382 71.504 116.291 79.2918 111.358 85.2077C111.738 90.5074 111.808 101.307 111.808 101.307C111.808 101.307 108.907 106.53 94.9698 108.109C74.9748 110.42 69.375 103.14 69.375 103.14C69.0415 97.4787 64.2405 91.3856 62.1309 85.9241Z" fill="url(#paint9_linear_2409_5724)"/>
<path opacity="0.2" d="M62.1309 85.9241C62.1309 85.9241 65.7839 84.1678 66.7845 76.2876C67.2343 72.7057 66.0089 68.0376 64.4577 62.6532L74.8274 58.17C74.8274 58.17 78.2556 57.2303 85.8177 55.8591H92.7981C92.7981 55.8591 105.44 61.1588 110.583 67.8528C113.382 71.504 116.291 79.2918 111.358 85.2077C111.738 90.5074 111.808 101.307 111.808 101.307C111.808 101.307 108.907 106.53 94.9698 108.109C74.9748 110.42 69.375 103.14 69.375 103.14C69.0415 97.4787 64.2405 91.3856 62.1309 85.9241Z" fill="white"/>
<path d="M96.5447 87.0795C96.5447 87.0795 93.6517 91.9324 85.919 91.7475C78.1863 91.5626 75.875 86.1089 75.875 86.1089C75.875 86.1089 76.4722 93.4653 85.7174 93.6502C94.8229 93.8273 96.5447 87.0795 96.5447 87.0795Z" fill="url(#paint10_linear_2409_5724)"/>
<path d="M68.2735 18.5765C69.3798 17.2527 70.8822 16.3136 72.5626 15.8959C74.1758 15.503 75.1608 15.5261 76.6965 14.9022C78.2322 14.2782 79.4111 13.2999 80.8692 12.6914C84.0725 11.3511 87.9272 12.183 90.6806 14.2859C91.8983 15.218 93.0074 16.4274 94.5586 16.6508C95.315 16.7084 96.0747 16.7084 96.8311 16.6508C98.0326 16.716 99.1992 17.0758 100.226 17.6982C101.254 18.3206 102.11 19.1861 102.718 20.2173C103.67 21.8307 104.243 23.6372 104.393 25.5016C104.579 27.3426 103.936 29.0604 104.052 30.8937C104.258 32.2249 104.87 33.4615 105.805 34.4371C106.945 35.625 107.822 37.0366 108.38 38.5813C108.86 39.9049 109.002 41.3265 108.791 42.7179C108.675 43.4101 108.385 44.0622 107.949 44.6141C107.512 45.166 106.943 45.6 106.293 45.8761C106.539 45.2215 106.617 44.517 106.522 43.825C106.428 43.133 106.163 42.4749 105.75 41.909C105.878 42.5323 105.881 43.1747 105.757 43.7988C105.633 44.4229 105.386 45.0164 105.029 45.5449C104.308 46.5976 103.392 47.5047 102.33 48.2178C100.005 50.0041 97.1777 51.0272 94.2406 51.145C91.1382 51.145 88.0358 50.1051 85.0265 50.8985C84.192 51.1512 83.3713 51.4469 82.5678 51.7843C81.1712 52.3146 79.7236 52.7018 78.2477 52.9398C76.8361 53.1709 75.4013 53.063 74.0052 53.2633C71.6954 53.5979 69.3439 53.0471 67.4281 51.7227C66.2022 50.7717 65.2084 49.558 64.5208 48.1721C63.8332 46.7863 63.4695 45.2642 63.457 43.7193C62.9398 44.3913 62.6155 45.1898 62.5185 46.0302C61.8369 45.2153 61.3609 44.2506 61.1303 43.2163C60.8996 42.182 60.9208 41.1079 61.1923 40.0834C61.6189 38.4889 62.6426 37.0638 62.7435 35.4231C62.8443 33.998 62.2548 32.6269 62.0997 31.2095C61.9647 29.5503 62.4081 27.8955 63.3556 26.5225C64.3032 25.1494 65.6972 24.1417 67.304 23.6682C67.1163 22.7982 67.1054 21.8996 67.2719 21.0253C67.4384 20.151 67.7789 19.3185 68.2735 18.5765Z" fill="#263238"/>
<path d="M68.312 36.4167C70.2665 35.6002 71.9651 36.2781 73.0975 38.304C74.0747 40.068 75.9982 39.367 75.4243 36.5939C79.7288 32.234 74.4625 29.7228 77.9992 25.5323C80.202 22.921 85.1115 23.4371 87.1203 24.9623C87.6224 24.0153 88.4316 23.2643 89.4169 22.8309C90.4022 22.3975 91.506 22.3071 92.5495 22.5744C94.6281 23.2214 95.9699 24.3923 97.0557 27.1962C98.1804 30.1079 97.1333 30.7011 97.7072 32.7655C98.3417 34.1698 98.7625 35.6599 98.956 37.187C99.4523 46.9314 97.4978 49.458 95.3804 51.1372C93.9301 52.285 92.0531 52.9321 88.8189 53.0707L89.1214 57.3151C91.8151 60.5577 93.5114 64.5023 94.0076 68.6771C84.7004 66.3045 79.8142 63.1694 74.3462 59.0791L73.4155 44.9517C72.9966 46.0763 70.7551 47.3705 68.3973 45.5834C65.419 43.3495 64.8606 37.8649 68.312 36.4167Z" fill="#FFBDA7"/>
<path d="M96.094 31.6176L92.9062 30.4467C92.9714 30.2362 93.0793 30.0412 93.2233 29.8738C93.3673 29.7063 93.5444 29.57 93.7436 29.4733C93.9428 29.3765 94.1599 29.3214 94.3814 29.3113C94.6029 29.3012 94.8241 29.3363 95.0314 29.4145C95.457 29.5792 95.8035 29.8985 96.0008 30.3076C96.1982 30.7167 96.2314 31.185 96.094 31.6176Z" fill="#263238"/>
<path d="M83.6301 30.8242L80.7061 32.5651C80.5802 32.381 80.4939 32.1731 80.4527 31.9543C80.4114 31.7355 80.416 31.5107 80.4662 31.2938C80.5165 31.0768 80.6112 30.8726 80.7446 30.6937C80.878 30.5148 81.0471 30.3652 81.2413 30.2542C81.6376 30.029 82.1056 29.9626 82.5496 30.0685C82.9936 30.1745 83.3801 30.4448 83.6301 30.8242Z" fill="#263238"/>
<path d="M85.3599 42.4324L90.1143 43.896C90.0097 44.2242 89.8374 44.5272 89.6085 44.7857C89.3796 45.0442 89.0989 45.2525 88.7845 45.3974C88.4701 45.5424 88.1287 45.6207 87.7821 45.6274C87.4356 45.6341 87.0914 45.5691 86.7715 45.4366C86.4774 45.3351 86.2069 45.1762 85.9758 44.9691C85.7448 44.762 85.5579 44.5109 85.4263 44.2308C85.2947 43.9507 85.221 43.6472 85.2096 43.3383C85.1982 43.0294 85.2493 42.7213 85.3599 42.4324Z" fill="#B16668"/>
<path d="M88.1443 45.5677C88.0655 44.9293 87.7502 44.3429 87.2598 43.9228C86.7695 43.5027 86.1392 43.279 85.4918 43.2953C85.4118 43.2873 85.3313 43.2873 85.2513 43.2953C85.2426 43.7679 85.3894 44.2305 85.6693 44.6128C85.9493 44.9951 86.3471 45.2763 86.8025 45.4136C87.2306 45.5724 87.6911 45.6252 88.1443 45.5677Z" fill="#F28F8F"/>
<path d="M88.2607 32.4338L89.3 41.146L94.101 39.3512L88.2607 32.4338Z" fill="#F0997A"/>
<path d="M83.2504 36.4629C84.0343 36.4629 84.6697 35.8317 84.6697 35.0532C84.6697 34.2747 84.0343 33.6436 83.2504 33.6436C82.4665 33.6436 81.8311 34.2747 81.8311 35.0532C81.8311 35.8317 82.4665 36.4629 83.2504 36.4629Z" fill="#263238"/>
<path d="M94.311 35.8464C95.0948 35.8464 95.7303 35.2153 95.7303 34.4368C95.7303 33.6582 95.0948 33.0271 94.311 33.0271C93.5271 33.0271 92.8916 33.6582 92.8916 34.4368C92.8916 35.2153 93.5271 35.8464 94.311 35.8464Z" fill="#263238"/>
<path d="M88.8197 53.0629C85.663 52.9781 80.2881 52.9781 77.6045 49.5503C77.6045 49.5503 78.0156 51.6301 81.2731 53.1553C83.5999 54.226 88.9127 54.5342 88.9127 54.5342L88.8197 53.0629Z" fill="#F0997A"/>
<path d="M135.177 100.845C134.898 101.384 134.239 101.615 134.014 102.123C133.955 102.403 133.955 102.691 134.014 102.971C134.032 103.362 133.966 103.752 133.819 104.115C133.671 104.478 133.447 104.805 133.161 105.074C132.965 105.219 132.791 105.39 132.641 105.582C132.524 105.804 132.446 106.043 132.408 106.291C132.098 107.373 131.469 108.339 130.601 109.064C130.237 109.372 129.826 109.68 129.453 109.957C128.451 110.685 127.342 111.254 126.165 111.644C123.348 112.387 120.447 112.77 117.532 112.784C114.43 112.784 111.584 112.014 106.721 112.291C99.6161 112.669 84.8254 112.954 79.9779 112.862C75.1304 112.769 73.044 112.369 70.0735 106.36C67.6924 101.561 66.9323 100.098 62.1391 89.244C55.8412 74.9317 55.8568 66.5739 64.4659 62.6531C69.1195 64.0165 72.2995 69.5858 74.6573 75.5403C77.4107 82.4114 83.7706 97.4169 83.7706 97.4169C83.7706 97.4169 105.681 99.6662 109.489 99.489C113.065 99.3119 116.33 97.7867 119.658 96.6389C120.65 96.2923 121.597 95.8686 122.574 95.522L124.032 98.6032C123.773 98.9712 123.465 99.3029 123.117 99.5892C122.682 99.9589 121.659 100.737 122.341 101.307C123.024 101.877 124.179 101.577 125.273 101.245C125.979 101.03 126.622 100.768 127.034 100.637C128.714 99.995 130.441 99.48 132.199 99.0962C132.634 98.9801 133.087 98.951 133.533 99.0105C133.979 99.07 134.409 99.217 134.797 99.4428C134.919 99.5059 135.027 99.5934 135.113 99.6998C135.199 99.8062 135.262 99.9291 135.297 100.061C135.333 100.193 135.341 100.33 135.32 100.465C135.299 100.6 135.251 100.729 135.177 100.845Z" fill="#FFBDA7"/>
<path d="M124.016 98.6033C123.73 99.1131 123.367 99.5757 122.938 99.9744C122.542 100.352 122.162 100.899 122.504 101.037C123.279 101.546 124.59 101.037 125.482 100.768C127.677 100.067 129.887 99.2272 132.206 99.1194C130.004 99.8204 127.917 100.776 125.714 101.5C124.861 101.839 123.94 101.981 123.023 101.916C122.248 101.854 121.472 101.099 122.023 100.336C122.573 99.5739 123.434 99.3042 124.016 98.6033Z" fill="#F0997A"/>
<path d="M83.7549 97.4171C90.2389 97.7561 97.0099 98.38 103.471 98.8268C105.115 98.95 106.751 99.081 108.388 99.1349C111.661 99.2736 114.802 98.1335 117.866 97.0782L122.558 95.5376C117.982 97.3555 113.429 99.9206 108.372 99.8513C100.13 99.4655 91.9135 98.6582 83.7549 97.4326V97.4171Z" fill="#F0997A"/>
<path d="M195.131 236.18C188.639 232.667 180.868 231.997 173.577 233.183C166.287 234.369 159.399 237.297 152.83 240.647C150.286 241.949 147.401 243.351 144.694 242.473C141.987 241.595 140.312 238.383 140.568 235.471C140.824 232.559 142.53 229.956 144.562 227.845C152.016 220.103 164.27 217.269 174.508 220.643C183.536 223.608 190.183 229.478 195.131 236.18Z" fill="url(#paint11_linear_2409_5724)"/>
<path opacity="0.6" d="M195.131 236.18C188.639 232.667 180.868 231.997 173.577 233.183C166.287 234.369 159.399 237.297 152.83 240.647C150.286 241.949 147.401 243.351 144.694 242.473C141.987 241.595 140.312 238.383 140.568 235.471C140.824 232.559 142.53 229.956 144.562 227.845C152.016 220.103 164.27 217.269 174.508 220.643C183.536 223.608 190.183 229.478 195.131 236.18Z" fill="white"/>
<path d="M152.76 214.65C154.167 214.373 155.602 214.272 157.034 214.349C157.685 214.388 158.306 214.526 158.957 214.619C159.651 214.711 160.335 214.858 161.005 215.058C160.761 214.686 160.469 214.346 160.136 214.049C159.196 213.097 158.113 212.297 156.925 211.676C153.139 209.656 148.971 208.439 144.686 208.102C141.848 207.883 138.992 208.075 136.209 208.672C132.54 209.442 128.779 211.168 126.902 214.426C126.041 215.967 125.676 217.877 126.498 219.418C126.844 220.002 127.31 220.506 127.866 220.898C128.422 221.29 129.056 221.56 129.725 221.69C131.063 221.942 132.439 221.916 133.766 221.613C137.085 220.974 140.188 219.549 143.251 218.131C146.315 216.714 149.441 215.289 152.76 214.65Z" fill="url(#paint12_linear_2409_5724)"/>
<path opacity="0.35" d="M152.76 214.65C154.167 214.373 155.602 214.272 157.034 214.349C157.685 214.388 158.306 214.526 158.957 214.619C159.651 214.711 160.335 214.858 161.005 215.058C160.761 214.686 160.469 214.346 160.136 214.049C159.196 213.097 158.113 212.297 156.925 211.676C153.139 209.656 148.971 208.439 144.686 208.102C141.848 207.883 138.992 208.075 136.209 208.672C132.54 209.442 128.779 211.168 126.902 214.426C126.041 215.967 125.676 217.877 126.498 219.418C126.844 220.002 127.31 220.506 127.866 220.898C128.422 221.29 129.056 221.56 129.725 221.69C131.063 221.942 132.439 221.916 133.766 221.613C137.085 220.974 140.188 219.549 143.251 218.131C146.315 216.714 149.441 215.289 152.76 214.65Z" fill="white"/>
<path d="M150.472 201.454C156.242 206.777 162.812 210.012 170.04 212.778C165.891 208.402 163.215 203.057 161.105 197.48C158.996 191.903 158.36 185.925 157.321 180.048C156.739 176.728 155.653 173.384 153.388 170.881C151.123 168.377 147.486 166.891 144.252 167.892C141.421 168.778 139.389 171.412 138.629 174.263C137.992 177.155 138.104 180.16 138.954 182.998C140.8 190.177 145.012 196.409 150.472 201.454Z" fill="url(#paint13_linear_2409_5724)"/>
<g opacity="0.2">
<path d="M150.472 201.454C156.242 206.777 162.812 210.012 170.04 212.777C165.891 208.402 163.215 203.056 161.105 197.479C158.996 191.902 158.36 185.924 157.321 180.047C156.739 176.727 155.653 173.384 153.388 170.88C151.123 168.377 147.486 166.89 144.252 167.892C141.421 168.778 139.389 171.412 138.629 174.262C137.992 177.154 138.104 180.16 138.954 182.997C140.8 190.177 145.012 196.408 150.472 201.454Z" fill="white"/>
</g>
<path d="M143.755 165.936C142.212 166.524 140.825 167.454 139.698 168.655C138.572 169.857 137.736 171.298 137.256 172.868C137.093 173.431 136.853 174.116 136.271 174.201C135.689 174.286 135.185 173.508 135.092 172.845C134.394 167.676 139.97 166.013 143.755 165.936Z" fill="url(#paint14_linear_2409_5724)"/>
<path d="M223.471 210.575C216.553 215.589 209.782 222.561 207.393 230.98C204.997 217.307 209.371 202.194 217.034 190.824C224.418 179.863 238.13 169.726 252.068 175.364C255.62 176.797 258.614 179.986 258.963 183.838C259.273 187.196 257.513 190.47 255.085 192.796C252.657 195.122 249.539 196.648 246.484 198.111C238.58 201.847 230.537 205.445 223.471 210.575Z" fill="url(#paint15_linear_2409_5724)"/>
<path opacity="0.35" d="M223.471 210.575C216.553 215.589 209.782 222.561 207.393 230.98C204.997 217.307 209.371 202.194 217.034 190.824C224.418 179.863 238.13 169.726 252.068 175.364C255.62 176.797 258.614 179.986 258.963 183.838C259.273 187.196 257.513 190.47 255.085 192.796C252.657 195.122 249.539 196.648 246.484 198.111C238.58 201.847 230.537 205.445 223.471 210.575Z" fill="white"/>
<path d="M197.062 160.312C197.411 166.105 200.211 173.03 201.755 177.521C204.082 184.261 206.253 191.525 204.4 198.411C209.301 192.133 213.947 184.962 216.119 177.259C218.391 169.163 218.136 159.935 211.915 153.526C207.859 149.351 199.436 149.043 197.497 155.529C197.078 157.087 196.931 158.705 197.062 160.312Z" fill="url(#paint16_linear_2409_5724)"/>
<path opacity="0.6" d="M197.062 160.312C197.411 166.105 200.211 173.03 201.755 177.521C204.082 184.261 206.253 191.525 204.4 198.411C209.301 192.133 213.947 184.962 216.119 177.259C218.391 169.163 218.136 159.935 211.915 153.526C207.859 149.351 199.436 149.043 197.497 155.529C197.078 157.087 196.931 158.705 197.062 160.312Z" fill="white"/>
<path d="M248.268 167.222C246.187 166.818 244.033 167.019 242.063 167.8C239.846 168.721 238 170.346 236.812 172.421C238.899 171.235 242.172 170.211 247.609 170.981C252.821 171.713 255.923 174.155 257.025 175.487C256.932 172.907 254.861 170.172 252.635 168.847C251.287 168.054 249.809 167.503 248.268 167.222Z" fill="url(#paint17_linear_2409_5724)"/>
<path d="M288.684 182.776L289.971 178.231C289.405 175.627 300.108 181.767 300.675 184.393L297.223 193.637C297.103 193.915 296.9 194.149 296.641 194.307C295.866 194.769 290.778 197.65 290.53 197.797C290.337 197.913 290.12 197.985 289.895 198.007C289.67 198.029 289.443 198 289.231 197.922C289.019 197.844 288.828 197.72 288.671 197.558C288.515 197.396 288.397 197.201 288.327 196.988L283.86 181.767C283.58 180.465 286.047 181.289 288.684 182.776Z" fill="#37474F"/>
<path d="M276.461 119.487L317.141 142.804C317.542 143.063 317.875 143.412 318.114 143.823C318.352 144.234 318.489 144.695 318.514 145.169V193.059C318.483 193.525 318.341 193.977 318.102 194.378C317.862 194.78 317.53 195.12 317.133 195.37L312.309 198.182C311.88 198.393 311.408 198.504 310.929 198.504C310.45 198.504 309.977 198.393 309.548 198.182L268.852 174.865C268.452 174.606 268.118 174.257 267.88 173.846C267.641 173.435 267.504 172.974 267.479 172.5V124.556C267.506 124.083 267.645 123.623 267.885 123.213C268.125 122.803 268.459 122.456 268.86 122.199L273.7 119.472C274.13 119.263 274.603 119.155 275.082 119.158C275.561 119.16 276.033 119.273 276.461 119.487Z" fill="#37474F"/>
<path d="M268.852 123.763L309.548 147.08C309.948 147.339 310.282 147.688 310.522 148.099C310.762 148.51 310.901 148.971 310.928 149.445V197.342C310.928 198.213 310.308 198.567 309.548 198.113L293.974 189.192L291.112 197.073C290.991 197.349 290.788 197.581 290.531 197.74C290.274 197.899 289.974 197.976 289.671 197.961C289.369 197.946 289.078 197.839 288.838 197.656C288.598 197.472 288.419 197.221 288.327 196.934L284.566 183.793L268.891 174.811C268.49 174.552 268.157 174.203 267.918 173.792C267.68 173.381 267.542 172.92 267.518 172.446V124.556C267.502 123.686 268.092 123.331 268.852 123.763Z" fill="#FAFAFA"/>
<path d="M268.278 124.232C268.377 124.24 268.473 124.272 268.557 124.325L309.253 147.642C309.554 147.839 309.804 148.104 309.984 148.414C310.165 148.724 310.27 149.072 310.292 149.429V197.327C310.292 197.535 310.238 197.619 310.199 197.635C310.099 197.627 310.002 197.592 309.92 197.535L294.307 188.63L293.617 188.229L293.345 189L290.491 196.857C290.428 197.014 290.317 197.148 290.173 197.24C290.03 197.332 289.861 197.377 289.691 197.369C289.52 197.362 289.356 197.302 289.222 197.197C289.087 197.093 288.989 196.95 288.94 196.787L285.139 183.631L285.062 183.369L284.829 183.238L269.154 174.256C268.856 174.056 268.607 173.791 268.427 173.481C268.247 173.172 268.14 172.826 268.115 172.469V124.556C268.115 124.348 268.169 124.256 268.185 124.248M268.185 123.578C267.735 123.578 267.409 123.94 267.409 124.556V172.446C267.434 172.92 267.571 173.381 267.81 173.792C268.048 174.203 268.381 174.552 268.782 174.811L284.565 183.792L288.366 196.949C288.46 197.25 288.65 197.513 288.907 197.698C289.165 197.883 289.475 197.979 289.793 197.974C290.082 197.977 290.366 197.895 290.608 197.737C290.85 197.579 291.039 197.353 291.15 197.088L294.012 189.208L309.586 198.128C309.772 198.239 309.983 198.302 310.199 198.313C310.657 198.313 310.975 197.958 310.975 197.342V149.444C310.947 148.97 310.808 148.509 310.568 148.098C310.329 147.688 309.995 147.339 309.594 147.08L268.898 123.763C268.714 123.649 268.503 123.586 268.286 123.578H268.185Z" fill="#37474F"/>
<path d="M267.502 124.309C267.611 123.616 268.177 123.37 268.867 123.762L309.555 147.08C309.96 147.334 310.294 147.687 310.524 148.104L318.11 143.775C317.876 143.372 317.542 143.036 317.14 142.797L276.445 119.48C276.016 119.268 275.543 119.158 275.064 119.158C274.585 119.158 274.112 119.268 273.683 119.48L268.844 122.206C268.485 122.445 268.181 122.755 267.949 123.117C267.718 123.479 267.566 123.885 267.502 124.309Z" fill="#455A64"/>
<path d="M277.445 139.014V150.692L278.516 151.285V147.603C278.516 145.616 280.144 144.938 282.145 146.062L287.14 148.92V169.988C287.14 172.299 285.721 173.339 283.968 172.338L280.866 170.543V171.814L297.836 181.543V180.31L294.733 178.515C292.981 177.514 291.561 174.833 291.561 172.53V151.462L296.556 154.328C298.565 155.476 300.186 158.018 300.186 160.005V163.687L301.256 164.319V152.641L277.445 139.014Z" fill="#455A64"/>
<defs>
<linearGradient id="paint0_linear_2409_5724" x1="121.917" y1="270.959" x2="121.917" y2="325.249" gradientUnits="userSpaceOnUse">
<stop offset="0.262495" stop-color="#DC143B"/>
<stop offset="1" stop-color="#FF6F45"/>
</linearGradient>
<linearGradient id="paint1_linear_2409_5724" x1="198.142" y1="161.253" x2="198.142" y2="303.929" gradientUnits="userSpaceOnUse">
<stop offset="0.262495" stop-color="#DC143B"/>
<stop offset="1" stop-color="#FF6F45"/>
</linearGradient>
<linearGradient id="paint2_linear_2409_5724" x1="219.664" y1="165.811" x2="219.664" y2="230.395" gradientUnits="userSpaceOnUse">
<stop offset="0.262495" stop-color="#DC143B"/>
<stop offset="1" stop-color="#FF6F45"/>
</linearGradient>
<linearGradient id="paint3_linear_2409_5724" x1="229.221" y1="114.365" x2="229.221" y2="135.869" gradientUnits="userSpaceOnUse">
<stop offset="0.262495" stop-color="#DC143B"/>
<stop offset="1" stop-color="#FF6F45"/>
</linearGradient>
<linearGradient id="paint4_linear_2409_5724" x1="234.597" y1="25.262" x2="234.597" y2="130.309" gradientUnits="userSpaceOnUse">
<stop offset="0.262495" stop-color="#DC143B"/>
<stop offset="1" stop-color="#FF6F45"/>
</linearGradient>
<linearGradient id="paint5_linear_2409_5724" x1="229.547" y1="114.506" x2="229.547" y2="128.98" gradientUnits="userSpaceOnUse">
<stop offset="0.262495" stop-color="#DC143B"/>
<stop offset="1" stop-color="#FF6F45"/>
</linearGradient>
<linearGradient id="paint6_linear_2409_5724" x1="229.222" y1="121.416" x2="229.222" y2="128.971" gradientUnits="userSpaceOnUse">
<stop offset="0.262495" stop-color="#DC143B"/>
<stop offset="1" stop-color="#FF6F45"/>
</linearGradient>
<linearGradient id="paint7_linear_2409_5724" x1="229.222" y1="121.416" x2="229.222" y2="128.971" gradientUnits="userSpaceOnUse">
<stop offset="0.262495" stop-color="#DC143B"/>
<stop offset="1" stop-color="#FF6F45"/>
</linearGradient>
<linearGradient id="paint8_linear_2409_5724" x1="121.847" y1="56.2288" x2="121.847" y2="74.4038" gradientUnits="userSpaceOnUse">
<stop offset="0.262495" stop-color="#DC143B"/>
<stop offset="1" stop-color="#FF6F45"/>
</linearGradient>
<linearGradient id="paint9_linear_2409_5724" x1="88.0771" y1="55.8591" x2="88.0771" y2="108.562" gradientUnits="userSpaceOnUse">
<stop offset="0.262495" stop-color="#DC143B"/>
<stop offset="1" stop-color="#FF6F45"/>
</linearGradient>
<linearGradient id="paint10_linear_2409_5724" x1="86.2099" y1="86.1089" x2="86.2099" y2="93.6536" gradientUnits="userSpaceOnUse">
<stop offset="0.262495" stop-color="#DC143B"/>
<stop offset="1" stop-color="#FF6F45"/>
</linearGradient>
<linearGradient id="paint11_linear_2409_5724" x1="167.837" y1="219.24" x2="167.837" y2="242.747" gradientUnits="userSpaceOnUse">
<stop offset="0.262495" stop-color="#DC143B"/>
<stop offset="1" stop-color="#FF6F45"/>
</linearGradient>
<linearGradient id="paint12_linear_2409_5724" x1="143.521" y1="208.014" x2="143.521" y2="221.861" gradientUnits="userSpaceOnUse">
<stop offset="0.262495" stop-color="#DC143B"/>
<stop offset="1" stop-color="#FF6F45"/>
</linearGradient>
<linearGradient id="paint13_linear_2409_5724" x1="154.131" y1="167.577" x2="154.131" y2="212.778" gradientUnits="userSpaceOnUse">
<stop offset="0.262495" stop-color="#DC143B"/>
<stop offset="1" stop-color="#FF6F45"/>
</linearGradient>
<linearGradient id="paint14_linear_2409_5724" x1="139.394" y1="165.936" x2="139.394" y2="174.207" gradientUnits="userSpaceOnUse">
<stop offset="0.262495" stop-color="#DC143B"/>
<stop offset="1" stop-color="#FF6F45"/>
</linearGradient>
<linearGradient id="paint15_linear_2409_5724" x1="232.867" y1="173.754" x2="232.867" y2="230.98" gradientUnits="userSpaceOnUse">
<stop offset="0.262495" stop-color="#DC143B"/>
<stop offset="1" stop-color="#FF6F45"/>
</linearGradient>
<linearGradient id="paint16_linear_2409_5724" x1="207.223" y1="150.504" x2="207.223" y2="198.411" gradientUnits="userSpaceOnUse">
<stop offset="0.262495" stop-color="#DC143B"/>
<stop offset="1" stop-color="#FF6F45"/>
</linearGradient>
<linearGradient id="paint17_linear_2409_5724" x1="246.919" y1="167.019" x2="246.919" y2="175.487" gradientUnits="userSpaceOnUse">
<stop offset="0.262495" stop-color="#DC143B"/>
<stop offset="1" stop-color="#FF6F45"/>
</linearGradient>
</defs>
</svg>
