<svg width="42" height="42" viewBox="0 0 42 42" fill="none" xmlns="http://www.w3.org/2000/svg">
<path d="M40.6 15.12H36.4C36.4 14.6745 36.2525 14.2472 35.99 13.9321C35.7274 13.6171 35.3713 13.4401 35 13.4401H22.4C22.0287 13.4401 21.6726 13.6171 21.41 13.9321C21.1475 14.2472 21 14.6745 21 15.12H9.8V5.88007C9.8 5.21172 10.0212 4.57075 10.4151 4.09816C10.8089 3.62557 11.343 3.36007 11.9 3.36007C12.3922 3.35766 12.8705 3.55546 13.257 3.9212C13.6435 4.28694 13.9152 4.79905 14.028 5.37397C14.1049 5.80692 14.3211 6.18594 14.6296 6.42867C14.9381 6.67139 15.314 6.7582 15.6755 6.67021C16.037 6.58222 16.355 6.32656 16.5603 5.95879C16.7657 5.59102 16.8417 5.14086 16.772 4.70617C16.5343 3.36933 15.9201 2.17156 15.0327 1.31444C14.1454 0.457311 13.0391 -0.00684782 11.9 7.63619e-05C10.6004 7.63619e-05 9.35411 0.619574 8.43518 1.72229C7.51625 2.825 7 4.3206 7 5.88007V15.12H1.4C1.0287 15.12 0.672601 15.297 0.41005 15.6121C0.1475 15.9272 0 16.3545 0 16.8V25.2C0.00277939 28.3179 1.03617 31.3072 2.87342 33.5119C4.71068 35.7166 7.20173 36.9567 9.8 36.96V40.32C9.8 40.7656 9.9475 41.1929 10.2101 41.5079C10.4726 41.823 10.8287 42 11.2 42C11.5713 42 11.9274 41.823 12.1899 41.5079C12.4525 41.1929 12.6 40.7656 12.6 40.32V36.96H29.4V40.32C29.4 40.7656 29.5475 41.1929 29.81 41.5079C30.0726 41.823 30.4287 42 30.8 42C31.1713 42 31.5274 41.823 31.79 41.5079C32.0525 41.1929 32.2 40.7656 32.2 40.32V36.96C34.7983 36.9567 37.2893 35.7166 39.1266 33.5119C40.9638 31.3072 41.9972 28.3179 42 25.2V16.8C42 16.3545 41.8525 15.9272 41.59 15.6121C41.3274 15.297 40.9713 15.12 40.6 15.12ZM33.6 16.8V25.2H23.8V16.8H33.6Z" fill="#574A4D"/>
</svg>
