<svg width="30" height="30" viewBox="0 0 30 30" fill="none" xmlns="http://www.w3.org/2000/svg">
<path d="M14.9079 0C12.9746 0 11.2147 0.691927 10.3028 1.77347L9.90151 2.24973L9.20846 1.98785C8.56101 1.74073 7.82236 1.60979 7.08371 1.60979C4.50301 1.60979 2.40562 3.12266 2.40562 5.02514C2.40562 6.72607 4.10177 8.14459 6.37242 8.40133L7.06547 8.47836V11.9059C12.3454 11.1934 17.6436 11.1613 22.9327 11.9059V7.43212L23.3704 7.26524C24.8021 6.73249 25.7505 5.58998 25.7505 4.30304C25.7505 2.45448 23.8628 1.02184 21.6104 1.02184C21.0177 1.02184 20.4249 1.12518 19.8869 1.3248L19.3215 1.5302L18.9021 1.20349C17.9172 0.44802 16.4581 0 14.9079 0ZM14.9991 12.5028C12.6646 12.5028 10.3392 12.6569 8.00474 12.9521C7.92267 13.3373 7.88619 13.7352 7.88619 14.146C7.88619 16.0074 8.72515 17.6891 10.0383 18.8765C11.3514 20.064 13.0932 20.7572 14.9991 20.7572C16.905 20.7572 18.6467 20.064 19.9599 18.8765C21.273 17.6891 22.112 16.0074 22.112 14.146C22.112 13.7352 22.0664 13.3308 21.9934 12.9457C19.6589 12.644 17.3336 12.4964 14.9991 12.5028ZM10.6858 20.9048L2.55152 22.8111L0 30H20.9812L19.6589 23.4723L21.2821 23.3054L22.6409 30H30L27.4467 22.8111L19.3124 20.9048C18.054 21.5403 16.5767 21.9125 14.9991 21.9125C13.4215 21.9125 11.9442 21.5403 10.6858 20.9048ZM17.0053 24.2874C17.2471 24.2874 17.4791 24.355 17.6501 24.4754C17.8211 24.5958 17.9172 24.7591 17.9172 24.9293C17.9172 25.0995 17.8211 25.2628 17.6501 25.3832C17.4791 25.5035 17.2471 25.5711 17.0053 25.5711C16.7634 25.5711 16.5315 25.5035 16.3605 25.3832C16.1895 25.2628 16.0934 25.0995 16.0934 24.9293C16.0934 24.7591 16.1895 24.5958 16.3605 24.4754C16.5315 24.355 16.7634 24.2874 17.0053 24.2874ZM17.6436 27.24C17.8855 27.24 18.1174 27.3076 18.2884 27.428C18.4595 27.5484 18.5555 27.7116 18.5555 27.8819C18.5555 28.0521 18.4595 28.2153 18.2884 28.3357C18.1174 28.4561 17.8855 28.5237 17.6436 28.5237C17.4018 28.5237 17.1698 28.4561 16.9988 28.3357C16.8278 28.2153 16.7317 28.0521 16.7317 27.8819C16.7317 27.7116 16.8278 27.5484 16.9988 27.428C17.1698 27.3076 17.4018 27.24 17.6436 27.24Z" fill="#574A4D"/>
</svg>
