<svg width="40" height="37" viewBox="0 0 40 37" xmlns="http://www.w3.org/2000/svg">
<path d="M20.0007 3.91016C29.2057 3.91016 36.6673 10.6257 36.6673 18.9102C36.6695 21.239 36.0681 23.5362 34.9112 25.6193C33.7542 27.7024 32.0734 29.514 30.0023 30.9102H33.334C33.776 30.9102 34.1999 31.0682 34.5125 31.3495C34.8251 31.6308 35.0007 32.0123 35.0007 32.4102C35.0007 32.808 34.8251 33.1895 34.5125 33.4708C34.1999 33.7521 33.776 33.9102 33.334 33.9102H20.0007C10.7957 33.9102 3.33398 27.1947 3.33398 18.9102C3.33398 10.6257 10.7957 3.91016 20.0007 3.91016ZM20.0007 21.9102C19.1166 21.9102 18.2688 22.2262 17.6436 22.7888C17.0185 23.3514 16.6673 24.1145 16.6673 24.9102C16.6673 25.7058 17.0185 26.4689 17.6436 27.0315C18.2688 27.5941 19.1166 27.9102 20.0007 27.9102C20.8847 27.9102 21.7326 27.5941 22.3577 27.0315C22.9828 26.4689 23.334 25.7058 23.334 24.9102C23.334 24.1145 22.9828 23.3514 22.3577 22.7888C21.7326 22.2262 20.8847 21.9102 20.0007 21.9102ZM13.334 15.9102C12.4499 15.9102 11.6021 16.2262 10.977 16.7888C10.3518 17.3514 10.0007 18.1145 10.0007 18.9102C10.0007 19.7058 10.3518 20.4689 10.977 21.0315C11.6021 21.5941 12.4499 21.9102 13.334 21.9102C14.218 21.9102 15.0659 21.5941 15.691 21.0315C16.3161 20.4689 16.6673 19.7058 16.6673 18.9102C16.6673 18.1145 16.3161 17.3514 15.691 16.7888C15.0659 16.2262 14.218 15.9102 13.334 15.9102ZM26.6673 15.9102C25.7833 15.9102 24.9354 16.2262 24.3103 16.7888C23.6852 17.3514 23.334 18.1145 23.334 18.9102C23.334 19.7058 23.6852 20.4689 24.3103 21.0315C24.9354 21.5941 25.7833 21.9102 26.6673 21.9102C27.5514 21.9102 28.3992 21.5941 29.0243 21.0315C29.6495 20.4689 30.0007 19.7058 30.0007 18.9102C30.0007 18.1145 29.6495 17.3514 29.0243 16.7888C28.3992 16.2262 27.5514 15.9102 26.6673 15.9102ZM20.0007 9.91016C19.1166 9.91016 18.2688 10.2262 17.6436 10.7888C17.0185 11.3514 16.6673 12.1145 16.6673 12.9102C16.6673 13.7058 17.0185 14.4689 17.6436 15.0315C18.2688 15.5941 19.1166 15.9102 20.0007 15.9102C20.8847 15.9102 21.7326 15.5941 22.3577 15.0315C22.9828 14.4689 23.334 13.7058 23.334 12.9102C23.334 12.1145 22.9828 11.3514 22.3577 10.7888C21.7326 10.2262 20.8847 9.91016 20.0007 9.91016Z" fill="currentColor"/>
</svg>