<svg width="31" height="30" viewBox="0 0 31 30" fill="none" xmlns="http://www.w3.org/2000/svg">
<path d="M4.25 1.12461C4.25 0.826344 4.13148 0.540295 3.9205 0.32939C3.70952 0.118485 3.42337 0 3.125 0C2.82664 0 2.54049 0.118485 2.32951 0.32939C2.11853 0.540295 2 0.826344 2 1.12461C2 3.02895 3.392 3.99911 4.259 4.6034L4.355 4.66938C5.375 5.38313 5.75 5.72651 5.75 6.37278C5.75 6.67105 5.86853 6.9571 6.07951 7.168C6.29049 7.37891 6.57663 7.49739 6.875 7.49739C7.17337 7.49739 7.45952 7.37891 7.6705 7.168C7.88148 6.9571 8 6.67105 8 6.37278C8 4.46845 6.608 3.49828 5.741 2.89399L5.645 2.82802C4.625 2.11426 4.25 1.76938 4.25 1.12461ZM3.2315 8.99687C2.50707 8.99687 1.8123 9.28455 1.30004 9.79663C0.787787 10.3087 0.500005 11.0032 0.500005 11.7274V17.9937C0.497586 20.7794 1.4651 23.4791 3.23651 25.6296C5.00793 27.78 7.47281 29.2471 10.2082 29.7792C12.9436 30.3112 15.7789 29.875 18.2277 28.5453C20.6764 27.2157 22.5859 25.0756 23.6285 22.4922H25.625C26.9179 22.4922 28.1579 21.9787 29.0721 21.0648C29.9864 20.1509 30.5 18.9114 30.5 17.6189C30.5 16.3264 29.9864 15.0868 29.0721 14.1729C28.1579 13.259 26.9179 12.7456 25.625 12.7456H24.5V11.7274C24.5 11.0032 24.2122 10.3087 23.7 9.79663C23.1877 9.28455 22.4929 8.99687 21.7685 8.99687H3.2315ZM25.625 20.243H24.29C24.4303 19.5014 24.5006 18.7484 24.5 17.9937V14.9948H25.625C25.9697 14.9948 26.3111 15.0627 26.6295 15.1945C26.948 15.3264 27.2374 15.5197 27.4812 15.7634C27.7249 16.007 27.9183 16.2963 28.0502 16.6147C28.1821 16.933 28.25 17.2743 28.25 17.6189C28.25 17.9635 28.1821 18.3047 28.0502 18.6231C27.9183 18.9414 27.7249 19.2307 27.4812 19.4744C27.2374 19.7181 26.948 19.9113 26.6295 20.0432C26.3111 20.1751 25.9697 20.243 25.625 20.243ZM9.125 0C9.42337 0 9.70952 0.118485 9.9205 0.32939C10.1315 0.540295 10.25 0.826344 10.25 1.12461C10.25 1.77088 10.625 2.11426 11.645 2.82802L11.741 2.89399C12.608 3.49828 14 4.46845 14 6.37278C14 6.67105 13.8815 6.9571 13.6705 7.168C13.4595 7.37891 13.1734 7.49739 12.875 7.49739C12.5766 7.49739 12.2905 7.37891 12.0795 7.168C11.8685 6.9571 11.75 6.67105 11.75 6.37278C11.75 5.72651 11.375 5.38313 10.355 4.66938L10.259 4.6034C9.392 3.99911 8 3.02895 8 1.12461C8 0.826344 8.11853 0.540295 8.32951 0.32939C8.54049 0.118485 8.82663 0 9.125 0ZM16.25 1.12461C16.25 0.826344 16.1315 0.540295 15.9205 0.32939C15.7095 0.118485 15.4234 0 15.125 0C14.8266 0 14.5405 0.118485 14.3295 0.32939C14.1185 0.540295 14 0.826344 14 1.12461C14 3.02895 15.392 3.99911 16.259 4.6034L16.355 4.66938C17.375 5.38313 17.75 5.72651 17.75 6.37278C17.75 6.67105 17.8685 6.9571 18.0795 7.168C18.2905 7.37891 18.5766 7.49739 18.875 7.49739C19.1734 7.49739 19.4595 7.37891 19.6705 7.168C19.8815 6.9571 20 6.67105 20 6.37278C20 4.46845 18.608 3.49828 17.741 2.89399L17.645 2.82802C16.625 2.11426 16.25 1.77088 16.25 1.12461Z" fill="#574A4D"/>
</svg>
