<svg width="40" height="37" viewBox="0 0 24 24" xmlns="http://www.w3.org/2000/svg">
<path d="M6.10041 7C5.76041 7.55 5.70041 7.97 5.70041 8.38C5.70041 9.15 6.70041 11 6.70041 12C6.70041 12.95 6.30041 13.5 6.30041 13.5H4.80041C4.80041 13.5 5.20041 12.95 5.20041 12C5.20041 11 4.20041 9.15 4.20041 8.38C4.20041 7.97 4.26041 7.55 4.60041 7H6.10041ZM11.1004 7C10.7604 7.55 10.7004 7.97 10.7004 8.38C10.7004 9.15 11.7004 11 11.7004 12C11.7004 12.95 11.3004 13.5 11.3004 13.5H12.8004C12.8004 13.5 13.2004 12.95 13.2004 12C13.2004 11 12.2004 9.15 12.2004 8.38C12.2004 7.97 12.2604 7.55 12.6004 7H11.1004ZM7.85041 7C7.51041 7.55 7.45041 7.97 7.45041 8.38C7.45041 9.15 8.45041 11.01 8.45041 12C8.45041 12.95 8.05041 13.5 8.05041 13.5H9.55041C9.55041 13.5 9.95041 12.95 9.95041 12C9.95041 11 8.95041 9.15 8.95041 8.38C8.95041 7.97 9.01041 7.55 9.35041 7H7.85041ZM18.3004 2C16.7604 2 15.4904 3.16 15.3204 4.65L14.2304 15H3.71041C3.11041 15 2.62041 15.53 2.71041 16.13C3.23041 19.46 6.09041 22 9.45041 22C12.9304 22 15.7904 19.27 16.1604 15.77L17.3104 4.9C17.3604 4.39 17.7804 4 18.3004 4C18.8504 4 19.3004 4.45 19.3004 5C19.3004 5.3 19.2004 6.25 19.2004 6.25L21.1704 6.5C21.1704 6.5 21.3004 5.44 21.3004 5C21.3004 3.35 19.9504 2 18.3004 2ZM9.45041 20C7.51041 20 5.78041 18.77 5.02041 17H13.8104C13.0904 18.78 11.3904 20 9.45041 20Z" fill="currentColor"/>
</svg>