<svg width="40" height="37" viewBox="0 0 40 37" xmlns="http://www.w3.org/2000/svg">
<path d="M12.9638 15.4144L25.4665 25.7814C26.8704 26.9447 28.3301 26.7587 29.6397 25.6721L38.9228 18.006C40.2324 16.9201 40.4392 15.7097 39.0346 14.5457L37.1444 12.9936C34.9181 14.6384 28.6663 18.3324 27.6937 17.5253C27.3751 17.2611 27.6378 17.0287 27.8246 16.8731C29.8833 15.1197 32.6343 12.3262 32.9904 9.51745L23.1268 1.33881C21.9665 0.623706 20.2441 0.888558 19.309 1.50964C17.4188 3.7291 17.4564 7.4377 12.9638 11.8766C11.7292 13.1181 11.5232 14.2199 12.9638 15.4144ZM1.92156 35.3406C4.39224 37.3581 7.49937 37.4196 9.70733 35.5889C11.4482 34.1613 13.2632 30.3282 14.5177 28.5438L19.7578 32.8728C21.255 34.1149 22.9208 34.1454 24.3246 32.982L25.5041 31.9888C26.9071 30.8248 26.8696 29.4436 25.3915 28.2015L10.5498 15.8964C9.05253 14.639 7.40594 14.6086 5.98294 15.8037L4.80429 16.7797C3.36292 17.959 3.40046 19.309 4.91609 20.5664L10.1194 24.8961C7.98568 25.9356 3.34456 27.4566 1.6229 28.8841C-0.642559 30.7467 -0.529965 33.3389 1.92156 35.3406ZM4.46731 33.1516C3.84924 32.6238 3.83087 31.7862 4.46731 31.2585C5.12211 30.7308 6.13306 30.7308 6.7695 31.2585C7.40594 31.8015 7.40594 32.6086 6.7695 33.1522C6.13306 33.6952 5.12211 33.7097 4.46731 33.1516Z" fill="currentColor"/>
</svg>