<svg width="31" height="30" viewBox="0 0 31 30" xmlns="http://www.w3.org/2000/svg">
<path d="M29.5014 7.03517C29.0575 6.02819 28.4747 5.08835 27.77 4.24304L24.035 7.97802C24.9094 8.49548 25.9394 8.68477 26.9406 8.51202C27.9419 8.33926 28.8489 7.81572 29.4993 7.03517M22.5179 6.46303L26.2529 2.72806C25.4082 2.02356 24.4691 1.44076 23.4629 0.996639C22.6818 1.64714 22.1579 2.55456 21.9851 3.55626C21.8123 4.55796 22.002 5.58845 22.52 6.46303M19.7857 4.2859C19.7857 5.67446 20.2271 6.96017 20.975 8.01016L19.25 9.73515L11.7757 2.25877C13.1188 1.28303 14.6523 0.600943 16.2764 0.256859C17.9004 -0.0872251 19.5787 -0.0855946 21.2021 0.261645C20.2857 1.40272 19.786 2.82236 19.7857 4.2859ZM20.765 11.2501L22.49 9.52515C23.54 10.2751 24.8257 10.7144 26.2143 10.7144C27.6776 10.7147 29.0972 10.2158 30.2386 9.30015C30.4114 10.103 30.4986 10.9316 30.5 11.7858C30.5 14.3787 29.6621 16.7787 28.2414 18.7265L20.765 11.2501ZM26.8229 20.3379L19.25 12.7651L17.9536 14.0615C20.1821 16.6018 21.5495 19.7822 21.86 23.1472C23.7457 22.6265 25.4429 21.6451 26.8229 20.3379ZM7.35071 8.64015C7.87143 6.75445 8.85071 5.05732 10.1579 3.67733L17.735 11.2501L16.4386 12.5466C13.8983 10.318 10.7157 8.95061 7.35071 8.64015ZM3.71429 10.7144C2.8618 10.7144 2.04424 11.0531 1.44144 11.6559C0.838647 12.2587 0.5 13.0762 0.5 13.9287V16.0715C0.5 19.7656 1.96747 23.3084 4.57958 25.9204C7.1917 28.5325 10.7345 30 14.4286 30H16.5714C17.4239 30 18.2415 29.6614 18.8443 29.0586C19.4471 28.4558 19.7857 27.6382 19.7857 26.7857V24.6429C19.7857 20.9488 18.3182 17.4061 15.7061 14.794C13.094 12.1819 9.55123 10.7144 5.85714 10.7144H3.71429ZM7.77714 17.9915C7.87667 17.8917 7.9949 17.8126 8.12507 17.7586C8.25524 17.7045 8.39478 17.6767 8.53571 17.6767C8.67664 17.6767 8.81619 17.7045 8.94636 17.7586C9.07653 17.8126 9.19476 17.8917 9.29429 17.9915L12.5086 21.2058C12.6082 21.3054 12.6872 21.4237 12.7411 21.5538C12.795 21.684 12.8228 21.8235 12.8228 21.9643C12.8228 22.1052 12.795 22.2447 12.7411 22.3749C12.6872 22.505 12.6082 22.6233 12.5086 22.7229C12.409 22.8225 12.2907 22.9015 12.1605 22.9555C12.0304 23.0094 11.8909 23.0371 11.75 23.0371C11.6091 23.0371 11.4696 23.0094 11.3395 22.9555C11.2093 22.9015 11.091 22.8225 10.9914 22.7229L7.77714 19.5086C7.67736 19.4091 7.5982 19.2909 7.54419 19.1607C7.49017 19.0306 7.46237 18.891 7.46237 18.7501C7.46237 18.6092 7.49017 18.4696 7.54419 18.3394C7.5982 18.2093 7.67736 18.091 7.77714 17.9915Z" fill="currentColor"/>
</svg>
