<svg width="48" height="48" viewBox="0 0 48 48" fill="none" xmlns="http://www.w3.org/2000/svg">
<path d="M6 7.28571C6 6.14907 6.44777 5.05898 7.2448 4.25526C8.04183 3.45153 9.12283 3 10.25 3H26.8958C27.5005 3 28.0992 3.12009 28.6578 3.35342C29.2164 3.58674 29.7239 3.92873 30.1515 4.35986C30.579 4.79099 30.9181 5.30282 31.1495 5.86611C31.3809 6.42941 31.5 7.03315 31.5 7.64286V18.7143H35.3958C36.0005 18.7143 36.5992 18.8344 37.1578 19.0677C37.7164 19.301 38.2239 19.643 38.6515 20.0741C39.079 20.5053 39.4181 21.0171 39.6495 21.5804C39.8809 22.1437 40 22.7474 40 23.3571V41.5714C40 41.9503 39.8507 42.3137 39.5851 42.5816C39.3194 42.8495 38.9591 43 38.5833 43H32.9167V36.5714C32.9167 36.0031 32.6928 35.4581 32.2943 35.0562C31.8958 34.6543 31.3553 34.4286 30.7917 34.4286H15.2083C14.6447 34.4286 14.1042 34.6543 13.7057 35.0562C13.3072 35.4581 13.0833 36.0031 13.0833 36.5714V43H7.41667C7.04094 43 6.68061 42.8495 6.41493 42.5816C6.14926 42.3137 6 41.9503 6 41.5714V7.28571ZM30.0833 37.2857V43H24.4167V37.2857H30.0833ZM21.5833 37.2857V43H15.9167V37.2857H21.5833ZM17.3333 12.2857C17.3333 11.7174 17.1095 11.1723 16.7109 10.7705C16.3124 10.3686 15.7719 10.1429 15.2083 10.1429C14.6447 10.1429 14.1042 10.3686 13.7057 10.7705C13.3072 11.1723 13.0833 11.7174 13.0833 12.2857C13.0833 12.854 13.3072 13.3991 13.7057 13.8009C14.1042 14.2028 14.6447 14.4286 15.2083 14.4286C15.7719 14.4286 16.3124 14.2028 16.7109 13.8009C17.1095 13.3991 17.3333 12.854 17.3333 12.2857ZM17.3333 19.4286C17.3333 18.8603 17.1095 18.3152 16.7109 17.9133C16.3124 17.5115 15.7719 17.2857 15.2083 17.2857C14.6447 17.2857 14.1042 17.5115 13.7057 17.9133C13.3072 18.3152 13.0833 18.8603 13.0833 19.4286C13.0833 19.9969 13.3072 20.5419 13.7057 20.9438C14.1042 21.3457 14.6447 21.5714 15.2083 21.5714C15.7719 21.5714 16.3124 21.3457 16.7109 20.9438C17.1095 20.5419 17.3333 19.9969 17.3333 19.4286ZM15.2083 28.7143C15.7719 28.7143 16.3124 28.4885 16.7109 28.0867C17.1095 27.6848 17.3333 27.1397 17.3333 26.5714C17.3333 26.0031 17.1095 25.4581 16.7109 25.0562C16.3124 24.6543 15.7719 24.4286 15.2083 24.4286C14.6447 24.4286 14.1042 24.6543 13.7057 25.0562C13.3072 25.4581 13.0833 26.0031 13.0833 26.5714C13.0833 27.1397 13.3072 27.6848 13.7057 28.0867C14.1042 28.4885 14.6447 28.7143 15.2083 28.7143ZM24.4167 12.2857C24.4167 11.7174 24.1928 11.1723 23.7943 10.7705C23.3958 10.3686 22.8553 10.1429 22.2917 10.1429C21.7281 10.1429 21.1876 10.3686 20.7891 10.7705C20.3905 11.1723 20.1667 11.7174 20.1667 12.2857C20.1667 12.854 20.3905 13.3991 20.7891 13.8009C21.1876 14.2028 21.7281 14.4286 22.2917 14.4286C22.8553 14.4286 23.3958 14.2028 23.7943 13.8009C24.1928 13.3991 24.4167 12.854 24.4167 12.2857ZM22.2917 21.5714C22.8553 21.5714 23.3958 21.3457 23.7943 20.9438C24.1928 20.5419 24.4167 19.9969 24.4167 19.4286C24.4167 18.8603 24.1928 18.3152 23.7943 17.9133C23.3958 17.5115 22.8553 17.2857 22.2917 17.2857C21.7281 17.2857 21.1876 17.5115 20.7891 17.9133C20.3905 18.3152 20.1667 18.8603 20.1667 19.4286C20.1667 19.9969 20.3905 20.5419 20.7891 20.9438C21.1876 21.3457 21.7281 21.5714 22.2917 21.5714ZM24.4167 26.5714C24.4167 26.0031 24.1928 25.4581 23.7943 25.0562C23.3958 24.6543 22.8553 24.4286 22.2917 24.4286C21.7281 24.4286 21.1876 24.6543 20.7891 25.0562C20.3905 25.4581 20.1667 26.0031 20.1667 26.5714C20.1667 27.1397 20.3905 27.6848 20.7891 28.0867C21.1876 28.4885 21.7281 28.7143 22.2917 28.7143C22.8553 28.7143 23.3958 28.4885 23.7943 28.0867C24.1928 27.6848 24.4167 27.1397 24.4167 26.5714ZM29.375 28.7143C29.9386 28.7143 30.4791 28.4885 30.8776 28.0867C31.2761 27.6848 31.5 27.1397 31.5 26.5714C31.5 26.0031 31.2761 25.4581 30.8776 25.0562C30.4791 24.6543 29.9386 24.4286 29.375 24.4286C28.8114 24.4286 28.2709 24.6543 27.8724 25.0562C27.4739 25.4581 27.25 26.0031 27.25 26.5714C27.25 27.1397 27.4739 27.6848 27.8724 28.0867C28.2709 28.4885 28.8114 28.7143 29.375 28.7143Z" fill="#574A4D"/>
</svg>
