<svg width="40" height="37" viewBox="0 0 40 37" xmlns="http://www.w3.org/2000/svg">
<path d="M34 0.910156C35.5913 0.910156 37.1174 1.5423 38.2426 2.66752C39.3679 3.79273 40 5.31886 40 6.91016V30.9102C40 32.5015 39.3679 34.0276 38.2426 35.1528C37.1174 36.278 35.5913 36.9102 34 36.9102H6C4.4087 36.9102 2.88258 36.278 1.75736 35.1528C0.632141 34.0276 0 32.5015 0 30.9102V6.91016C0 5.31886 0.632141 3.79273 1.75736 2.66752C2.88258 1.5423 4.4087 0.910156 6 0.910156H34ZM20 8.91016C17.3478 8.91016 14.8043 9.96372 12.9289 11.8391C11.0536 13.7145 10 16.258 10 18.9102C10 21.5623 11.0536 24.1059 12.9289 25.9812C14.8043 27.8566 17.3478 28.9102 20 28.9102C22.6522 28.9102 25.1957 27.8566 27.0711 25.9812C28.9464 24.1059 30 21.5623 30 18.9102C30 16.258 28.9464 13.7145 27.0711 11.8391C25.1957 9.96372 22.6522 8.91016 20 8.91016ZM20 12.9102C21.5913 12.9102 23.1174 13.5423 24.2426 14.6675C25.3679 15.7927 26 17.3189 26 18.9102C26 20.5015 25.3679 22.0276 24.2426 23.1528C23.1174 24.278 21.5913 24.9102 20 24.9102C18.4087 24.9102 16.8826 24.278 15.7574 23.1528C14.6321 22.0276 14 20.5015 14 18.9102C14 17.3189 14.6321 15.7927 15.7574 14.6675C16.8826 13.5423 18.4087 12.9102 20 12.9102ZM34 6.91016H32C31.4902 6.91072 30.9999 7.10591 30.6293 7.45585C30.2586 7.80579 30.0355 8.28406 30.0057 8.79295C29.9758 9.30183 30.1413 9.80291 30.4685 10.1938C30.7957 10.5847 31.2598 10.8359 31.766 10.8962L32 10.9102H34C34.5098 10.9096 35.0001 10.7144 35.3707 10.3645C35.7414 10.0145 35.9645 9.53625 35.9943 9.02737C36.0242 8.51848 35.8587 8.0174 35.5315 7.62649C35.2043 7.23558 34.7402 6.98436 34.234 6.92416L34 6.91016Z"  fill="currentColor"/>
</svg>