<svg width="30" height="30" viewBox="0 0 30 30" fill="none" xmlns="http://www.w3.org/2000/svg">
<path d="M16.5 1.5C16.5 1.10218 16.342 0.720644 16.0607 0.43934C15.7794 0.158035 15.3978 0 15 0C14.6022 0 14.2206 0.158035 13.9393 0.43934C13.658 0.720644 13.5 1.10218 13.5 1.5V6.879L10.0605 3.4395C9.7776 3.16626 9.39869 3.01507 9.0054 3.01849C8.6121 3.02191 8.23588 3.17966 7.95777 3.45777C7.67966 3.73588 7.52191 4.1121 7.51849 4.5054C7.51507 4.89869 7.66626 5.2776 7.9395 5.5605L13.5 11.121V13.5H11.121L5.5605 7.9395C5.2776 7.66626 4.89869 7.51507 4.5054 7.51849C4.1121 7.52191 3.73588 7.67966 3.45777 7.95777C3.17966 8.23588 3.02191 8.6121 3.01849 9.0054C3.01507 9.39869 3.16626 9.7776 3.4395 10.0605L6.879 13.5H1.5C1.10218 13.5 0.720644 13.658 0.43934 13.9393C0.158035 14.2206 0 14.6022 0 15C0 15.3978 0.158035 15.7794 0.43934 16.0607C0.720644 16.342 1.10218 16.5 1.5 16.5H6.879L3.4395 19.9395C3.29624 20.0779 3.18196 20.2434 3.10335 20.4264C3.02473 20.6094 2.98336 20.8062 2.98162 21.0054C2.97989 21.2046 3.01785 21.4021 3.09327 21.5864C3.16869 21.7708 3.28007 21.9383 3.42091 22.0791C3.56175 22.2199 3.72922 22.3313 3.91357 22.4067C4.09791 22.4822 4.29543 22.5201 4.4946 22.5184C4.69377 22.5166 4.8906 22.4753 5.07361 22.3967C5.25661 22.318 5.42213 22.2038 5.5605 22.0605L11.121 16.5H13.5V18.879L7.9395 24.4395C7.79624 24.5779 7.68196 24.7434 7.60335 24.9264C7.52473 25.1094 7.48336 25.3062 7.48162 25.5054C7.47989 25.7046 7.51785 25.9021 7.59327 26.0864C7.66869 26.2708 7.78007 26.4383 7.92091 26.5791C8.06175 26.7199 8.22922 26.8313 8.41357 26.9067C8.59791 26.9822 8.79543 27.0201 8.9946 27.0184C9.19377 27.0166 9.3906 26.9753 9.57361 26.8966C9.75661 26.818 9.92213 26.7038 10.0605 26.5605L13.5 23.121V28.5C13.5 28.8978 13.658 29.2794 13.9393 29.5607C14.2206 29.842 14.6022 30 15 30C15.3978 30 15.7794 29.842 16.0607 29.5607C16.342 29.2794 16.5 28.8978 16.5 28.5V23.121L19.9395 26.5605C20.2224 26.8337 20.6013 26.9849 20.9946 26.9815C21.3879 26.9781 21.7641 26.8203 22.0422 26.5422C22.3203 26.2641 22.4781 25.8879 22.4815 25.4946C22.4849 25.1013 22.3337 24.7224 22.0605 24.4395L16.5 18.879V16.5H18.879L24.4395 22.0605C24.7224 22.3337 25.1013 22.4849 25.4946 22.4815C25.8879 22.4781 26.2641 22.3203 26.5422 22.0422C26.8203 21.7641 26.9781 21.3879 26.9815 20.9946C26.9849 20.6013 26.8337 20.2224 26.5605 19.9395L23.121 16.5H28.5C28.8978 16.5 29.2794 16.342 29.5607 16.0607C29.842 15.7794 30 15.3978 30 15C30 14.6022 29.842 14.2206 29.5607 13.9393C29.2794 13.658 28.8978 13.5 28.5 13.5H23.121L26.5605 10.0605C26.8337 9.7776 26.9849 9.39869 26.9815 9.0054C26.9781 8.6121 26.8203 8.23588 26.5422 7.95777C26.2641 7.67966 25.8879 7.52191 25.4946 7.51849C25.1013 7.51507 24.7224 7.66626 24.4395 7.9395L18.879 13.5H16.5V11.121L22.0605 5.5605C22.3337 5.2776 22.4849 4.89869 22.4815 4.5054C22.4781 4.1121 22.3203 3.73588 22.0422 3.45777C21.7641 3.17966 21.3879 3.02191 20.9946 3.01849C20.6013 3.01507 20.2224 3.16626 19.9395 3.4395L16.5 6.879V1.5Z" fill="#574A4D"/>
</svg>
