<?xml version="1.0" standalone="no"?>
<!DOCTYPE svg PUBLIC "-//W3C//DTD SVG 20010904//EN"
 "http://www.w3.org/TR/2001/REC-SVG-20010904/DTD/svg10.dtd">
<svg version="1.0" xmlns="http://www.w3.org/2000/svg"
 width="766.000000pt" height="324.000000pt" viewBox="0 0 766.000000 324.000000"
 preserveAspectRatio="xMidYMid meet">

<g transform="translate(0.000000,324.000000) scale(0.100000,-0.100000)"
fill="#000000" stroke="none">
<path d="M2717 3230 c-69 -12 -152 -55 -187 -98 -17 -20 -40 -62 -53 -92 l-22
-55 -3 -785 c-2 -538 1 -806 8 -851 21 -123 89 -206 203 -246 49 -17 118 -18
1172 -18 l1120 0 59 24 c76 31 136 91 167 167 l24 59 3 785 c2 538 -1 806 -8
851 -20 120 -81 197 -192 242 l-53 22 -1095 1 c-602 1 -1117 -2 -1143 -6z
m738 -547 c97 -51 159 -154 159 -263 0 -119 -63 -215 -177 -265 -51 -24 -70
-27 -126 -23 -112 8 -191 61 -240 160 -74 148 -18 312 132 388 57 29 68 31
137 27 50 -2 88 -11 115 -24z m958 -504 c26 -14 165 -135 327 -284 l281 -260
-3 -132 c-3 -143 -9 -161 -72 -207 -27 -21 -32 -21 -1116 -21 -1084 0 -1089 0
-1116 21 -55 40 -69 70 -72 153 l-4 77 196 171 c199 173 240 201 306 210 75
10 129 -19 272 -147 73 -66 135 -120 138 -120 3 0 129 111 280 246 287 257
325 287 387 310 52 20 139 12 196 -17z"/>
<path d="M741 460 c-19 -11 -9 -45 14 -45 13 0 21 8 23 21 3 23 -17 37 -37 24z"/>
<path d="M1410 457 c-14 -7 -29 -26 -35 -45 -5 -17 -13 -32 -17 -32 -4 0 -8
-7 -8 -15 0 -8 5 -15 10 -15 6 0 10 -38 10 -95 0 -88 1 -95 20 -95 19 0 20 7
20 91 0 82 2 91 20 96 11 3 20 12 20 19 0 8 -9 14 -20 14 -11 0 -20 4 -20 9 0
21 13 41 26 41 8 0 14 9 14 20 0 23 -6 24 -40 7z"/>
<path d="M3701 460 c-19 -11 -9 -45 14 -45 13 0 21 8 23 21 3 23 -17 37 -37
24z"/>
<path d="M5791 460 c-19 -11 -9 -45 14 -45 13 0 21 8 23 21 3 23 -17 37 -37
24z"/>
<path d="M6851 460 c-19 -11 -9 -45 14 -45 13 0 21 8 23 21 3 23 -17 37 -37
24z"/>
<path d="M7100 455 c-16 -19 -5 -47 17 -43 11 2 18 12 18 27 0 29 -17 37 -35
16z"/>
<path d="M4220 399 c0 -50 0 -50 -22 -35 -36 25 -83 20 -120 -13 -30 -26 -33
-35 -32 -82 0 -45 5 -56 32 -81 37 -32 84 -37 120 -12 20 14 22 14 22 0 0 -10
9 -16 25 -16 l25 0 0 145 0 145 -25 0 c-23 0 -25 -3 -25 -51z m-26 -70 c37
-29 37 -89 0 -118 -15 -12 -32 -21 -39 -21 -7 0 -24 9 -39 21 -37 29 -37 89 0
118 15 12 32 21 39 21 7 0 24 -9 39 -21z"/>
<path d="M5680 399 l0 -51 -25 16 c-40 26 -92 21 -126 -13 -25 -25 -29 -37
-29 -81 0 -44 4 -56 29 -81 34 -34 86 -39 126 -13 23 15 25 15 25 0 0 -9 8
-16 20 -16 19 0 20 7 20 145 0 138 -1 145 -20 145 -17 0 -20 -7 -20 -51z m-47
-58 c13 -5 30 -23 37 -40 24 -60 -28 -123 -84 -101 -50 19 -61 86 -21 125 27
28 33 29 68 16z"/>
<path d="M30 300 l0 -140 75 0 c68 0 75 2 75 20 0 18 -7 20 -55 20 l-55 0 0
40 0 40 50 0 c43 0 50 3 50 20 0 17 -7 20 -50 20 l-50 0 0 40 0 40 55 0 c48 0
55 2 55 20 0 18 -7 20 -75 20 l-75 0 0 -140z"/>
<path d="M1760 405 c0 -16 -6 -25 -15 -25 -8 0 -15 -7 -15 -15 0 -8 7 -15 15
-15 12 0 15 -15 15 -79 0 -71 2 -82 22 -95 31 -22 80 -21 76 1 -2 9 -14 20
-28 23 -24 6 -25 10 -25 75 0 69 0 70 28 73 38 5 36 32 -3 32 -25 0 -30 4 -30
25 0 18 -5 25 -20 25 -15 0 -20 -7 -20 -25z"/>
<path d="M3550 405 c0 -14 -4 -25 -10 -25 -5 0 -10 -7 -10 -15 0 -8 4 -15 9
-15 5 0 11 -36 13 -81 4 -89 16 -109 70 -109 21 0 28 5 28 20 0 15 -7 20 -25
20 -24 0 -25 2 -25 75 0 73 1 75 25 75 16 0 25 6 25 15 0 9 -9 15 -25 15 -20
0 -25 5 -25 25 0 20 -5 25 -25 25 -20 0 -25 -5 -25 -25z"/>
<path d="M6950 405 c0 -14 -4 -25 -10 -25 -5 0 -10 -7 -10 -15 0 -8 4 -15 9
-15 5 0 11 -37 13 -81 5 -90 17 -109 70 -109 21 0 28 5 28 20 0 15 -7 20 -25
20 -24 0 -25 2 -25 75 0 73 1 75 25 75 16 0 25 6 25 15 0 9 -9 15 -25 15 -20
0 -25 5 -25 25 0 20 -5 25 -25 25 -20 0 -25 -5 -25 -25z"/>
<path d="M240 270 c0 -103 1 -110 20 -110 18 0 20 7 20 63 0 82 7 102 36 116
34 15 41 14 64 -9 16 -16 20 -33 20 -95 0 -70 2 -75 21 -75 20 0 21 4 17 91
-3 81 -6 93 -27 110 -27 22 -90 25 -110 7 -11 -10 -14 -10 -18 0 -3 6 -13 12
-24 12 -18 0 -19 -8 -19 -110z"/>
<path d="M480 373 c0 -4 18 -53 39 -108 36 -93 41 -100 66 -100 25 0 30 7 66
104 21 57 39 106 39 108 0 2 -10 3 -22 1 -17 -2 -27 -20 -51 -91 -16 -49 -31
-86 -33 -84 -3 2 -17 42 -33 88 -22 68 -32 85 -49 87 -12 2 -22 0 -22 -5z"/>
<path d="M730 270 c0 -103 1 -110 20 -110 19 0 20 7 20 110 0 103 -1 110 -20
110 -19 0 -20 -7 -20 -110z"/>
<path d="M858 351 c-29 -26 -33 -35 -33 -81 0 -46 4 -55 33 -81 37 -33 84 -38
120 -13 20 14 22 14 22 0 0 -9 9 -16 20 -16 19 0 20 7 20 110 0 103 -1 110
-20 110 -11 0 -20 -7 -20 -16 0 -14 -2 -14 -22 0 -36 25 -83 20 -120 -13z
m116 -22 c20 -16 26 -29 26 -59 0 -30 -6 -43 -26 -59 -15 -12 -32 -21 -39 -21
-7 0 -24 9 -39 21 -20 15 -26 29 -26 57 0 42 6 54 35 70 28 16 39 15 69 -9z"/>
<path d="M1110 270 c0 -103 1 -110 20 -110 18 0 20 7 20 73 0 77 15 107 53
107 10 0 17 8 17 20 0 25 -26 26 -52 3 -17 -15 -18 -15 -18 0 0 10 -8 17 -20
17 -19 0 -20 -7 -20 -110z"/>
<path d="M1531 364 c-83 -59 -43 -204 56 -204 41 0 89 23 103 49 5 11 10 41
10 66 0 65 -39 105 -102 105 -24 0 -54 -7 -67 -16z m103 -35 c23 -18 27 -28
24 -62 -7 -98 -128 -97 -128 1 0 42 6 54 35 70 28 16 39 15 69 -9z"/>
<path d="M1941 366 c-69 -38 -67 -162 4 -194 46 -21 92 -15 127 17 29 26 33
35 33 81 0 46 -4 55 -33 81 -36 32 -89 38 -131 15z m77 -22 c12 -4 30 -20 38
-36 21 -40 4 -91 -36 -108 -71 -29 -122 69 -65 125 26 27 29 28 63 19z"/>
<path d="M2170 360 c-42 -42 -17 -89 57 -105 17 -3 37 -13 44 -22 11 -13 10
-18 -6 -29 -26 -19 -41 -18 -65 6 -22 22 -50 27 -50 8 1 -53 104 -78 148 -38
42 40 16 93 -52 105 -45 9 -63 29 -46 50 7 8 20 15 30 15 10 0 23 -7 30 -15
16 -19 50 -20 50 -1 0 43 -104 62 -140 26z"/>
<path d="M2504 362 c-45 -36 -57 -98 -30 -151 25 -48 99 -67 144 -35 20 14 22
14 22 0 0 -9 9 -16 20 -16 19 0 20 7 20 110 0 103 -1 110 -20 110 -11 0 -20
-7 -20 -16 0 -14 -2 -14 -22 0 -30 21 -88 20 -114 -2z m111 -37 c40 -39 29
-106 -21 -125 -78 -30 -128 99 -53 137 35 18 47 16 74 -12z"/>
<path d="M2850 220 c0 -153 1 -160 20 -160 18 0 20 7 20 66 l0 66 25 -16 c28
-18 77 -21 106 -6 28 15 49 63 49 110 0 80 -93 130 -158 84 -20 -14 -22 -14
-22 0 0 9 -9 16 -20 16 -19 0 -20 -7 -20 -160z m163 98 c39 -45 7 -121 -51
-121 -38 0 -59 16 -67 52 -17 80 66 129 118 69z"/>
<path d="M3139 351 c-25 -25 -29 -37 -29 -81 0 -44 4 -56 29 -81 34 -34 86
-39 126 -13 23 15 25 15 25 0 0 -9 8 -16 20 -16 19 0 20 7 20 110 0 103 -1
110 -20 110 -12 0 -20 -7 -20 -16 0 -15 -2 -15 -25 0 -40 26 -92 21 -126 -13z
m104 -10 c13 -5 30 -23 37 -40 24 -60 -28 -123 -84 -101 -50 19 -61 86 -21
125 27 28 33 29 68 16z"/>
<path d="M3390 270 c0 -103 1 -110 20 -110 18 0 20 7 20 59 0 76 13 109 45
117 16 4 25 13 25 25 0 22 -12 24 -43 8 -16 -9 -22 -9 -25 0 -2 6 -12 11 -23
11 -18 0 -19 -8 -19 -110z"/>
<path d="M3690 270 l0 -110 25 0 25 0 0 110 0 110 -25 0 -25 0 0 -110z"/>
<path d="M3800 270 c0 -103 1 -110 20 -110 18 0 20 7 20 68 0 74 17 112 51
112 12 0 19 7 19 20 0 25 -26 26 -52 3 -17 -15 -18 -15 -18 0 0 10 -8 17 -20
17 -19 0 -20 -7 -20 -110z"/>
<path d="M4361 364 c-83 -59 -43 -204 56 -204 41 0 89 23 103 49 5 11 10 41
10 66 0 65 -39 105 -102 105 -24 0 -54 -7 -67 -16z m103 -35 c23 -18 27 -28
24 -62 -7 -98 -128 -97 -128 1 0 42 6 54 35 70 28 16 39 15 69 -9z"/>
<path d="M4700 360 c-42 -42 -17 -89 57 -105 17 -3 37 -13 44 -22 11 -13 10
-18 -6 -29 -26 -19 -41 -18 -65 6 -22 22 -50 27 -50 8 1 -53 104 -78 148 -38
42 40 16 93 -52 105 -45 9 -63 29 -46 50 7 8 20 15 30 15 10 0 23 -7 30 -15
16 -19 50 -20 50 -1 0 43 -104 62 -140 26z"/>
<path d="M4919 351 c-25 -25 -29 -37 -29 -81 0 -44 4 -56 29 -81 24 -24 38
-29 76 -29 37 0 51 5 73 28 27 27 27 27 5 30 -12 2 -33 -4 -47 -13 -27 -18
-56 -14 -81 11 -34 35 -19 44 70 44 79 0 85 1 85 21 0 55 -47 98 -108 99 -35
0 -49 -6 -73 -29z m119 -28 l27 -28 -64 -3 c-35 -2 -65 -1 -67 1 -9 9 10 39
30 47 34 14 46 11 74 -17z"/>
<path d="M5150 291 c0 -85 1 -91 26 -110 29 -23 74 -27 105 -11 13 7 19 7 19
0 0 -5 9 -10 20 -10 19 0 20 7 20 110 0 103 -1 110 -20 110 -18 0 -20 -7 -20
-80 0 -73 -2 -81 -24 -96 -22 -13 -29 -14 -53 -2 -27 13 -28 16 -31 96 -3 74
-5 82 -22 82 -18 0 -20 -7 -20 -89z"/>
<path d="M5780 270 c0 -103 1 -110 20 -110 19 0 20 7 20 110 0 103 -1 110 -20
110 -19 0 -20 -7 -20 -110z"/>
<path d="M5900 360 c-42 -42 -17 -89 57 -105 17 -3 37 -13 44 -22 11 -13 10
-18 -6 -29 -26 -19 -41 -18 -65 6 -23 23 -50 26 -50 6 0 -25 50 -56 91 -56
100 0 104 107 5 125 -45 9 -63 29 -46 50 7 8 20 15 30 15 10 0 23 -7 30 -15
16 -19 50 -20 50 -1 0 43 -104 62 -140 26z"/>
<path d="M6100 220 c0 -153 1 -160 20 -160 18 0 20 7 20 65 l0 66 30 -16 c46
-24 87 -19 121 14 25 25 29 37 29 81 0 44 -4 56 -29 81 -34 34 -86 39 -126 13
-23 -15 -25 -15 -25 0 0 9 -8 16 -20 16 -19 0 -20 -7 -20 -160z m155 105 c57
-56 6 -154 -65 -125 -57 24 -62 112 -7 138 34 16 46 14 72 -13z"/>
<path d="M6411 366 c-69 -38 -67 -162 4 -194 46 -21 92 -15 127 17 29 26 33
35 33 81 0 46 -4 55 -33 81 -36 32 -89 38 -131 15z m82 -25 c13 -5 30 -23 37
-40 34 -84 -78 -150 -120 -71 -17 32 -11 70 15 95 27 28 33 29 68 16z"/>
<path d="M6640 360 c-42 -42 -17 -89 57 -105 17 -3 37 -13 44 -22 11 -13 10
-18 -6 -29 -26 -19 -41 -18 -65 6 -22 22 -50 27 -50 8 1 -52 109 -79 150 -38
40 40 13 93 -54 105 -45 9 -63 29 -46 50 7 8 20 15 30 15 10 0 23 -7 30 -15
16 -19 50 -20 50 -1 0 43 -104 62 -140 26z"/>
<path d="M6840 270 c0 -103 1 -110 20 -110 19 0 20 7 20 110 0 103 -1 110 -20
110 -19 0 -20 -7 -20 -110z"/>
<path d="M7100 270 c0 -103 1 -110 20 -110 19 0 20 7 20 110 0 103 -1 110 -20
110 -19 0 -20 -7 -20 -110z"/>
<path d="M7185 358 c4 -13 22 -61 40 -108 30 -78 35 -85 59 -85 25 0 30 7 60
85 52 133 52 132 25 128 -18 -2 -27 -17 -46 -73 -32 -98 -33 -99 -40 -92 -3 4
-18 41 -33 84 -22 62 -32 79 -50 81 -19 3 -21 0 -15 -20z"/>
<path d="M7471 366 c-33 -18 -50 -53 -50 -101 -1 -94 109 -140 181 -76 29 26
33 35 33 81 0 46 -4 55 -33 81 -36 32 -89 38 -131 15z m77 -22 c12 -4 30 -20
38 -36 21 -40 4 -91 -36 -108 -71 -29 -122 69 -65 125 26 27 29 28 63 19z"/>
</g>
</svg>
