<svg width="383" height="162" viewBox="0 0 383 162" xmlns="http://www.w3.org/2000/svg">
<path d="M140.87 108H242.13C254.358 108 260.5 101.9 260.5 89.816V18.184C260.5 6.0997 254.358 0 242.13 0H140.87C128.702 0.00250295 122.5 6.04463 122.5 18.184V89.8185C122.5 101.96 128.702 108 140.87 108ZM166.373 55.4405C158.419 55.4405 151.925 48.9303 151.925 40.9508C151.925 33.0315 158.419 26.4612 166.376 26.4612C174.273 26.4612 180.765 33.0315 180.765 40.9533C180.765 48.9303 174.273 55.4405 166.373 55.4405ZM140.987 98.5563C135.372 98.5563 131.92 95.1523 131.92 89.403V85.8238L149.878 70.1053C152.451 67.8176 155.259 66.6437 157.892 66.6437C160.7 66.6437 163.683 67.8176 166.259 70.2229L177.49 80.3098L205.395 55.4379C208.318 52.8574 211.535 51.6835 214.812 51.6835C218.029 51.6835 221.364 52.915 224.172 55.498L251.078 80.4875V89.5232C251.078 95.1548 247.571 98.5563 242.013 98.5563H140.987Z" fill="#574A4D"/>
<path d="M3.78 141.94V146.02H8.58V147.88H3.78V152.14H9.18V154H1.5V140.08H9.18V141.94H3.78ZM17.5483 142.8C18.4149 142.8 19.1883 142.98 19.8683 143.34C20.5616 143.7 21.1016 144.233 21.4883 144.94C21.8749 145.647 22.0683 146.5 22.0683 147.5V154H19.8083V147.84C19.8083 146.853 19.5616 146.1 19.0683 145.58C18.5749 145.047 17.9016 144.78 17.0483 144.78C16.1949 144.78 15.5149 145.047 15.0083 145.58C14.5149 146.1 14.2683 146.853 14.2683 147.84V154H11.9883V142.98H14.2683V144.24C14.6416 143.787 15.1149 143.433 15.6883 143.18C16.2749 142.927 16.8949 142.8 17.5483 142.8ZM29.2366 151.96L32.3566 142.98H34.7766L30.5766 154H27.8566L23.6766 142.98H26.1166L29.2366 151.96ZM37.66 141.52C37.2467 141.52 36.9 141.38 36.62 141.1C36.34 140.82 36.2 140.473 36.2 140.06C36.2 139.647 36.34 139.3 36.62 139.02C36.9 138.74 37.2467 138.6 37.66 138.6C38.06 138.6 38.4 138.74 38.68 139.02C38.96 139.3 39.1 139.647 39.1 140.06C39.1 140.473 38.96 140.82 38.68 141.1C38.4 141.38 38.06 141.52 37.66 141.52ZM38.78 142.98V154H36.5V142.98H38.78ZM41.0134 148.44C41.0134 147.333 41.2401 146.353 41.6934 145.5C42.1601 144.647 42.7868 143.987 43.5734 143.52C44.3734 143.04 45.2534 142.8 46.2134 142.8C47.0801 142.8 47.8334 142.973 48.4734 143.32C49.1268 143.653 49.6468 144.073 50.0334 144.58V142.98H52.3334V154H50.0334V152.36C49.6468 152.88 49.1201 153.313 48.4534 153.66C47.7868 154.007 47.0268 154.18 46.1734 154.18C45.2268 154.18 44.3601 153.94 43.5734 153.46C42.7868 152.967 42.1601 152.287 41.6934 151.42C41.2401 150.54 41.0134 149.547 41.0134 148.44ZM50.0334 148.48C50.0334 147.72 49.8734 147.06 49.5534 146.5C49.2468 145.94 48.8401 145.513 48.3334 145.22C47.8268 144.927 47.2801 144.78 46.6934 144.78C46.1068 144.78 45.5601 144.927 45.0534 145.22C44.5468 145.5 44.1334 145.92 43.8134 146.48C43.5068 147.027 43.3534 147.68 43.3534 148.44C43.3534 149.2 43.5068 149.867 43.8134 150.44C44.1334 151.013 44.5468 151.453 45.0534 151.76C45.5734 152.053 46.1201 152.2 46.6934 152.2C47.2801 152.2 47.8268 152.053 48.3334 151.76C48.8401 151.467 49.2468 151.04 49.5534 150.48C49.8734 149.907 50.0334 149.24 50.0334 148.48ZM57.6081 144.58C57.9415 144.02 58.3815 143.587 58.9281 143.28C59.4881 142.96 60.1481 142.8 60.9081 142.8V145.16H60.3281C59.4348 145.16 58.7548 145.387 58.2881 145.84C57.8348 146.293 57.6081 147.08 57.6081 148.2V154H55.3281V142.98H57.6081V144.58ZM72.8192 144.84H70.7792V154H68.4792V144.84H67.1792V142.98H68.4792V142.2C68.4792 140.933 68.8126 140.013 69.4792 139.44C70.1592 138.853 71.2192 138.56 72.6592 138.56V140.46C71.9659 140.46 71.4792 140.593 71.1992 140.86C70.9192 141.113 70.7792 141.56 70.7792 142.2V142.98H72.8192V144.84ZM79.6198 154.18C78.5798 154.18 77.6398 153.947 76.7998 153.48C75.9598 153 75.2998 152.333 74.8198 151.48C74.3398 150.613 74.0998 149.613 74.0998 148.48C74.0998 147.36 74.3465 146.367 74.8398 145.5C75.3332 144.633 76.0065 143.967 76.8598 143.5C77.7132 143.033 78.6665 142.8 79.7198 142.8C80.7732 142.8 81.7265 143.033 82.5798 143.5C83.4332 143.967 84.1065 144.633 84.5998 145.5C85.0932 146.367 85.3398 147.36 85.3398 148.48C85.3398 149.6 85.0865 150.593 84.5798 151.46C84.0732 152.327 83.3798 153 82.4998 153.48C81.6332 153.947 80.6732 154.18 79.6198 154.18ZM79.6198 152.2C80.2065 152.2 80.7532 152.06 81.2598 151.78C81.7798 151.5 82.1998 151.08 82.5198 150.52C82.8398 149.96 82.9998 149.28 82.9998 148.48C82.9998 147.68 82.8465 147.007 82.5398 146.46C82.2332 145.9 81.8265 145.48 81.3198 145.2C80.8132 144.92 80.2665 144.78 79.6798 144.78C79.0932 144.78 78.5465 144.92 78.0398 145.2C77.5465 145.48 77.1532 145.9 76.8598 146.46C76.5665 147.007 76.4198 147.68 76.4198 148.48C76.4198 149.667 76.7198 150.587 77.3198 151.24C77.9332 151.88 78.6998 152.2 79.6198 152.2ZM90.2538 144.84V150.94C90.2538 151.353 90.3471 151.653 90.5338 151.84C90.7338 152.013 91.0671 152.1 91.5338 152.1H92.9338V154H91.1338C90.1071 154 89.3204 153.76 88.7738 153.28C88.2271 152.8 87.9538 152.02 87.9538 150.94V144.84H86.6538V142.98H87.9538V140.24H90.2538V142.98H92.9338V144.84H90.2538ZM99.8152 154.18C98.7752 154.18 97.8352 153.947 96.9952 153.48C96.1552 153 95.4952 152.333 95.0152 151.48C94.5352 150.613 94.2952 149.613 94.2952 148.48C94.2952 147.36 94.5418 146.367 95.0352 145.5C95.5285 144.633 96.2018 143.967 97.0552 143.5C97.9085 143.033 98.8618 142.8 99.9152 142.8C100.968 142.8 101.922 143.033 102.775 143.5C103.628 143.967 104.302 144.633 104.795 145.5C105.288 146.367 105.535 147.36 105.535 148.48C105.535 149.6 105.282 150.593 104.775 151.46C104.268 152.327 103.575 153 102.695 153.48C101.828 153.947 100.868 154.18 99.8152 154.18ZM99.8152 152.2C100.402 152.2 100.948 152.06 101.455 151.78C101.975 151.5 102.395 151.08 102.715 150.52C103.035 149.96 103.195 149.28 103.195 148.48C103.195 147.68 103.042 147.007 102.735 146.46C102.428 145.9 102.022 145.48 101.515 145.2C101.008 144.92 100.462 144.78 99.8752 144.78C99.2885 144.78 98.7418 144.92 98.2352 145.2C97.7418 145.48 97.3485 145.9 97.0552 146.46C96.7618 147.007 96.6152 147.68 96.6152 148.48C96.6152 149.667 96.9152 150.587 97.5152 151.24C98.1285 151.88 98.8952 152.2 99.8152 152.2ZM111.789 154.18C110.922 154.18 110.142 154.027 109.449 153.72C108.769 153.4 108.229 152.973 107.829 152.44C107.429 151.893 107.216 151.287 107.189 150.62H109.549C109.589 151.087 109.809 151.48 110.209 151.8C110.622 152.107 111.136 152.26 111.749 152.26C112.389 152.26 112.882 152.14 113.229 151.9C113.589 151.647 113.769 151.327 113.769 150.94C113.769 150.527 113.569 150.22 113.169 150.02C112.782 149.82 112.162 149.6 111.309 149.36C110.482 149.133 109.809 148.913 109.289 148.7C108.769 148.487 108.316 148.16 107.929 147.72C107.556 147.28 107.369 146.7 107.369 145.98C107.369 145.393 107.542 144.86 107.889 144.38C108.236 143.887 108.729 143.5 109.369 143.22C110.022 142.94 110.769 142.8 111.609 142.8C112.862 142.8 113.869 143.12 114.629 143.76C115.402 144.387 115.816 145.247 115.869 146.34H113.589C113.549 145.847 113.349 145.453 112.989 145.16C112.629 144.867 112.142 144.72 111.529 144.72C110.929 144.72 110.469 144.833 110.149 145.06C109.829 145.287 109.669 145.587 109.669 145.96C109.669 146.253 109.776 146.5 109.989 146.7C110.202 146.9 110.462 147.06 110.769 147.18C111.076 147.287 111.529 147.427 112.129 147.6C112.929 147.813 113.582 148.033 114.089 148.26C114.609 148.473 115.056 148.793 115.429 149.22C115.802 149.647 115.996 150.213 116.009 150.92C116.009 151.547 115.836 152.107 115.489 152.6C115.142 153.093 114.649 153.48 114.009 153.76C113.382 154.04 112.642 154.18 111.789 154.18ZM122.908 148.44C122.908 147.333 123.135 146.353 123.588 145.5C124.055 144.647 124.681 143.987 125.468 143.52C126.268 143.04 127.148 142.8 128.108 142.8C128.975 142.8 129.728 142.973 130.368 143.32C131.021 143.653 131.541 144.073 131.928 144.58V142.98H134.228V154H131.928V152.36C131.541 152.88 131.015 153.313 130.348 153.66C129.681 154.007 128.921 154.18 128.068 154.18C127.121 154.18 126.255 153.94 125.468 153.46C124.681 152.967 124.055 152.287 123.588 151.42C123.135 150.54 122.908 149.547 122.908 148.44ZM131.928 148.48C131.928 147.72 131.768 147.06 131.448 146.5C131.141 145.94 130.735 145.513 130.228 145.22C129.721 144.927 129.175 144.78 128.588 144.78C128.001 144.78 127.455 144.927 126.948 145.22C126.441 145.5 126.028 145.92 125.708 146.48C125.401 147.027 125.248 147.68 125.248 148.44C125.248 149.2 125.401 149.867 125.708 150.44C126.028 151.013 126.441 151.453 126.948 151.76C127.468 152.053 128.015 152.2 128.588 152.2C129.175 152.2 129.721 152.053 130.228 151.76C130.735 151.467 131.141 151.04 131.448 150.48C131.768 149.907 131.928 149.24 131.928 148.48ZM144.698 144.6C145.085 144.093 145.611 143.667 146.278 143.32C146.945 142.973 147.698 142.8 148.538 142.8C149.498 142.8 150.371 143.04 151.158 143.52C151.958 143.987 152.585 144.647 153.038 145.5C153.491 146.353 153.718 147.333 153.718 148.44C153.718 149.547 153.491 150.54 153.038 151.42C152.585 152.287 151.958 152.967 151.158 153.46C150.371 153.94 149.498 154.18 148.538 154.18C147.698 154.18 146.951 154.013 146.298 153.68C145.645 153.333 145.111 152.907 144.698 152.4V159.24H142.418V142.98H144.698V144.6ZM151.398 148.44C151.398 147.68 151.238 147.027 150.918 146.48C150.611 145.92 150.198 145.5 149.678 145.22C149.171 144.927 148.625 144.78 148.038 144.78C147.465 144.78 146.918 144.927 146.398 145.22C145.891 145.513 145.478 145.94 145.158 146.5C144.851 147.06 144.698 147.72 144.698 148.48C144.698 149.24 144.851 149.907 145.158 150.48C145.478 151.04 145.891 151.467 146.398 151.76C146.918 152.053 147.465 152.2 148.038 152.2C148.625 152.2 149.171 152.053 149.678 151.76C150.198 151.453 150.611 151.013 150.918 150.44C151.238 149.867 151.398 149.2 151.398 148.44ZM155.213 148.44C155.213 147.333 155.439 146.353 155.893 145.5C156.359 144.647 156.986 143.987 157.773 143.52C158.573 143.04 159.453 142.8 160.413 142.8C161.279 142.8 162.033 142.973 162.673 143.32C163.326 143.653 163.846 144.073 164.233 144.58V142.98H166.533V154H164.233V152.36C163.846 152.88 163.319 153.313 162.653 153.66C161.986 154.007 161.226 154.18 160.373 154.18C159.426 154.18 158.559 153.94 157.773 153.46C156.986 152.967 156.359 152.287 155.893 151.42C155.439 150.54 155.213 149.547 155.213 148.44ZM164.233 148.48C164.233 147.72 164.073 147.06 163.753 146.5C163.446 145.94 163.039 145.513 162.533 145.22C162.026 144.927 161.479 144.78 160.893 144.78C160.306 144.78 159.759 144.927 159.253 145.22C158.746 145.5 158.333 145.92 158.013 146.48C157.706 147.027 157.553 147.68 157.553 148.44C157.553 149.2 157.706 149.867 158.013 150.44C158.333 151.013 158.746 151.453 159.253 151.76C159.773 152.053 160.319 152.2 160.893 152.2C161.479 152.2 162.026 152.053 162.533 151.76C163.039 151.467 163.446 151.04 163.753 150.48C164.073 149.907 164.233 149.24 164.233 148.48ZM171.807 144.58C172.141 144.02 172.581 143.587 173.127 143.28C173.687 142.96 174.347 142.8 175.107 142.8V145.16H174.527C173.634 145.16 172.954 145.387 172.487 145.84C172.034 146.293 171.807 147.08 171.807 148.2V154H169.527V142.98H171.807V144.58ZM179.863 144.84V150.94C179.863 151.353 179.956 151.653 180.143 151.84C180.343 152.013 180.676 152.1 181.143 152.1H182.543V154H180.743C179.716 154 178.93 153.76 178.383 153.28C177.836 152.8 177.563 152.02 177.563 150.94V144.84H176.263V142.98H177.563V140.24H179.863V142.98H182.543V144.84H179.863ZM185.805 141.52C185.391 141.52 185.045 141.38 184.765 141.1C184.485 140.82 184.345 140.473 184.345 140.06C184.345 139.647 184.485 139.3 184.765 139.02C185.045 138.74 185.391 138.6 185.805 138.6C186.205 138.6 186.545 138.74 186.825 139.02C187.105 139.3 187.245 139.647 187.245 140.06C187.245 140.473 187.105 140.82 186.825 141.1C186.545 141.38 186.205 141.52 185.805 141.52ZM186.925 142.98V154H184.645V142.98H186.925ZM192.198 144.58C192.531 144.02 192.971 143.587 193.518 143.28C194.078 142.96 194.738 142.8 195.498 142.8V145.16H194.918C194.025 145.16 193.345 145.387 192.878 145.84C192.425 146.293 192.198 147.08 192.198 148.2V154H189.918V142.98H192.198V144.58ZM202.029 148.44C202.029 147.333 202.256 146.353 202.709 145.5C203.176 144.647 203.802 143.987 204.589 143.52C205.389 143.04 206.276 142.8 207.249 142.8C207.969 142.8 208.676 142.96 209.369 143.28C210.076 143.587 210.636 144 211.049 144.52V139.2H213.349V154H211.049V152.34C210.676 152.873 210.156 153.313 209.489 153.66C208.836 154.007 208.082 154.18 207.229 154.18C206.269 154.18 205.389 153.94 204.589 153.46C203.802 152.967 203.176 152.287 202.709 151.42C202.256 150.54 202.029 149.547 202.029 148.44ZM211.049 148.48C211.049 147.72 210.889 147.06 210.569 146.5C210.262 145.94 209.856 145.513 209.349 145.22C208.842 144.927 208.296 144.78 207.709 144.78C207.122 144.78 206.576 144.927 206.069 145.22C205.562 145.5 205.149 145.92 204.829 146.48C204.522 147.027 204.369 147.68 204.369 148.44C204.369 149.2 204.522 149.867 204.829 150.44C205.149 151.013 205.562 151.453 206.069 151.76C206.589 152.053 207.136 152.2 207.709 152.2C208.296 152.2 208.842 152.053 209.349 151.76C209.856 151.467 210.262 151.04 210.569 150.48C210.889 149.907 211.049 149.24 211.049 148.48ZM221.124 154.18C220.084 154.18 219.144 153.947 218.304 153.48C217.464 153 216.804 152.333 216.324 151.48C215.844 150.613 215.604 149.613 215.604 148.48C215.604 147.36 215.85 146.367 216.344 145.5C216.837 144.633 217.51 143.967 218.364 143.5C219.217 143.033 220.17 142.8 221.224 142.8C222.277 142.8 223.23 143.033 224.084 143.5C224.937 143.967 225.61 144.633 226.104 145.5C226.597 146.367 226.844 147.36 226.844 148.48C226.844 149.6 226.59 150.593 226.084 151.46C225.577 152.327 224.884 153 224.004 153.48C223.137 153.947 222.177 154.18 221.124 154.18ZM221.124 152.2C221.71 152.2 222.257 152.06 222.764 151.78C223.284 151.5 223.704 151.08 224.024 150.52C224.344 149.96 224.504 149.28 224.504 148.48C224.504 147.68 224.35 147.007 224.044 146.46C223.737 145.9 223.33 145.48 222.824 145.2C222.317 144.92 221.77 144.78 221.184 144.78C220.597 144.78 220.05 144.92 219.544 145.2C219.05 145.48 218.657 145.9 218.364 146.46C218.07 147.007 217.924 147.68 217.924 148.48C217.924 149.667 218.224 150.587 218.824 151.24C219.437 151.88 220.204 152.2 221.124 152.2ZM238.293 154.18C237.426 154.18 236.646 154.027 235.953 153.72C235.273 153.4 234.733 152.973 234.333 152.44C233.933 151.893 233.72 151.287 233.693 150.62H236.053C236.093 151.087 236.313 151.48 236.713 151.8C237.126 152.107 237.64 152.26 238.253 152.26C238.893 152.26 239.386 152.14 239.733 151.9C240.093 151.647 240.273 151.327 240.273 150.94C240.273 150.527 240.073 150.22 239.673 150.02C239.286 149.82 238.666 149.6 237.813 149.36C236.986 149.133 236.313 148.913 235.793 148.7C235.273 148.487 234.82 148.16 234.433 147.72C234.06 147.28 233.873 146.7 233.873 145.98C233.873 145.393 234.046 144.86 234.393 144.38C234.74 143.887 235.233 143.5 235.873 143.22C236.526 142.94 237.273 142.8 238.113 142.8C239.366 142.8 240.373 143.12 241.133 143.76C241.906 144.387 242.32 145.247 242.373 146.34H240.093C240.053 145.847 239.853 145.453 239.493 145.16C239.133 144.867 238.646 144.72 238.033 144.72C237.433 144.72 236.973 144.833 236.653 145.06C236.333 145.287 236.173 145.587 236.173 145.96C236.173 146.253 236.28 146.5 236.493 146.7C236.706 146.9 236.966 147.06 237.273 147.18C237.58 147.287 238.033 147.427 238.633 147.6C239.433 147.813 240.086 148.033 240.593 148.26C241.113 148.473 241.56 148.793 241.933 149.22C242.306 149.647 242.5 150.213 242.513 150.92C242.513 151.547 242.34 152.107 241.993 152.6C241.646 153.093 241.153 153.48 240.513 153.76C239.886 154.04 239.146 154.18 238.293 154.18ZM255.077 148.22C255.077 148.633 255.05 149.007 254.997 149.34H246.577C246.643 150.22 246.97 150.927 247.557 151.46C248.143 151.993 248.863 152.26 249.717 152.26C250.943 152.26 251.81 151.747 252.317 150.72H254.777C254.443 151.733 253.837 152.567 252.957 153.22C252.09 153.86 251.01 154.18 249.717 154.18C248.663 154.18 247.717 153.947 246.877 153.48C246.05 153 245.397 152.333 244.917 151.48C244.45 150.613 244.217 149.613 244.217 148.48C244.217 147.347 244.443 146.353 244.897 145.5C245.363 144.633 246.01 143.967 246.837 143.5C247.677 143.033 248.637 142.8 249.717 142.8C250.757 142.8 251.683 143.027 252.497 143.48C253.31 143.933 253.943 144.573 254.397 145.4C254.85 146.213 255.077 147.153 255.077 148.22ZM252.697 147.5C252.683 146.66 252.383 145.987 251.797 145.48C251.21 144.973 250.483 144.72 249.617 144.72C248.83 144.72 248.157 144.973 247.597 145.48C247.037 145.973 246.703 146.647 246.597 147.5H252.697ZM267.3 142.98V154H265.02V152.7C264.66 153.153 264.187 153.513 263.6 153.78C263.027 154.033 262.414 154.16 261.76 154.16C260.894 154.16 260.114 153.98 259.42 153.62C258.74 153.26 258.2 152.727 257.8 152.02C257.414 151.313 257.22 150.46 257.22 149.46V142.98H259.48V149.12C259.48 150.107 259.727 150.867 260.22 151.4C260.714 151.92 261.387 152.18 262.24 152.18C263.094 152.18 263.767 151.92 264.26 151.4C264.767 150.867 265.02 150.107 265.02 149.12V142.98H267.3ZM274.744 148.44C274.744 147.333 274.971 146.353 275.424 145.5C275.891 144.647 276.517 143.987 277.304 143.52C278.104 143.04 278.991 142.8 279.964 142.8C280.684 142.8 281.391 142.96 282.084 143.28C282.791 143.587 283.351 144 283.764 144.52V139.2H286.064V154H283.764V152.34C283.391 152.873 282.871 153.313 282.204 153.66C281.551 154.007 280.797 154.18 279.944 154.18C278.984 154.18 278.104 153.94 277.304 153.46C276.517 152.967 275.891 152.287 275.424 151.42C274.971 150.54 274.744 149.547 274.744 148.44ZM283.764 148.48C283.764 147.72 283.604 147.06 283.284 146.5C282.977 145.94 282.571 145.513 282.064 145.22C281.557 144.927 281.011 144.78 280.424 144.78C279.837 144.78 279.291 144.927 278.784 145.22C278.277 145.5 277.864 145.92 277.544 146.48C277.237 147.027 277.084 147.68 277.084 148.44C277.084 149.2 277.237 149.867 277.544 150.44C277.864 151.013 278.277 151.453 278.784 151.76C279.304 152.053 279.851 152.2 280.424 152.2C281.011 152.2 281.557 152.053 282.064 151.76C282.571 151.467 282.977 151.04 283.284 150.48C283.604 149.907 283.764 149.24 283.764 148.48ZM290.219 141.52C289.805 141.52 289.459 141.38 289.179 141.1C288.899 140.82 288.759 140.473 288.759 140.06C288.759 139.647 288.899 139.3 289.179 139.02C289.459 138.74 289.805 138.6 290.219 138.6C290.619 138.6 290.959 138.74 291.239 139.02C291.519 139.3 291.659 139.647 291.659 140.06C291.659 140.473 291.519 140.82 291.239 141.1C290.959 141.38 290.619 141.52 290.219 141.52ZM291.339 142.98V154H289.059V142.98H291.339ZM298.332 154.18C297.465 154.18 296.685 154.027 295.992 153.72C295.312 153.4 294.772 152.973 294.372 152.44C293.972 151.893 293.759 151.287 293.732 150.62H296.092C296.132 151.087 296.352 151.48 296.752 151.8C297.165 152.107 297.679 152.26 298.292 152.26C298.932 152.26 299.425 152.14 299.772 151.9C300.132 151.647 300.312 151.327 300.312 150.94C300.312 150.527 300.112 150.22 299.712 150.02C299.325 149.82 298.705 149.6 297.852 149.36C297.025 149.133 296.352 148.913 295.832 148.7C295.312 148.487 294.859 148.16 294.472 147.72C294.099 147.28 293.912 146.7 293.912 145.98C293.912 145.393 294.085 144.86 294.432 144.38C294.779 143.887 295.272 143.5 295.912 143.22C296.565 142.94 297.312 142.8 298.152 142.8C299.405 142.8 300.412 143.12 301.172 143.76C301.945 144.387 302.359 145.247 302.412 146.34H300.132C300.092 145.847 299.892 145.453 299.532 145.16C299.172 144.867 298.685 144.72 298.072 144.72C297.472 144.72 297.012 144.833 296.692 145.06C296.372 145.287 296.212 145.587 296.212 145.96C296.212 146.253 296.319 146.5 296.532 146.7C296.745 146.9 297.005 147.06 297.312 147.18C297.619 147.287 298.072 147.427 298.672 147.6C299.472 147.813 300.125 148.033 300.632 148.26C301.152 148.473 301.599 148.793 301.972 149.22C302.345 149.647 302.539 150.213 302.552 150.92C302.552 151.547 302.379 152.107 302.032 152.6C301.685 153.093 301.192 153.48 300.552 153.76C299.925 154.04 299.185 154.18 298.332 154.18ZM307.296 144.6C307.682 144.093 308.209 143.667 308.876 143.32C309.542 142.973 310.296 142.8 311.136 142.8C312.096 142.8 312.969 143.04 313.756 143.52C314.556 143.987 315.182 144.647 315.636 145.5C316.089 146.353 316.316 147.333 316.316 148.44C316.316 149.547 316.089 150.54 315.636 151.42C315.182 152.287 314.556 152.967 313.756 153.46C312.969 153.94 312.096 154.18 311.136 154.18C310.296 154.18 309.549 154.013 308.896 153.68C308.242 153.333 307.709 152.907 307.296 152.4V159.24H305.016V142.98H307.296V144.6ZM313.996 148.44C313.996 147.68 313.836 147.027 313.516 146.48C313.209 145.92 312.796 145.5 312.276 145.22C311.769 144.927 311.222 144.78 310.636 144.78C310.062 144.78 309.516 144.927 308.996 145.22C308.489 145.513 308.076 145.94 307.756 146.5C307.449 147.06 307.296 147.72 307.296 148.48C307.296 149.24 307.449 149.907 307.756 150.48C308.076 151.04 308.489 151.467 308.996 151.76C309.516 152.053 310.062 152.2 310.636 152.2C311.222 152.2 311.769 152.053 312.276 151.76C312.796 151.453 313.209 151.013 313.516 150.44C313.836 149.867 313.996 149.2 313.996 148.44ZM323.35 154.18C322.31 154.18 321.37 153.947 320.53 153.48C319.69 153 319.03 152.333 318.55 151.48C318.07 150.613 317.83 149.613 317.83 148.48C317.83 147.36 318.077 146.367 318.57 145.5C319.064 144.633 319.737 143.967 320.59 143.5C321.444 143.033 322.397 142.8 323.45 142.8C324.504 142.8 325.457 143.033 326.31 143.5C327.164 143.967 327.837 144.633 328.33 145.5C328.824 146.367 329.07 147.36 329.07 148.48C329.07 149.6 328.817 150.593 328.31 151.46C327.804 152.327 327.11 153 326.23 153.48C325.364 153.947 324.404 154.18 323.35 154.18ZM323.35 152.2C323.937 152.2 324.484 152.06 324.99 151.78C325.51 151.5 325.93 151.08 326.25 150.52C326.57 149.96 326.73 149.28 326.73 148.48C326.73 147.68 326.577 147.007 326.27 146.46C325.964 145.9 325.557 145.48 325.05 145.2C324.544 144.92 323.997 144.78 323.41 144.78C322.824 144.78 322.277 144.92 321.77 145.2C321.277 145.48 320.884 145.9 320.59 146.46C320.297 147.007 320.15 147.68 320.15 148.48C320.15 149.667 320.45 150.587 321.05 151.24C321.664 151.88 322.43 152.2 323.35 152.2ZM335.324 154.18C334.458 154.18 333.678 154.027 332.984 153.72C332.304 153.4 331.764 152.973 331.364 152.44C330.964 151.893 330.751 151.287 330.724 150.62H333.084C333.124 151.087 333.344 151.48 333.744 151.8C334.158 152.107 334.671 152.26 335.284 152.26C335.924 152.26 336.418 152.14 336.764 151.9C337.124 151.647 337.304 151.327 337.304 150.94C337.304 150.527 337.104 150.22 336.704 150.02C336.318 149.82 335.698 149.6 334.844 149.36C334.018 149.133 333.344 148.913 332.824 148.7C332.304 148.487 331.851 148.16 331.464 147.72C331.091 147.28 330.904 146.7 330.904 145.98C330.904 145.393 331.078 144.86 331.424 144.38C331.771 143.887 332.264 143.5 332.904 143.22C333.558 142.94 334.304 142.8 335.144 142.8C336.398 142.8 337.404 143.12 338.164 143.76C338.938 144.387 339.351 145.247 339.404 146.34H337.124C337.084 145.847 336.884 145.453 336.524 145.16C336.164 144.867 335.678 144.72 335.064 144.72C334.464 144.72 334.004 144.833 333.684 145.06C333.364 145.287 333.204 145.587 333.204 145.96C333.204 146.253 333.311 146.5 333.524 146.7C333.738 146.9 333.998 147.06 334.304 147.18C334.611 147.287 335.064 147.427 335.664 147.6C336.464 147.813 337.118 148.033 337.624 148.26C338.144 148.473 338.591 148.793 338.964 149.22C339.338 149.647 339.531 150.213 339.544 150.92C339.544 151.547 339.371 152.107 339.024 152.6C338.678 153.093 338.184 153.48 337.544 153.76C336.918 154.04 336.178 154.18 335.324 154.18ZM343.168 141.52C342.754 141.52 342.408 141.38 342.128 141.1C341.848 140.82 341.708 140.473 341.708 140.06C341.708 139.647 341.848 139.3 342.128 139.02C342.408 138.74 342.754 138.6 343.168 138.6C343.568 138.6 343.908 138.74 344.188 139.02C344.468 139.3 344.608 139.647 344.608 140.06C344.608 140.473 344.468 140.82 344.188 141.1C343.908 141.38 343.568 141.52 343.168 141.52ZM344.288 142.98V154H342.008V142.98H344.288ZM349.941 144.84V150.94C349.941 151.353 350.035 151.653 350.221 151.84C350.421 152.013 350.755 152.1 351.221 152.1H352.621V154H350.821C349.795 154 349.008 153.76 348.461 153.28C347.915 152.8 347.641 152.02 347.641 150.94V144.84H346.341V142.98H347.641V140.24H349.941V142.98H352.621V144.84H349.941ZM355.883 141.52C355.469 141.52 355.123 141.38 354.843 141.1C354.563 140.82 354.423 140.473 354.423 140.06C354.423 139.647 354.563 139.3 354.843 139.02C355.123 138.74 355.469 138.6 355.883 138.6C356.283 138.6 356.623 138.74 356.903 139.02C357.183 139.3 357.323 139.647 357.323 140.06C357.323 140.473 357.183 140.82 356.903 141.1C356.623 141.38 356.283 141.52 355.883 141.52ZM357.003 142.98V154H354.723V142.98H357.003ZM364.256 151.96L367.376 142.98H369.796L365.596 154H362.876L358.696 142.98H361.136L364.256 151.96ZM376.3 154.18C375.26 154.18 374.32 153.947 373.48 153.48C372.64 153 371.98 152.333 371.5 151.48C371.02 150.613 370.78 149.613 370.78 148.48C370.78 147.36 371.026 146.367 371.52 145.5C372.013 144.633 372.686 143.967 373.54 143.5C374.393 143.033 375.346 142.8 376.4 142.8C377.453 142.8 378.406 143.033 379.26 143.5C380.113 143.967 380.786 144.633 381.28 145.5C381.773 146.367 382.02 147.36 382.02 148.48C382.02 149.6 381.766 150.593 381.26 151.46C380.753 152.327 380.06 153 379.18 153.48C378.313 153.947 377.353 154.18 376.3 154.18ZM376.3 152.2C376.886 152.2 377.433 152.06 377.94 151.78C378.46 151.5 378.88 151.08 379.2 150.52C379.52 149.96 379.68 149.28 379.68 148.48C379.68 147.68 379.526 147.007 379.22 146.46C378.913 145.9 378.506 145.48 378 145.2C377.493 144.92 376.946 144.78 376.36 144.78C375.773 144.78 375.226 144.92 374.72 145.2C374.226 145.48 373.833 145.9 373.54 146.46C373.246 147.007 373.1 147.68 373.1 148.48C373.1 149.667 373.4 150.587 374 151.24C374.613 151.88 375.38 152.2 376.3 152.2Z" fill="currentColor"/>
</svg>
