<svg width="40" height="37" viewBox="0 0 40 37" xmlns="http://www.w3.org/2000/svg">
<path fill-rule="evenodd" clip-rule="evenodd" d="M40 27.6129C39.9972 27.7014 39.9865 27.7897 39.968 27.8769C40.0162 28.0774 40.0089 28.2839 39.9467 28.4818C39.8845 28.6797 39.7688 28.864 39.608 29.0216C39.4473 29.1791 39.2453 29.306 39.0167 29.3931C38.7881 29.4803 38.5385 29.5255 38.2857 29.5255H6.28571C5.91051 29.5255 5.53898 29.5852 5.19233 29.7012C4.84569 29.8172 4.53072 29.9872 4.26541 30.2014C4.0001 30.4157 3.78964 30.6701 3.64606 30.9501C3.50247 31.2301 3.42857 31.5302 3.42857 31.8332C3.42857 32.1363 3.50247 32.4364 3.64606 32.7163C3.78964 32.9963 4.0001 33.2507 4.26541 33.465C4.53072 33.6793 4.84569 33.8493 5.19233 33.9653C5.53898 34.0812 5.91051 34.1409 6.28571 34.1409H38.2857C38.7404 34.1409 39.1764 34.2868 39.4979 34.5465C39.8194 34.8061 40 35.1583 40 35.5255C40 35.8928 39.8194 36.2449 39.4979 36.5046C39.1764 36.7643 38.7404 36.9102 38.2857 36.9102H6.28571C4.61864 36.9102 3.01984 36.3753 1.84104 35.4232C0.662243 34.4711 0 33.1797 0 31.8332V5.98708C0 4.6406 0.662243 3.34926 1.84104 2.39715C3.01984 1.44504 4.61864 0.910156 6.28571 0.910156H36.9143C38.6194 0.910156 40 2.02523 40 3.40246V27.6129ZM13.1429 8.29477C12.6882 8.29477 12.2522 8.44065 11.9307 8.70032C11.6092 8.95998 11.4286 9.31216 11.4286 9.67939C11.4286 10.0466 11.6092 10.3988 11.9307 10.6585C12.2522 10.9181 12.6882 11.064 13.1429 11.064H26.8571C27.3118 11.064 27.7478 10.9181 28.0693 10.6585C28.3908 10.3988 28.5714 10.0466 28.5714 9.67939C28.5714 9.31216 28.3908 8.95998 28.0693 8.70032C27.7478 8.44065 27.3118 8.29477 26.8571 8.29477H13.1429Z" fill="currentColor"/>
</svg>
