<?xml version="1.0" standalone="no"?>
<!DOCTYPE svg PUBLIC "-//W3C//DTD SVG 20010904//EN"
 "http://www.w3.org/TR/2001/REC-SVG-20010904/DTD/svg10.dtd">
<svg version="1.0" xmlns="http://www.w3.org/2000/svg"
 width="92.000000pt" height="92.000000pt" viewBox="0 0 92.000000 92.000000"
 preserveAspectRatio="xMidYMid meet">

<g transform="translate(0.000000,92.000000) scale(0.100000,-0.100000)"
fill="#000000" stroke="none">
<path d="M494 821 c-57 -26 -92 -75 -105 -147 -9 -52 -29 -88 -161 -286 -90
-136 -148 -233 -146 -245 3 -17 18 -18 228 -18 213 0 227 1 271 23 74 36 125
87 161 160 31 62 33 74 33 167 0 96 1 103 33 151 17 28 32 57 32 65 0 24 -22
39 -56 39 -24 0 -38 8 -58 35 -54 71 -149 94 -232 56z m111 -165 c0 -36 -26
-56 -49 -37 -16 14 -22 52 -9 65 4 4 19 6 33 4 20 -2 25 -8 25 -32z m-125
-176 c56 -56 -8 -126 -169 -181 -30 -11 -56 -17 -58 -15 -8 8 122 195 142 205
32 16 64 12 85 -9z"/>
</g>
</svg>
