<svg width="40" height="37" viewBox="0 0 40 37" xmlns="http://www.w3.org/2000/svg">
<path d="M32.2195 3.90669L35.1083 1.30892C35.2487 1.1825 35.4153 1.08222 35.5988 1.0138C35.7822 0.945374 35.9789 0.910156 36.1774 0.910156C36.376 0.910156 36.5726 0.945374 36.7561 1.0138C36.9395 1.08222 37.1062 1.1825 37.2466 1.30892L39.5551 3.38667C40.1483 3.92062 40.1483 4.77958 39.5551 5.31352L36.6688 7.91129L32.2195 3.90669ZM30.3959 5.54799L23.8702 11.4237L23.5348 11.1219C22.9204 10.5689 22.1687 10.1553 21.3417 9.91504C20.5147 9.67483 19.6361 9.61495 18.7784 9.74033C17.9207 9.86571 17.1083 10.1728 16.4083 10.6362C15.7083 11.0996 15.1407 11.7061 14.7522 12.4057L13.8778 13.9774C13.7252 14.2535 13.4757 14.4765 13.1679 14.6121C12.8602 14.7477 12.5114 14.7881 12.1755 14.7272L12.0259 14.6994C10.2513 14.3803 8.41264 14.5195 6.72215 15.1007C5.03167 15.6819 3.55827 16.6816 2.47203 17.9843C0.686945 20.1259 -0.179759 22.7752 0.0310952 25.4458C0.241949 28.1163 1.5162 30.6287 3.61983 32.5216L4.87597 33.6522C6.97905 35.5455 9.77049 36.6924 12.7376 36.8822C15.7047 37.0719 18.6483 36.2919 21.0277 34.6852C22.4751 33.7076 23.5858 32.3814 24.2316 30.8599C24.8774 29.3384 25.032 27.6836 24.6775 26.0864L24.6491 25.9494C24.5819 25.6477 24.6268 25.3345 24.7768 25.058C24.9269 24.7815 25.1739 24.5572 25.4797 24.4195L27.2259 23.6349C28.0037 23.2853 28.678 22.7744 29.1932 22.1441C29.7084 21.5139 30.0497 20.7824 30.189 20.0101C30.3284 19.2378 30.2617 18.4467 29.9945 17.7021C29.7273 16.9576 29.2672 16.2809 28.6522 15.7278L28.3169 15.426L34.8426 9.55259L30.3959 5.54799ZM16.4211 22.1305C16.1216 21.861 15.8841 21.5411 15.722 21.189C15.56 20.8368 15.4766 20.4594 15.4766 20.0783C15.4766 19.6972 15.56 19.3198 15.722 18.9677C15.8841 18.6155 16.1216 18.2956 16.4211 18.0261C16.7205 17.7566 17.076 17.5428 17.4672 17.397C17.8584 17.2511 18.2777 17.176 18.7012 17.176C19.1246 17.176 19.544 17.2511 19.9352 17.397C20.3264 17.5428 20.6819 17.7566 20.9813 18.0261C21.586 18.5704 21.9258 19.3086 21.9258 20.0783C21.9258 20.848 21.586 21.5862 20.9813 22.1305C20.3766 22.6748 19.5564 22.9806 18.7012 22.9806C17.846 22.9806 17.0258 22.6748 16.4211 22.1305Z" fill="currentColor"/>
</svg>