<svg width="40" height="37" viewBox="0 0 40 37" xmlns="http://www.w3.org/2000/svg">
<path d="M32.8975 23.2345C31.2993 24.3275 29.4637 24.9023 27.5934 24.8955C26.0265 24.8815 24.4774 24.521 23.0342 23.8344C21.9219 25.601 21.3266 27.7137 21.3311 29.8785V35.4071C21.3315 35.6127 21.2943 35.8162 21.2219 36.0049C21.1494 36.1937 21.0433 36.3637 20.91 36.5043C20.7767 36.645 20.6191 36.7533 20.447 36.8225C20.2749 36.8918 20.092 36.9205 19.9097 36.9069C19.567 36.8733 19.2483 36.6953 19.0175 36.4084C18.7866 36.1216 18.6607 35.7471 18.6649 35.3602V33.0281L12.2293 25.7879C11.2726 26.1894 10.2609 26.3994 9.23981 26.4084C7.83417 26.4123 6.45484 25.9796 5.25382 25.158C1.62276 22.6759 -0.331914 16.9636 0.0463563 9.87152C0.0654022 9.50461 0.203541 9.15834 0.434548 8.89845C0.665554 8.63856 0.973343 8.48315 1.29948 8.46172C7.60342 8.04366 12.6809 10.2352 14.8805 14.3202C15.7448 15.9214 16.122 17.7956 15.9554 19.6594C15.945 19.8038 15.8977 19.9418 15.8191 20.0566C15.7405 20.1714 15.6341 20.2581 15.5127 20.3063C15.3912 20.3545 15.26 20.362 15.1348 20.3281C15.0096 20.2942 14.8958 20.2201 14.8072 20.115L11.6078 16.3468C11.3557 16.0774 11.0201 15.9294 10.6725 15.9345C10.3249 15.9395 9.99272 16.097 9.74689 16.3736C9.50107 16.6502 9.36099 17.0238 9.35654 17.4149C9.35209 17.806 9.48361 18.1836 9.72307 18.4671L18.7016 28.8249C18.7116 28.6787 18.7232 28.5325 18.7366 28.3881C19.0281 25.6074 20.1187 23.0099 21.8427 20.9905L30.273 10.9682C30.5231 10.6871 30.6637 10.3056 30.6639 9.9078C30.664 9.50999 30.5237 9.1284 30.2738 8.84698C30.0239 8.56556 29.6848 8.40736 29.3312 8.40719C28.9776 8.40701 28.6384 8.56487 28.3883 8.84604L20.223 18.5608C20.1412 18.6582 20.0378 18.7292 19.9234 18.7664C19.8091 18.8036 19.6879 18.8057 19.5726 18.7724C19.4573 18.7391 19.352 18.6717 19.2677 18.5771C19.1834 18.4825 19.1231 18.3643 19.0932 18.2346C18.3033 14.9576 18.6516 11.6956 20.1597 8.89479C23.1358 3.36811 30.0613 0.409799 38.6865 0.979714C39.0127 1.00114 39.3205 1.15655 39.5515 1.41644C39.7825 1.67632 39.9206 2.02259 39.9397 2.3895C40.4396 12.0949 37.81 19.8863 32.8975 23.2345Z" fill="currentColor"/>
</svg>