<svg width="26" height="30" viewBox="0 0 26 30" fill="none" xmlns="http://www.w3.org/2000/svg">
<path d="M25.5 23.9762V25.3571H0.5V23.9762L3.27778 21.2143V12.9286C3.27778 8.64762 6.09722 4.87762 10.2222 3.66238V3.2619C10.2222 2.5294 10.5149 1.8269 11.0358 1.30894C11.5567 0.790985 12.2633 0.5 13 0.5C13.7367 0.5 14.4432 0.790985 14.9642 1.30894C15.4851 1.8269 15.7778 2.5294 15.7778 3.2619V3.66238C19.9028 4.87762 22.7222 8.64762 22.7222 12.9286V21.2143L25.5 23.9762ZM15.7778 26.7381C15.7778 27.4706 15.4851 28.1731 14.9642 28.6911C14.4432 29.209 13.7367 29.5 13 29.5C12.2633 29.5 11.5567 29.209 11.0358 28.6911C10.5149 28.1731 10.2222 27.4706 10.2222 26.7381" fill="#372F30"/>
</svg>
