<svg width="40" height="37" viewBox="0 0 40 37" xmlns="http://www.w3.org/2000/svg">
<path d="M40 15.1461C40 16.1835 39.7068 17.1975 39.1573 18.06C38.6079 18.9225 37.827 19.5948 36.9134 19.9917C35.9998 20.3887 34.9945 20.4926 34.0246 20.2902C33.0546 20.0878 32.1637 19.5883 31.4645 18.8548C30.7652 18.1213 30.289 17.1868 30.0961 16.1694C29.9031 15.152 30.0022 14.0974 30.3806 13.139C30.759 12.1807 31.3999 11.3615 32.2221 10.7852C33.0444 10.2089 34.0111 9.90131 35 9.90131C36.3261 9.90131 37.5979 10.4539 38.5355 11.4375C39.4732 12.4211 40 13.7551 40 15.1461ZM10 15.1461C10 14.1088 9.70676 13.0948 9.15735 12.2323C8.60794 11.3698 7.82705 10.6975 6.91342 10.3005C5.99979 9.90357 4.99446 9.79971 4.02455 10.0021C3.05465 10.2045 2.16373 10.704 1.46447 11.4375C0.765206 12.171 0.289002 13.1055 0.0960758 14.1229C-0.0968503 15.1403 0.00216642 16.1949 0.380605 17.1533C0.759043 18.1116 1.39991 18.9308 2.22215 19.5071C3.0444 20.0834 4.0111 20.391 5 20.391C6.32608 20.391 7.59785 19.8384 8.53553 18.8548C9.47322 17.8712 10 16.5372 10 15.1461ZM13.5714 11.3998C14.5603 11.3998 15.527 11.0922 16.3493 10.5159C17.1715 9.93961 17.8124 9.12047 18.1908 8.16211C18.5693 7.20374 18.6683 6.14918 18.4754 5.13178C18.2824 4.11438 17.8062 3.17984 17.107 2.44634C16.4077 1.71283 15.5168 1.21331 14.5469 1.01094C13.577 0.808564 12.5716 0.912429 11.658 1.3094C10.7444 1.70637 9.96349 2.37861 9.41408 3.24112C8.86467 4.10363 8.57143 5.11766 8.57143 6.15499C8.57143 7.54601 9.09821 8.88006 10.0359 9.86365C10.9736 10.8473 12.2453 11.3998 13.5714 11.3998ZM26.4286 11.3998C27.4175 11.3998 28.3842 11.0922 29.2064 10.5159C30.0287 9.93961 30.6695 9.12047 31.048 8.16211C31.4264 7.20374 31.5254 6.14918 31.3325 5.13178C31.1396 4.11438 30.6634 3.17984 29.9641 2.44634C29.2648 1.71283 28.3739 1.21331 27.404 1.01094C26.4341 0.808564 25.4288 0.912429 24.5152 1.3094C23.6015 1.70637 22.8206 2.37861 22.2712 3.24112C21.7218 4.10363 21.4286 5.11766 21.4286 6.15499C21.4286 7.54601 21.9554 8.88006 22.893 9.86365C23.8307 10.8473 25.1025 11.3998 26.4286 11.3998ZM30.5571 22.7999C29.8315 22.3799 29.1919 21.8141 28.675 21.1346C28.1581 20.4551 27.774 19.6754 27.5446 18.84C27.0697 17.1265 26.0773 15.621 24.7168 14.5498C23.3563 13.4786 21.7011 12.8994 20 12.8994C18.2989 12.8994 16.6437 13.4786 15.2832 14.5498C13.9227 15.621 12.9304 17.1265 12.4554 18.84C11.9965 20.5209 10.9209 21.9423 9.46429 22.7924C8.067 23.5855 6.96166 24.8446 6.32309 26.3705C5.68451 27.8965 5.54916 29.6023 5.93844 31.218C6.32771 32.8337 7.21939 34.2672 8.47245 35.2917C9.72551 36.3162 11.2684 36.8733 12.8571 36.8747C13.8092 36.8776 14.752 36.6782 15.6286 36.2884C18.4233 35.0794 21.5606 35.0794 24.3554 36.2884C26.0481 37.0607 27.9602 37.1156 29.6907 36.4415C31.4212 35.7674 32.8357 34.4168 33.6377 32.6728C34.4396 30.9287 34.5668 28.9267 33.9925 27.0865C33.4182 25.2462 32.1871 23.7107 30.5571 22.8017V22.7999Z" fill="currentColor"/>
</svg>