<svg width="30" height="30" viewBox="0 0 30 30" fill="none" xmlns="http://www.w3.org/2000/svg">
<path d="M29.995 18.7037H30V23.1825C29.8726 23.0898 29.7511 22.9892 29.6362 22.8813C28.8137 22.0525 27.46 21.305 25.9575 21.29L25.9188 21.2913C25.7663 21.2913 25.6112 21.2962 25.455 21.3112C24.4337 21.4137 23.3675 21.8738 22.3662 22.8813C20.66 24.6 19.0737 23.3088 18.6337 22.8813C17.1737 21.4088 14.035 20.1938 11.3663 22.8813C9.66 24.6 8.0725 23.3088 7.635 22.8813C6.81125 22.0513 5.45625 21.305 3.95375 21.29C2.78625 21.2762 1.52875 21.7062 0.3625 22.8813C0.24125 23.005 0.12125 23.08 0 23.1737V18.7037H0.00500023C0.0125002 18.39 0.13 18.08 0.36625 17.8412C1.89125 16.305 3.57 16.0462 5 16.38V3.75C5 3.41848 4.8683 3.10054 4.63388 2.86612C4.39946 2.6317 4.08152 2.5 3.75 2.5C3.41848 2.5 3.10054 2.6317 2.86612 2.86612C2.6317 3.10054 2.5 3.41848 2.5 3.75C2.5 4.08152 2.3683 4.39946 2.13388 4.63388C1.89946 4.8683 1.58152 5 1.25 5C0.918479 5 0.600537 4.8683 0.366117 4.63388C0.131696 4.39946 0 4.08152 0 3.75C0 1.68125 1.6825 0 3.75 0C5.81875 0 7.5 1.68125 7.5 3.75V6.25H16.25V3.75C16.25 3.41848 16.1183 3.10054 15.8839 2.86612C15.6495 2.6317 15.3315 2.5 15 2.5C14.6685 2.5 14.3505 2.6317 14.1161 2.86612C13.8817 3.10054 13.75 3.41848 13.75 3.75C13.75 4.08152 13.6183 4.39946 13.3839 4.63388C13.1495 4.8683 12.8315 5 12.5 5C12.1685 5 11.8505 4.8683 11.6161 4.63388C11.3817 4.39946 11.25 4.08152 11.25 3.75C11.25 1.68125 12.9325 0 15 0C17.0688 0 18.75 1.68125 18.75 3.75V17.9425C19.07 18.2288 19.7 18.6875 20.5025 18.7037H20.5912C21.1337 18.6912 21.7412 18.4713 22.3662 17.8412C25.0325 15.1562 28.1712 16.3675 29.6337 17.8412C29.8712 18.08 29.9875 18.39 29.995 18.7037ZM11.3663 17.8412C12.9813 16.215 14.7675 16.0225 16.25 16.4475V15H7.5V17.7162C7.54375 17.7588 7.5925 17.8 7.635 17.8412C7.9025 18.1038 8.60625 18.6862 9.5025 18.7037H9.59125C10.1337 18.6912 10.7413 18.4713 11.3663 17.8412ZM7.5 12.5H16.25V8.75H7.5V12.5ZM27.8725 24.6338L27.8825 24.64C27.995 24.7525 28.7925 25.5212 30 25.9525V30H0V25.985C0.80065 25.7092 1.52517 25.2489 2.115 24.6412C2.12 24.635 2.1275 24.6337 2.13375 24.6275C2.55875 24.1937 2.97625 23.95 3.37125 23.8337C4.55625 23.49 5.53375 24.3013 5.86875 24.6338C5.87375 24.6388 5.88125 24.64 5.885 24.645C6.01 24.7675 6.82875 25.5625 8.07375 25.985C9.87625 26.6 11.6737 26.1162 13.1337 24.6275C14.8412 22.89 16.4287 24.1937 16.8662 24.6275C16.9587 24.72 17.7987 25.5525 19.0737 25.985C19.5837 26.16 20.0925 26.2437 20.595 26.2437C21.8625 26.2437 23.08 25.6975 24.125 24.635C24.1287 24.6313 24.1325 24.6312 24.1375 24.6275C24.35 24.41 24.56 24.24 24.7675 24.1112C26.2175 23.2062 27.4813 24.2463 27.8725 24.6338Z" fill="#574A4D"/>
</svg>
