<svg width="38" height="38" viewBox="0 0 38 38" fill="none" xmlns="http://www.w3.org/2000/svg">
<path d="M35.8889 33.7778H33.7778V4.22222C33.7778 3.06111 32.8278 2.11111 31.6667 2.11111H23.2222C23.2222 0.95 22.2722 0 21.1111 0H6.33333C5.17222 0 4.22222 0.95 4.22222 2.11111V33.7778H2.11111C0.95 33.7778 0 34.7278 0 35.8889C0 37.05 0.95 38 2.11111 38H21.1111C22.2722 38 23.2222 37.05 23.2222 35.8889V6.33333H29.5556V35.8889C29.5556 37.05 30.5056 38 31.6667 38H35.8889C37.05 38 38 37.05 38 35.8889C38 34.7278 37.05 33.7778 35.8889 33.7778ZM16.8889 21.1111C15.7278 21.1111 14.7778 20.1611 14.7778 19C14.7778 17.8389 15.7278 16.8889 16.8889 16.8889C18.05 16.8889 19 17.8389 19 19C19 20.1611 18.05 21.1111 16.8889 21.1111Z" fill="#574A4D"/>
</svg>
