<svg width="40" height="37" viewBox="0 0 40 37" xmlns="http://www.w3.org/2000/svg">
<path d="M33.6769 2.45858C32.2388 1.69985 30.6511 1.20733 29.0047 1.00914C27.3582 0.810962 25.6851 0.910997 24.0809 1.30354C22.4768 1.69608 20.973 2.37344 19.6554 3.29694C18.3378 4.22043 17.2323 5.37198 16.4019 6.68582L15.9265 7.4391C15.7657 7.69353 15.7222 7.99589 15.8054 8.27968C15.8886 8.56346 16.0919 8.80541 16.3704 8.95231L25.6687 13.8575L20.5733 22.004C20.1839 21.9713 19.793 21.9551 19.4019 21.9553C14.583 21.9553 10.3921 24.4478 7.67831 28.0547L7.76804 28.0502C8.55697 28.0213 9.33479 28.2277 9.98405 28.6381C10.6333 29.0486 11.1187 29.6409 11.3671 30.3256C12.2111 32.6563 15.2038 32.4924 15.9605 30.4807C16.2063 29.8253 16.6702 29.2566 17.2872 28.8539C17.9042 28.4512 18.6436 28.2347 19.4019 28.2347C20.1602 28.2347 20.8996 28.4512 21.5166 28.8539C22.1336 29.2566 22.5975 29.8253 22.8433 30.4807C23.5976 32.4924 26.5927 32.6563 27.4367 30.3256C27.6898 29.628 28.1889 29.0267 28.8559 28.6158C29.5229 28.2049 30.3202 28.0075 31.1231 28.0547C29.1295 25.4027 26.3381 23.3555 23.0834 22.456L27.769 14.9653L36.1724 19.3963C36.451 19.5432 36.7819 19.583 37.0926 19.507C37.4032 19.431 37.6681 19.2453 37.8289 18.9909L38.3066 18.2376C39.983 15.5843 40.437 12.4313 39.5688 9.4722C38.7006 6.51309 36.5812 3.99024 33.6769 2.45858ZM9.06554 31.0213C8.98243 30.7933 8.82048 30.5963 8.60409 30.4598C8.3877 30.3233 8.1286 30.2548 7.86585 30.2645C7.60311 30.2743 7.35095 30.3618 7.14739 30.5139C6.94383 30.6659 6.79991 30.8743 6.73731 31.1077C6.32502 32.6452 5.5441 33.4894 4.65403 33.9812C3.72274 34.493 2.5368 34.6924 1.21262 34.6924C0.891013 34.6924 0.582578 34.8091 0.355168 35.0169C0.127758 35.2246 0 35.5064 0 35.8002C0 36.094 0.127758 36.3757 0.355168 36.5835C0.582578 36.7912 0.891013 36.9079 1.21262 36.9079C2.75992 36.9079 4.44546 36.682 5.90788 35.8777C6.77963 35.3966 7.5143 34.7338 8.05179 33.9436C10.9451 37.3134 16.5935 37.2979 19.4019 33.9081C22.2564 37.351 28.0358 37.3134 30.8854 33.7818C31.6592 34.7444 32.6684 35.5285 33.8327 36.0717C34.9969 36.6148 36.284 36.9019 37.5912 36.9102C37.9128 36.9102 38.2212 36.7934 38.4487 36.5857C38.6761 36.378 38.8038 36.0962 38.8038 35.8024C38.8038 35.5086 38.6761 35.2268 38.4487 35.0191C38.2212 34.8113 37.9128 34.6946 37.5912 34.6946C35.2072 34.6946 32.8305 33.2767 32.0447 31.0346C31.9662 30.8125 31.813 30.6188 31.607 30.481C31.4009 30.3432 31.1525 30.2683 30.8971 30.2671C30.6417 30.2659 30.3924 30.3383 30.1848 30.4742C29.9771 30.61 29.8217 30.8022 29.7407 31.0235C28.1813 35.3194 22.0769 35.264 20.549 31.2007C20.4671 30.9823 20.3125 30.7927 20.1068 30.6584C19.9011 30.5242 19.6547 30.4521 19.4019 30.4521C19.1491 30.4521 18.9027 30.5242 18.697 30.6584C18.4913 30.7927 18.3367 30.9823 18.2548 31.2007C16.7269 35.264 10.6225 35.3194 9.06312 31.0235" fill="currentColor"/>
</svg>
