<svg width="372" height="342" viewBox="0 0 372 342" fill="none" xmlns="http://www.w3.org/2000/svg">
<path d="M330.277 245.785H195.829C194.673 245.783 193.565 245.23 192.748 244.249C191.931 243.267 191.471 241.936 191.469 240.548V5.23756C191.473 3.85077 191.934 2.52226 192.75 1.54249C193.567 0.562718 194.674 0.0113877 195.829 0.0090332H330.277C331.431 0.0113877 332.538 0.562718 333.355 1.54249C334.172 2.52226 334.633 3.85077 334.637 5.23756V240.548C334.635 241.936 334.175 243.267 333.358 244.249C332.54 245.23 331.433 245.783 330.277 245.785ZM195.829 0.232474C195.279 0.227762 194.733 0.353677 194.224 0.602985C193.715 0.852294 193.251 1.22008 192.861 1.6852C192.47 2.15031 192.16 2.70359 191.948 3.31323C191.736 3.92286 191.626 4.57684 191.625 5.23756V240.548C191.625 241.878 192.065 243.153 192.847 244.093C193.63 245.034 194.692 245.562 195.799 245.562H330.277C331.384 245.562 332.445 245.034 333.228 244.093C334.011 243.153 334.451 241.878 334.451 240.548V5.23756C334.451 3.90775 334.011 2.63242 333.228 1.69211C332.445 0.7518 331.384 0.223535 330.277 0.223535L195.829 0.232474Z" fill="#F5F5F5"/>
<path d="M175.205 245.785H40.727C39.5713 245.783 38.4635 245.23 37.6463 244.249C36.8291 243.267 36.3692 241.936 36.3672 240.548V5.23746C36.3692 3.84913 36.8291 2.51833 37.6463 1.53663C38.4635 0.554926 39.5713 0.00236313 40.727 0H175.205C176.361 0.00236313 177.469 0.554926 178.286 1.53663C179.103 2.51833 179.563 3.84913 179.565 5.23746V240.548C179.563 241.936 179.103 243.267 178.286 244.249C177.469 245.23 176.361 245.783 175.205 245.785ZM40.727 0.232381C39.6213 0.232379 38.5608 0.759414 37.7783 1.69779C36.9958 2.63617 36.5552 3.90921 36.5532 5.23746V240.548C36.5532 241.878 36.9929 243.153 37.7757 244.093C38.5584 245.034 39.6201 245.562 40.727 245.562H175.205C176.312 245.562 177.374 245.034 178.156 244.093C178.939 243.153 179.379 241.878 179.379 240.548V5.23746C179.379 3.90766 178.939 2.63233 178.156 1.69202C177.374 0.751706 176.312 0.223441 175.205 0.223441L40.727 0.232381Z" fill="#F5F5F5"/>
<path d="M372 300.366H0V300.59H372V300.366Z" fill="#F5F5F5"/>
<path d="M167.512 176.169V23.9604L115.774 23.9604V176.169H167.512Z" fill="#E6E6E6"/>
<path d="M164.669 27.3765H118.608V172.756H164.669V27.3765Z" fill="#F5F5F5"/>
<path d="M164.669 38.0398V49.3996L118.608 104.733V93.3638L164.669 38.0398Z" fill="#FAFAFA"/>
<path d="M164.669 78.686V100.369L118.608 155.711V134.019L164.669 78.686Z" fill="#FAFAFA"/>
<path d="M143.361 23.9604H139.932V176.169H143.361V23.9604Z" fill="#E6E6E6"/>
<path d="M167.586 98.2522H115.707V101.89H167.586V98.2522Z" fill="#E6E6E6"/>
<path d="M253.072 176.169V23.9604L201.335 23.9604V176.169H253.072Z" fill="#E6E6E6"/>
<path d="M250.237 27.3765H204.176V172.756H250.237V27.3765Z" fill="#F5F5F5"/>
<path d="M250.236 38.0398V49.3996L204.168 104.733V93.3638L250.236 38.0398Z" fill="#FAFAFA"/>
<path d="M250.236 78.686V100.369L204.168 155.711V134.019L250.236 78.686Z" fill="#FAFAFA"/>
<path d="M228.922 23.9604H225.492V176.169H228.922V23.9604Z" fill="#E6E6E6"/>
<path d="M253.146 98.2522H201.267V101.89H253.146V98.2522Z" fill="#E6E6E6"/>
<path d="M329.831 24.7578H264.031V54.5381H329.831V24.7578Z" fill="#F0F0F0"/>
<path d="M326.854 50.9636V28.3335L267.007 28.3335V50.9636H326.854Z" fill="#E0E0E0"/>
<path d="M272.244 50.9623H277.943C278.828 50.2318 279.494 49.1806 279.846 47.9624C280.197 46.7442 280.215 45.4228 279.897 44.1915C279.579 42.9602 278.941 41.8836 278.076 41.119C277.212 40.3543 276.167 39.9419 275.094 39.9419C274.021 39.9419 272.975 40.3543 272.111 41.119C271.247 41.8836 270.609 42.9602 270.291 44.1915C269.972 45.4228 269.99 46.7442 270.342 47.9624C270.693 49.1806 271.36 50.2318 272.244 50.9623Z" fill="#FAFAFA"/>
<path d="M275.414 37.45H274.767V41.4987H275.414V37.45Z" fill="#FAFAFA"/>
<path d="M276.946 36.2068H273.241V37.5921H276.946V36.2068Z" fill="#FAFAFA"/>
<path d="M284.089 36.2068H289.238C289.583 36.2068 289.914 36.3716 290.158 36.6649C290.402 36.9582 290.54 37.3561 290.54 37.7709V50.9628H282.787V37.7709C282.787 37.3561 282.924 36.9582 283.168 36.6649C283.413 36.3716 283.744 36.2068 284.089 36.2068Z" fill="#FAFAFA"/>
<path d="M286.991 33.3987H286.344V37.4474H286.991V33.3987Z" fill="#FAFAFA"/>
<path d="M288.516 32.1587H284.811V33.544H288.516V32.1587Z" fill="#FAFAFA"/>
<path d="M301.097 50.9629H297.272L297.496 48.0314L297.689 45.4484L297.994 41.489H300.382L300.68 45.4484L300.873 48.0314L301.097 50.9629Z" fill="#FAFAFA"/>
<path d="M300.68 45.4468L300.874 48.0298H297.496L297.69 45.4468H300.68Z" fill="#F0F0F0"/>
<path d="M305.375 50.9629H301.551L301.774 48.0314L301.967 45.4484L302.272 41.489H304.661L304.958 45.4484L305.152 48.0314L305.375 50.9629Z" fill="#FAFAFA"/>
<path d="M305.151 48.0298H301.773L301.967 45.4468H304.958L305.151 48.0298Z" fill="#F0F0F0"/>
<path d="M310.263 50.9629H319.191C320.084 50.5161 320.634 49.9441 320.634 49.3095C320.634 47.9241 317.993 46.7891 314.742 46.7891C311.49 46.7891 308.857 47.9241 308.857 49.3095C308.827 49.9262 309.37 50.5161 310.263 50.9629Z" fill="#FAFAFA"/>
<path d="M311.208 47.7637H318.216C318.923 47.4151 319.354 46.9593 319.354 46.4677C319.354 45.3684 317.279 44.4746 314.712 44.4746C312.145 44.4746 310.069 45.3684 310.069 46.4677C310.069 46.9593 310.501 47.4151 311.208 47.7637Z" fill="#FAFAFA"/>
<path d="M312.309 44.8036H317.1C317.584 44.5622 317.844 44.2494 317.844 43.9098C317.844 43.159 316.423 42.5513 314.667 42.5513C312.911 42.5513 311.49 43.159 311.49 43.9098C311.535 44.2494 311.832 44.5622 312.309 44.8036Z" fill="#FAFAFA"/>
<path d="M73.1501 43.8198H66.9229L67.3469 38.1981L67.6297 34.4442L68.0909 28.3845H71.9821L72.4433 34.4442L72.7261 38.1981L73.1501 43.8198Z" fill="#E6E6E6"/>
<path d="M72.4431 34.4463L72.7258 38.2001H67.3467L67.6294 34.4463H72.4431Z" fill="#F0F0F0"/>
<path d="M80.1208 43.8198H73.8936L74.3176 38.1981L74.6004 34.4442L75.0616 28.3845H78.9528L79.414 34.4442L79.6968 38.1981L80.1208 43.8198Z" fill="#E6E6E6"/>
<path d="M79.6975 38.2001H74.3184L74.6011 34.4463H79.4148L79.6975 38.2001Z" fill="#F0F0F0"/>
<path d="M56.8797 25.9016H56.0762V30.9246H56.8797V25.9016Z" fill="#E6E6E6"/>
<path d="M58.776 24.3635H54.1855V26.0796H58.776V24.3635Z" fill="#E6E6E6"/>
<path d="M52.7348 43.8216H60.2343C61.4606 42.8524 62.394 41.434 62.8959 39.777C63.3977 38.12 63.4414 36.3127 63.0203 34.6235C62.5993 32.9343 61.7359 31.4533 60.5585 30.4004C59.3811 29.3475 57.9524 28.7788 56.4846 28.7788C55.0168 28.7788 53.5881 29.3475 52.4107 30.4004C51.2333 31.4533 50.3699 32.9343 49.9489 34.6235C49.5278 36.3127 49.5714 38.12 50.0733 39.777C50.5752 41.434 51.5086 42.8524 52.7348 43.8216Z" fill="#E6E6E6"/>
<path d="M100.998 38.9668H86.7656V43.6591H100.998V38.9668Z" fill="#E6E6E6"/>
<path d="M103.223 43.8215H43.8145V51.2487H103.223V43.8215Z" fill="#F0F0F0"/>
<path d="M48.5605 51.2495L51.2761 58.6231H55.2937V51.2495H48.5605Z" fill="#E6E6E6"/>
<path d="M98.4832 51.2495L95.7676 58.6231H91.75V51.2495H98.4832Z" fill="#E6E6E6"/>
<path d="M313.827 272.615H274.945C274.726 272.616 274.508 272.565 274.305 272.465C274.102 272.365 273.918 272.218 273.762 272.032C273.607 271.846 273.483 271.625 273.399 271.381C273.315 271.138 273.271 270.877 273.271 270.613C273.271 270.08 273.448 269.568 273.762 269.191C274.076 268.814 274.502 268.602 274.945 268.602H313.827C314.271 268.602 314.697 268.814 315.011 269.191C315.325 269.568 315.501 270.08 315.501 270.613C315.501 270.877 315.458 271.138 315.373 271.381C315.289 271.625 315.166 271.846 315.01 272.032C314.855 272.218 314.67 272.365 314.467 272.465C314.264 272.565 314.046 272.616 313.827 272.615Z" fill="#E0E0E0"/>
<path d="M313.73 224.085H275.131C274.49 224.085 273.971 224.709 273.971 225.48V231.182C273.971 231.952 274.49 232.576 275.131 232.576H313.73C314.371 232.576 314.891 231.952 314.891 231.182V225.48C314.891 224.709 314.371 224.085 313.73 224.085Z" fill="#F0F0F0"/>
<path d="M293.954 200.284H289.915C289.915 200.284 269.871 150.76 275.31 143.083C282.326 133.251 291.432 161.396 293.954 200.284Z" fill="#F0F0F0"/>
<path d="M292.682 200.284H292.02L279.282 150.144C279.27 150.096 279.265 150.046 279.269 149.996C279.272 149.947 279.284 149.898 279.304 149.854C279.323 149.81 279.35 149.771 279.382 149.739C279.414 149.708 279.451 149.684 279.491 149.67C279.53 149.655 279.572 149.649 279.613 149.654C279.655 149.658 279.695 149.672 279.732 149.696C279.768 149.719 279.801 149.751 279.827 149.789C279.853 149.828 279.873 149.872 279.885 149.92L292.682 200.284Z" fill="#E0E0E0"/>
<path d="M296.336 200.284H300.383C300.383 200.284 320.427 150.76 314.988 143.083C307.972 133.251 298.866 161.396 296.336 200.284Z" fill="#F0F0F0"/>
<path d="M297.615 200.283H298.27L311.015 150.143C311.032 150.048 311.019 149.95 310.978 149.866C310.938 149.783 310.872 149.721 310.795 149.693C310.719 149.665 310.636 149.672 310.563 149.714C310.491 149.756 310.434 149.829 310.405 149.919L297.615 200.283Z" fill="#E0E0E0"/>
<path d="M297.533 200.283H293.955C286.046 154.701 289.208 116.609 297.221 123.768C305.234 130.927 297.533 200.283 297.533 200.283Z" fill="#F0F0F0"/>
<path d="M295.435 133.045L295.011 200.301H294.379L294.781 133.045C294.783 132.945 294.817 132.85 294.877 132.779C294.937 132.709 295.017 132.67 295.101 132.67C295.144 132.665 295.187 132.671 295.228 132.688C295.269 132.704 295.307 132.731 295.339 132.767C295.37 132.802 295.395 132.845 295.412 132.894C295.429 132.942 295.437 132.993 295.435 133.045Z" fill="#E0E0E0"/>
<path d="M313.425 199.767L312.897 201.438L312.569 202.493L311.617 205.523L311.29 206.577L310.315 209.687L309.98 210.742L305.799 224.086H282.943L278.762 210.742L278.434 209.687L277.46 206.577L277.125 205.523L276.18 202.493L275.853 201.438L275.332 199.767C275.256 199.502 275.233 199.219 275.265 198.942C275.297 198.664 275.382 198.4 275.515 198.169C275.647 197.939 275.823 197.749 276.028 197.615C276.232 197.481 276.46 197.407 276.694 197.398H312.071C312.303 197.408 312.53 197.483 312.734 197.618C312.938 197.752 313.113 197.942 313.244 198.173C313.376 198.403 313.461 198.667 313.492 198.944C313.524 199.221 313.501 199.503 313.425 199.767Z" fill="#E0E0E0"/>
<path d="M288.747 232.576L287.571 237.125L271.211 300.484H268.012L278.391 238.421L279.373 232.576H288.747Z" fill="#E6E6E6"/>
<path d="M320.938 300.484H317.739L300.895 235.248L300.203 232.576H309.578L309.816 233.988L320.938 300.484Z" fill="#E6E6E6"/>
<path d="M313.827 263.884H274.945C274.502 263.884 274.076 263.672 273.762 263.295C273.448 262.918 273.271 262.406 273.271 261.873C273.271 261.609 273.315 261.348 273.399 261.105C273.483 260.861 273.607 260.64 273.762 260.454C273.918 260.268 274.102 260.121 274.305 260.021C274.508 259.921 274.726 259.87 274.945 259.871H313.827C314.046 259.87 314.264 259.921 314.467 260.021C314.67 260.121 314.855 260.268 315.01 260.454C315.166 260.64 315.289 260.861 315.373 261.105C315.458 261.348 315.501 261.609 315.501 261.873C315.501 262.406 315.325 262.918 315.011 263.295C314.697 263.672 314.271 263.884 313.827 263.884Z" fill="#F0F0F0"/>
<path d="M188.285 341.149C273.67 341.149 342.888 338.216 342.888 334.598C342.888 330.98 273.67 328.047 188.285 328.047C102.9 328.047 33.6816 330.98 33.6816 334.598C33.6816 338.216 102.9 341.149 188.285 341.149Z" fill="#F5F5F5"/>
<path d="M326.051 103.408H266.643V110.835H326.051V103.408Z" fill="url(#paint0_linear_2277_6222)"/>
<path d="M271.389 110.836L274.104 118.21H278.114V110.836H271.389Z" fill="url(#paint1_linear_2277_6222)"/>
<path opacity="0.3" d="M271.389 110.836L274.104 118.21H278.114V110.836H271.389Z" fill="black"/>
<path d="M321.305 110.836L318.589 118.21H314.579V110.836H321.305Z" fill="url(#paint2_linear_2277_6222)"/>
<path opacity="0.3" d="M321.305 110.836L318.589 118.21H314.579V110.836H321.305Z" fill="black"/>
<path d="M276.128 89.5635H295.13C295.463 89.5635 295.793 89.6423 296.101 89.7955C296.409 89.9486 296.688 90.1731 296.924 90.4561C297.16 90.7391 297.346 91.0751 297.474 91.4449C297.601 91.8147 297.667 92.211 297.667 92.6112V100.467C297.667 101.277 297.4 102.053 296.924 102.626C296.449 103.199 295.804 103.522 295.13 103.524H275.883C275.427 103.522 274.991 103.303 274.67 102.917C274.348 102.53 274.166 102.006 274.164 101.459V96.4008C274.166 95.8539 274.348 95.3302 274.67 94.9435C274.991 94.5568 275.427 94.3385 275.883 94.3362L275.369 94.077C275.013 93.8976 274.708 93.5958 274.494 93.2095C274.28 92.8232 274.165 92.3694 274.164 91.9051C274.168 91.2824 274.377 90.6869 274.745 90.2482C275.113 89.8096 275.61 89.5635 276.128 89.5635Z" fill="url(#paint3_linear_2277_6222)"/>
<path opacity="0.4" d="M276.128 89.5635H295.13C295.463 89.5635 295.793 89.6423 296.101 89.7955C296.409 89.9486 296.688 90.1731 296.924 90.4561C297.16 90.7391 297.346 91.0751 297.474 91.4449C297.601 91.8147 297.667 92.211 297.667 92.6112V100.467C297.667 101.277 297.4 102.053 296.924 102.626C296.449 103.199 295.804 103.522 295.13 103.524H275.883C275.427 103.522 274.991 103.303 274.67 102.917C274.348 102.53 274.166 102.006 274.164 101.459V96.4008C274.166 95.8539 274.348 95.3302 274.67 94.9435C274.991 94.5568 275.427 94.3385 275.883 94.3362L275.369 94.077C275.013 93.8976 274.708 93.5958 274.494 93.2095C274.28 92.8232 274.165 92.3694 274.164 91.9051C274.168 91.2824 274.377 90.6869 274.745 90.2482C275.113 89.8096 275.61 89.5635 276.128 89.5635Z" fill="white"/>
<path opacity="0.2" d="M292.549 100.87H278.487C277.998 100.834 277.538 100.574 277.202 100.145C276.867 99.7159 276.68 99.149 276.68 98.56C276.68 97.9709 276.867 97.404 277.202 96.9748C277.538 96.5455 277.998 96.2862 278.487 96.2496H291.224C291.261 96.242 291.298 96.2441 291.333 96.2556C291.369 96.2672 291.402 96.2879 291.43 96.3165C291.459 96.345 291.481 96.3806 291.497 96.4208C291.512 96.4609 291.52 96.5047 291.52 96.549C291.52 96.5933 291.512 96.6371 291.497 96.6772C291.481 96.7174 291.459 96.753 291.43 96.7815C291.402 96.81 291.369 96.8308 291.333 96.8423C291.298 96.8539 291.261 96.856 291.224 96.8484H278.494C278.134 96.8797 277.797 97.0736 277.552 97.3911C277.306 97.7087 277.169 98.1263 277.169 98.56C277.169 98.9936 277.306 99.4113 277.552 99.7288C277.797 100.046 278.134 100.24 278.494 100.272H292.549C292.926 100.269 293.288 100.087 293.554 99.7658C293.82 99.4442 293.97 99.0091 293.97 98.5555V94.4531C293.971 94.2282 293.935 94.0052 293.864 93.7971C293.793 93.5889 293.688 93.3997 293.556 93.2402C293.424 93.0808 293.267 92.9542 293.094 92.8679C292.921 92.7815 292.736 92.7371 292.549 92.7371H277.371C277.335 92.7446 277.297 92.7426 277.262 92.731C277.226 92.7195 277.193 92.6987 277.165 92.6702C277.137 92.6417 277.114 92.6061 277.098 92.5659C277.083 92.5257 277.075 92.482 277.075 92.4377C277.075 92.3934 277.083 92.3496 277.098 92.3094C277.114 92.2693 277.137 92.2337 277.165 92.2052C277.193 92.1766 277.226 92.1559 277.262 92.1443C277.297 92.1328 277.335 92.1307 277.371 92.1383H292.549C293.057 92.1406 293.544 92.3843 293.904 92.8162C294.263 93.2482 294.466 93.8333 294.468 94.4442V98.5465C294.469 98.8505 294.42 99.1518 294.324 99.4331C294.228 99.7144 294.087 99.9702 293.909 100.186C293.731 100.402 293.519 100.573 293.285 100.691C293.052 100.808 292.802 100.869 292.549 100.87Z" fill="black"/>
<path d="M299.632 89.5635H318.626C319.299 89.5635 319.945 89.8846 320.42 90.4561C320.896 91.0277 321.163 91.8029 321.163 92.6112V100.467C321.164 100.868 321.1 101.266 320.973 101.636C320.845 102.007 320.659 102.344 320.423 102.628C320.187 102.912 319.907 103.138 319.599 103.291C319.291 103.445 318.96 103.524 318.626 103.524H299.387C298.931 103.524 298.494 103.307 298.171 102.919C297.849 102.532 297.668 102.007 297.668 101.459V96.4008C297.668 95.8532 297.849 95.3281 298.171 94.9409C298.494 94.5537 298.931 94.3362 299.387 94.3362L298.873 94.077C298.517 93.8976 298.212 93.5958 297.998 93.2095C297.783 92.8232 297.669 92.3694 297.668 91.9051C297.672 91.2824 297.881 90.6869 298.248 90.2482C298.616 89.8096 299.114 89.5635 299.632 89.5635Z" fill="url(#paint4_linear_2277_6222)"/>
<path opacity="0.5" d="M299.632 89.5635H318.626C319.299 89.5635 319.945 89.8846 320.42 90.4561C320.896 91.0277 321.163 91.8029 321.163 92.6112V100.467C321.164 100.868 321.1 101.266 320.973 101.636C320.845 102.007 320.659 102.344 320.423 102.628C320.187 102.912 319.907 103.138 319.599 103.291C319.291 103.445 318.96 103.524 318.626 103.524H299.387C298.931 103.524 298.494 103.307 298.171 102.919C297.849 102.532 297.668 102.007 297.668 101.459V96.4008C297.668 95.8532 297.849 95.3281 298.171 94.9409C298.494 94.5537 298.931 94.3362 299.387 94.3362L298.873 94.077C298.517 93.8976 298.212 93.5958 297.998 93.2095C297.783 92.8232 297.669 92.3694 297.668 91.9051C297.672 91.2824 297.881 90.6869 298.248 90.2482C298.616 89.8096 299.114 89.5635 299.632 89.5635Z" fill="white"/>
<path opacity="0.2" d="M316.052 100.869H301.998C301.508 100.832 301.049 100.573 300.713 100.144C300.377 99.7145 300.19 99.1476 300.19 98.5585C300.19 97.9695 300.377 97.4026 300.713 96.9733C301.049 96.544 301.508 96.2847 301.998 96.2481H314.735C314.794 96.2604 314.847 96.2971 314.885 96.3519C314.924 96.4067 314.945 96.4759 314.945 96.5475C314.945 96.6191 314.924 96.6884 314.885 96.7432C314.847 96.798 314.794 96.8347 314.735 96.8469H301.998C301.638 96.8782 301.301 97.0721 301.055 97.3897C300.809 97.7072 300.672 98.1248 300.672 98.5585C300.672 98.9922 300.809 99.4098 301.055 99.7274C301.301 100.045 301.638 100.239 301.998 100.27H316.052C316.431 100.27 316.794 100.089 317.062 99.7675C317.33 99.4456 317.48 99.0092 317.48 98.554V94.4517C317.48 94.2267 317.443 94.004 317.371 93.7963C317.3 93.5886 317.194 93.4 317.062 93.2414C316.929 93.0828 316.771 92.9572 316.598 92.8719C316.425 92.7867 316.239 92.7434 316.052 92.7446H300.874C300.816 92.7323 300.762 92.6956 300.724 92.6408C300.686 92.586 300.665 92.5167 300.665 92.4452C300.665 92.3736 300.686 92.3043 300.724 92.2495C300.762 92.1947 300.816 92.158 300.874 92.1458H316.052C316.562 92.1457 317.051 92.3884 317.412 92.8206C317.773 93.2528 317.977 93.8393 317.979 94.4517V98.554C317.979 99.168 317.776 99.7568 317.414 100.191C317.053 100.625 316.563 100.869 316.052 100.869Z" fill="black"/>
<path d="M287.884 75.7097H306.878C307.551 75.7097 308.197 76.0308 308.672 76.6024C309.148 77.1739 309.415 77.9491 309.415 78.7574V86.6136C309.415 87.422 309.148 88.1971 308.672 88.7687C308.197 89.3403 307.551 89.6614 306.878 89.6614H287.639C287.413 89.6626 287.189 89.61 286.98 89.5066C286.771 89.4033 286.581 89.2513 286.421 89.0593C286.261 88.8674 286.135 88.6393 286.049 88.3883C285.963 88.1372 285.919 87.8682 285.92 87.5968V82.5649C285.92 82.0173 286.101 81.4922 286.423 81.105C286.746 80.7178 287.183 80.5003 287.639 80.5003L287.125 80.2411C286.768 80.0637 286.462 79.7624 286.247 79.3756C286.033 78.9889 285.919 78.5341 285.92 78.0693C285.92 77.4435 286.127 76.8433 286.495 76.4008C286.864 75.9583 287.363 75.7097 287.884 75.7097Z" fill="url(#paint5_linear_2277_6222)"/>
<path opacity="0.7" d="M287.884 75.7097H306.878C307.551 75.7097 308.197 76.0308 308.672 76.6024C309.148 77.1739 309.415 77.9491 309.415 78.7574V86.6136C309.415 87.422 309.148 88.1971 308.672 88.7687C308.197 89.3403 307.551 89.6614 306.878 89.6614H287.639C287.413 89.6626 287.189 89.61 286.98 89.5066C286.771 89.4033 286.581 89.2513 286.421 89.0593C286.261 88.8674 286.135 88.6393 286.049 88.3883C285.963 88.1372 285.919 87.8682 285.92 87.5968V82.5649C285.92 82.0173 286.101 81.4922 286.423 81.105C286.746 80.7178 287.183 80.5003 287.639 80.5003L287.125 80.2411C286.768 80.0637 286.462 79.7624 286.247 79.3756C286.033 78.9889 285.919 78.5341 285.92 78.0693C285.92 77.4435 286.127 76.8433 286.495 76.4008C286.864 75.9583 287.363 75.7097 287.884 75.7097Z" fill="white"/>
<g opacity="0.2">
<path d="M304.304 86.9977H290.243C289.734 86.9977 289.245 86.7547 288.885 86.3223C288.525 85.8898 288.323 85.3033 288.323 84.6917C288.323 84.0802 288.525 83.4937 288.885 83.0612C289.245 82.6288 289.734 82.3858 290.243 82.3858H302.965C303.024 82.3981 303.077 82.4348 303.115 82.4896C303.154 82.5444 303.175 82.6137 303.175 82.6852C303.175 82.7568 303.154 82.8261 303.115 82.8809C303.077 82.9357 303.024 82.9724 302.965 82.9847H290.243C290.056 82.9847 289.871 83.0288 289.699 83.1146C289.527 83.2004 289.37 83.3261 289.238 83.4846C289.106 83.6432 289.001 83.8313 288.93 84.0385C288.858 84.2456 288.822 84.4676 288.822 84.6917C288.822 84.9159 288.858 85.1379 288.93 85.345C289.001 85.5521 289.106 85.7403 289.238 85.8988C289.37 86.0574 289.527 86.1831 289.699 86.2689C289.871 86.3547 290.056 86.3988 290.243 86.3988H304.304C304.491 86.4 304.676 86.3567 304.849 86.2713C305.022 86.1859 305.179 86.0602 305.311 85.9015C305.444 85.7427 305.548 85.5541 305.619 85.3464C305.69 85.1388 305.726 84.9162 305.725 84.6917V80.5894C305.726 80.3649 305.69 80.1423 305.619 79.9347C305.548 79.727 305.444 79.5384 305.311 79.3796C305.179 79.2209 305.022 79.0952 304.849 79.0098C304.676 78.9244 304.491 78.8811 304.304 78.8823H289.127C289.068 78.87 289.015 78.8333 288.976 78.7785C288.938 78.7237 288.917 78.6545 288.917 78.5829C288.917 78.5113 288.938 78.442 288.976 78.3872C289.015 78.3324 289.068 78.2957 289.127 78.2834H304.304C304.813 78.2834 305.302 78.5264 305.662 78.9588C306.022 79.3913 306.224 79.9778 306.224 80.5894V84.6917C306.224 85.3033 306.022 85.8898 305.662 86.3223C305.302 86.7547 304.813 86.9977 304.304 86.9977Z" fill="black"/>
</g>
<path d="M169.87 333.837C164.423 334.364 158.949 334.364 153.502 333.837V328.778H169.87V333.837Z" fill="black"/>
<path d="M182.549 314.969L177.742 325.337L177.497 325.864L177.393 326.088C176.952 327.039 176.352 327.87 175.629 328.528C175.481 328.662 175.324 328.796 175.168 328.912C174.118 329.712 172.9 330.136 171.656 330.137H152.312C150.816 330.134 149.365 329.52 148.198 328.394C148.057 328.26 147.923 328.117 147.789 327.965C147.31 327.414 146.902 326.782 146.576 326.088L146.026 324.89L145.788 324.381L141.428 314.969H182.549Z" fill="black"/>
<g opacity="0.2">
<path d="M182.549 314.969L177.742 325.337L177.497 325.864L177.393 326.088C176.952 327.039 176.352 327.87 175.629 328.528C175.481 328.662 175.324 328.796 175.168 328.912C174.118 329.712 172.9 330.136 171.656 330.137H152.312C150.816 330.134 149.365 329.52 148.198 328.394C148.057 328.26 147.923 328.117 147.789 327.965C147.31 327.414 146.902 326.782 146.576 326.088L146.026 324.89L145.788 324.381L141.428 314.969H182.549Z" fill="white"/>
</g>
<path d="M175.346 295.863L165.897 297.891L179.073 290.053C180.93 286.475 182.273 282.547 183.046 278.434L174.907 280.177L183.582 275.011C184.028 271.161 184.091 267.26 183.768 263.392C180.402 264.525 177.299 266.574 174.699 269.38L174.535 273.554L173.441 270.748C168.233 276.772 162.958 287.479 162.46 306.257C167.361 304.023 171.77 300.467 175.346 295.863Z" fill="url(#paint6_linear_2277_6222)"/>
<path d="M168.828 267.002L162.028 268.459L171.514 262.81C172.85 260.239 173.818 257.418 174.379 254.463L168.516 255.723L174.766 251.996C175.086 249.218 175.131 246.403 174.899 243.612C172.477 244.431 170.242 245.904 168.367 247.92L168.248 250.923L167.459 248.912C163.739 253.247 159.908 260.96 159.551 274.483C163.079 272.875 166.253 270.316 168.828 267.002Z" fill="url(#paint7_linear_2277_6222)"/>
<path d="M148.086 293.126L158.323 294.52L143.748 287.209C141.567 283.546 139.91 279.471 138.845 275.152L147.662 276.359L138.079 271.541C137.38 267.438 137.09 263.25 137.216 259.064C137.216 259.064 141.903 259.886 147.268 264.731L147.677 269.199L148.689 266.116C154.588 272.131 160.868 283.16 162.475 303.225C157.097 301.23 152.173 297.774 148.086 293.126Z" fill="url(#paint8_linear_2277_6222)"/>
<path d="M160.994 314.971H162.14C163.71 306.096 163.286 293.771 160.868 277.666C159.03 265.43 156.664 255.464 156.642 255.366C156.6 255.195 156.504 255.052 156.374 254.966C156.245 254.881 156.092 254.861 155.95 254.91C155.808 254.96 155.687 255.075 155.615 255.231C155.543 255.386 155.524 255.57 155.563 255.742C155.652 256.135 164.833 295.014 160.994 314.971Z" fill="url(#paint9_linear_2277_6222)"/>
<g opacity="0.3">
<path d="M160.994 314.971H162.14C163.71 306.096 163.286 293.771 160.868 277.666C159.03 265.43 156.664 255.464 156.642 255.366C156.6 255.195 156.504 255.052 156.374 254.966C156.245 254.881 156.092 254.861 155.95 254.91C155.808 254.96 155.687 255.075 155.615 255.231C155.543 255.386 155.524 255.57 155.563 255.742C155.652 256.135 164.833 295.014 160.994 314.971Z" fill="black"/>
</g>
<path d="M49.6465 313.802L47.8906 325.609L53.4037 325.663L57.0641 314.884L49.6465 313.802Z" fill="#FF8B7B"/>
<path d="M47.5045 323.613C47.5045 323.613 45.9496 323.327 46.4406 325.606C46.9316 327.886 46.3141 333.373 46.7828 335.483H66.9229C66.9229 335.483 66.6104 330.254 62.9351 330.12C58.0098 329.905 55.7108 326.491 55.7108 326.491C54.9668 324.105 53.7244 324.9 51.7081 325.16C49.8704 325.374 47.5045 323.613 47.5045 323.613Z" fill="url(#paint10_linear_2277_6222)"/>
<path d="M46.6117 334.045H66.4393C66.4663 334.052 66.4942 334.051 66.521 334.043C66.5477 334.035 66.5727 334.02 66.594 333.999C66.6154 333.979 66.6325 333.952 66.6444 333.922C66.6562 333.892 66.6623 333.86 66.6623 333.826C66.6623 333.793 66.6562 333.761 66.6444 333.731C66.6325 333.701 66.6154 333.674 66.594 333.653C66.5727 333.633 66.5477 333.618 66.521 333.61C66.4942 333.602 66.4663 333.601 66.4393 333.607H46.6117C46.5847 333.601 46.5568 333.602 46.53 333.61C46.5033 333.618 46.4783 333.633 46.457 333.653C46.4356 333.674 46.4184 333.701 46.4066 333.731C46.3948 333.761 46.3887 333.793 46.3887 333.826C46.3887 333.86 46.3948 333.892 46.4066 333.922C46.4184 333.952 46.4356 333.979 46.457 333.999C46.4783 334.02 46.5033 334.035 46.53 334.043C46.5568 334.051 46.5847 334.052 46.6117 334.045Z" fill="white"/>
<path d="M87.3379 314.696L87.7248 325.609L93.2453 325.663L94.7556 315.778L87.3379 314.696Z" fill="#FF8B7B"/>
<path d="M87.3453 323.613C87.3453 323.613 85.7904 323.327 86.2814 325.606C86.7725 327.886 86.1549 333.373 86.6237 335.483H106.764C106.764 335.483 106.451 330.254 102.776 330.12C97.8506 329.905 95.5517 326.491 95.5517 326.491C94.8077 324.105 93.5652 324.9 91.5489 325.16C89.7113 325.374 87.3453 323.613 87.3453 323.613Z" fill="url(#paint11_linear_2277_6222)"/>
<path d="M86.4603 334.045H106.295C106.337 334.035 106.375 334.008 106.402 333.968C106.43 333.928 106.444 333.878 106.444 333.826C106.444 333.775 106.43 333.725 106.402 333.685C106.375 333.645 106.337 333.618 106.295 333.607H86.4603C86.4333 333.601 86.4054 333.602 86.3786 333.61C86.3519 333.618 86.3269 333.633 86.3056 333.653C86.2843 333.674 86.2671 333.701 86.2552 333.731C86.2434 333.761 86.2373 333.793 86.2373 333.826C86.2373 333.86 86.2434 333.892 86.2552 333.922C86.2671 333.952 86.2843 333.979 86.3056 333.999C86.3269 334.02 86.3519 334.035 86.3786 334.043C86.4054 334.051 86.4333 334.052 86.4603 334.045Z" fill="white"/>
<path d="M96.4519 316.268H85.8499C85.8499 316.268 83.6179 284.325 85.225 263.062C86.5121 245.938 84.7414 229.439 80.5229 212.707C80.5229 223.736 80.1286 234.614 79.0349 243.31C75.1289 273.287 58.002 316.268 58.002 316.268H47.3926C47.3926 316.268 49.6246 284.87 55.8295 264.072C62.0345 243.274 61.9601 219.151 58.002 197.88C54.0439 176.608 60.4647 157.803 60.4647 157.803L76.6839 156.409H94.3762C94.3762 156.409 102.821 211.179 103.155 241.397C103.49 271.615 96.4519 316.268 96.4519 316.268Z" fill="url(#paint12_linear_2277_6222)"/>
<g opacity="0.2">
<path d="M96.4519 316.268H85.8499C85.8499 316.268 83.6179 284.325 85.2324 263.062C86.1626 250.301 85.4677 237.444 83.1715 224.934C82.4424 220.876 81.5546 216.804 80.508 212.716C80.508 223.745 80.1063 234.622 78.9754 243.319C75.1289 273.287 58.002 316.268 58.002 316.268H47.3926C47.3926 316.268 49.6246 284.87 55.8295 264.072C62.0345 243.274 61.9601 219.142 58.002 197.871C54.0439 176.599 60.4572 157.803 60.4572 157.803L76.6913 156.409H94.3836C94.3836 156.409 102.821 211.17 103.148 241.397C103.475 271.624 96.4519 316.268 96.4519 316.268Z" fill="white"/>
</g>
<path d="M84.1387 312.595L84.2652 316.796L97.9324 316.76L98.2375 312.595H84.1387Z" fill="url(#paint13_linear_2277_6222)"/>
<path d="M46.6119 312.692L46.3887 316.892L58.9176 316.857L60.1452 312.692H46.6119Z" fill="url(#paint14_linear_2277_6222)"/>
<g opacity="0.2">
<path d="M83.1713 224.943C82.4422 220.879 81.5544 216.804 80.5078 212.716C80.5078 212.716 83.03 191.167 81.4378 176.34C84.5042 192.274 85.092 208.752 83.1713 224.943Z" fill="black"/>
</g>
<path d="M96.5339 99.7183C98.0219 106.064 99.1602 112.481 100.254 118.916C101.348 125.351 102.345 131.795 103.23 138.454L103.394 139.795V140.134V140.197V140.125C103.385 140.071 103.372 140.017 103.356 139.964C103.339 139.878 103.308 139.797 103.267 139.723C103.37 140.099 103.524 140.452 103.721 140.769C104.388 141.935 105.116 143.048 105.901 144.103C107.553 146.426 109.405 148.723 111.287 151.002C115.059 155.552 119.018 160.065 122.961 164.498L119.39 170.013C117.039 168.181 114.799 166.268 112.537 164.329C110.276 162.389 108.073 160.387 105.841 158.305C103.609 156.222 101.489 154.041 99.3462 151.637C98.2098 150.358 97.139 148.997 96.1395 147.561C95.4733 146.6 94.9039 145.547 94.4432 144.424C94.2638 143.975 94.1145 143.508 93.9968 143.03L93.9001 142.565L93.8555 142.351V142.279L93.7885 142.02L93.5281 140.948C92.0401 134.781 90.4405 128.435 89.0195 122.134C87.5984 115.833 86.1848 109.469 85.0391 103.061L96.5339 99.7183Z" fill="#B55B52"/>
<path d="M127.745 177.358C128.065 177.435 128.397 177.394 128.698 177.241C128.998 177.088 129.254 176.83 129.431 176.501C129.608 176.171 129.699 175.785 129.692 175.393C129.684 175.001 129.579 174.621 129.389 174.301C129.129 173.859 128.824 173.456 128.481 173.104C129.225 173.917 130.312 175.186 130.713 174.712C131.361 173.863 128.251 169.511 126.681 167.679C128.325 168.796 130.773 168.09 129.716 167.455C128.481 166.722 127.008 165.623 124.724 164.059C121.562 161.869 120.26 165.605 120.26 165.605C116.339 168.572 119.36 171.227 120.87 172.97C122.381 174.712 125.386 178.27 126.361 177.635C126.74 177.376 125.877 176.268 125.275 175.562C125.972 176.352 126.798 176.96 127.7 177.349L127.745 177.358Z" fill="#B55B52"/>
<path d="M93.6172 93.2202C93.6172 93.2202 99.5692 95.1418 100.313 105.509C101.057 115.877 102.359 120.65 102.359 120.65L95.0531 121.928L93.6172 93.2202Z" fill="url(#paint15_linear_2277_6222)"/>
<g opacity="0.1">
<path d="M93.6172 93.2202C93.6172 93.2202 99.5692 95.1418 100.313 105.509C101.057 115.877 102.359 120.65 102.359 120.65L95.0531 121.928L93.6172 93.2202Z" fill="white"/>
</g>
<path d="M98.2527 105.189C97.97 114.841 103.907 120.383 96.8168 127.292C96.177 135.604 93.9971 142.262 95.7678 155.588C96.3555 160.057 64.557 165.214 60.465 157.814C53.8731 145.891 63.1508 130.831 58.4487 104.438C57.3551 98.3158 59.3713 91.4517 64.2966 90.7188C65.6135 90.5311 67.0047 90.3613 68.4332 90.2451C73.9835 89.7982 78.5367 89.4765 83.4323 89.9412C85.0542 90.1021 86.7282 90.3255 88.3278 90.5758C94.1087 91.4695 98.4685 97.8242 98.2527 105.189Z" fill="url(#paint16_linear_2277_6222)"/>
<g opacity="0.3">
<path d="M98.2527 105.189C97.97 114.841 103.907 120.383 96.8168 127.291C96.177 135.603 93.9971 142.262 95.7678 155.588C96.3555 160.057 64.557 165.214 60.465 157.813C53.8731 145.891 63.1508 130.831 58.4487 104.438C57.3551 98.3155 59.3713 91.4514 64.2966 90.7185C65.6135 90.5308 67.0047 90.361 68.4332 90.2448C73.9835 89.798 78.5367 89.4762 83.4323 89.941C85.0542 90.1018 86.7282 90.3253 88.3278 90.5755C94.1087 91.4693 98.4685 97.824 98.2527 105.189Z" fill="white"/>
</g>
<path d="M103.401 74.3169C103.029 79.5991 96.9131 79.331 96.7048 84.6399C96.5783 88.0273 90.3957 88.1435 83.3128 85.8465C79.9351 84.7383 74.2435 85.1315 71.4088 80.5465C71.2433 80.2555 71.1282 79.9275 71.0703 79.582C71.0124 79.2365 71.013 78.8806 71.072 78.5354C71.131 78.1901 71.2473 77.8627 71.4138 77.5725C71.5803 77.2823 71.7936 77.0354 72.0412 76.8463C74.2732 75.0051 73.6483 72.9852 73.4623 69.9107C73.0382 62.6354 71.4163 58.2917 76.4383 55.6641C81.4603 53.0364 79.7342 51.3919 83.3798 49.9976C86.4227 48.8178 88.0967 52.8219 91.8167 51.8835C97.5381 50.4534 99.9412 53.9749 99.9412 53.9749C99.9412 53.9749 104.502 58.6224 102.322 63.6722C100.142 68.722 103.773 69.0437 103.401 74.3169Z" fill="#263238"/>
<path d="M84.2286 92.9438C83.932 92.2064 83.791 91.3926 83.8183 90.5742C83.8455 89.7559 84.0401 88.9582 84.3849 88.2516C84.8203 87.2457 85.3548 86.3065 85.977 85.4541L85.2777 83.5146L81.3494 74.4697C80.3003 79.1441 76.7738 88.6091 73.1133 90.0033C76.0893 92.4523 79.5117 99.1912 83.998 100.21C88.4843 101.229 85.1735 95.1157 84.2286 92.9438Z" fill="#B55B52"/>
<g opacity="0.2">
<path d="M84.3991 88.2506C84.8345 87.2447 85.3691 86.3055 85.9913 85.4531L85.2919 83.5136L82.0332 82.8701C82.3052 84.9284 83.1372 86.8205 84.3991 88.2506Z" fill="black"/>
</g>
<path d="M81.7354 65.7984C80.0019 73.4759 79.1389 76.6845 81.1626 81.8058C84.2055 89.5011 92.3226 90.3055 95.864 83.3788C99.0781 77.1224 101.362 65.6286 96.1839 60.2035C91.0057 54.7783 83.4615 58.1121 81.7354 65.7984Z" fill="#B55B52"/>
<path d="M95.7682 58.5875C95.7682 58.5875 96.103 65.5499 92.5764 66.4883C89.0499 67.4268 84.9504 64.1288 84.1618 69.1696C83.7154 72.0297 80.1219 70.3137 80.7692 67.7217C81.4164 65.1298 80.6352 59.7672 85.6721 58.0691C90.709 56.3709 95.7682 58.5875 95.7682 58.5875Z" fill="#263238"/>
<path d="M83.7665 72.7874C84.1202 72.8535 84.482 72.8199 84.823 72.689C87.2336 71.8668 88.543 65.244 88.6248 64.958L88.2156 64.8418C88.2156 64.9044 86.8764 71.4557 84.704 72.1975C84.4888 72.3011 84.256 72.3405 84.0253 72.3125C83.7947 72.2845 83.5732 72.1898 83.3796 72.0366C82.9464 71.4642 82.7191 70.7092 82.7472 69.9363H82.3232C82.306 70.3986 82.367 70.8603 82.5025 71.2935C82.6381 71.7267 82.8453 72.1224 83.1118 72.4567C83.3046 72.6288 83.5293 72.7422 83.7665 72.7874Z" fill="#263238"/>
<path d="M95.1129 60.6973C95.1129 60.6973 97.6425 68.3837 100.395 67.338C103.148 66.2923 98.4014 57.1938 95.7677 58.5881C93.1339 59.9823 95.1129 60.6973 95.1129 60.6973Z" fill="#263238"/>
<path d="M93.4537 80.8673C93.4537 80.8673 90.5596 78.4363 90.1206 76.6309C90.1206 76.6309 89.198 79.482 90.686 80.9477C91.0711 81.3553 91.5699 81.5734 92.083 81.5585C92.596 81.5436 93.0855 81.2967 93.4537 80.8673Z" fill="white"/>
<path d="M91.6682 73.2617C91.4971 73.8784 91.631 74.4862 91.9658 74.6203C92.3006 74.7543 92.7098 74.3611 92.8735 73.7265C93.0372 73.0919 92.9181 72.502 92.5833 72.368C92.2485 72.2339 91.8393 72.6272 91.6682 73.2617Z" fill="#263238"/>
<path d="M96.802 75.5071C96.6234 76.1238 96.7574 76.7316 97.0922 76.8656C97.427 76.9997 97.8362 76.6064 98.0073 75.9719C98.1784 75.3373 98.0073 74.7474 97.7097 74.6133C97.4121 74.4793 96.9657 74.8725 96.802 75.5071Z" fill="#263238"/>
<path d="M97.5537 74.6204L98.9003 74.6829C98.9003 74.6829 97.948 75.5767 97.5537 74.6204Z" fill="#263238"/>
<path d="M94.5919 74.6113C94.5919 74.6113 95.016 76.5955 95.5815 78.392C95.6238 78.5279 95.6403 78.6735 95.6298 78.8181C95.6193 78.9627 95.582 79.1027 95.5207 79.2278C95.4593 79.3528 95.3755 79.4599 95.2753 79.541C95.1752 79.6222 95.0611 79.6754 94.9416 79.6969C94.3533 79.7774 93.7592 79.7774 93.1709 79.6969L94.5919 74.6113Z" fill="#A02724"/>
<path d="M78.0454 70.1075C78.0996 70.8294 78.2817 71.529 78.5794 72.1595C78.8771 72.7899 79.2835 73.3366 79.7714 73.763C81.0362 74.7997 82.2415 73.2446 82.368 71.2158C82.487 69.4282 81.9737 66.6754 80.4708 66.4699C78.9679 66.2643 77.8668 68.2038 78.0454 70.1075Z" fill="#B55B52"/>
<path d="M91.0053 69.7596C91.0917 69.7573 91.174 69.7157 91.236 69.6434C91.5041 69.2913 91.8386 69.0215 92.2114 68.8566C92.5842 68.6918 92.9845 68.6367 93.3787 68.6961C93.4615 68.7144 93.547 68.6928 93.6167 68.6359C93.6863 68.579 93.7345 68.4915 93.7507 68.3922C93.7594 68.3434 93.7599 68.2931 93.7522 68.2441C93.7445 68.1952 93.7288 68.1485 93.7059 68.1069C93.6831 68.0653 93.6535 68.0296 93.6191 68.0018C93.5846 67.9741 93.5459 67.9549 93.5052 67.9453C93.0071 67.8651 92.5003 67.9286 92.0267 68.1307C91.5531 68.3328 91.1265 68.6675 90.7821 69.1072C90.724 69.179 90.6914 69.2752 90.6914 69.3753C90.6914 69.4755 90.724 69.5717 90.7821 69.6434C90.841 69.7105 90.9171 69.7515 90.9979 69.7596" fill="#263238"/>
<path d="M99.8523 72.0294C99.929 72.0644 100.014 72.0644 100.09 72.0294C100.163 71.9787 100.216 71.8968 100.239 71.8004C100.263 71.704 100.255 71.6005 100.217 71.511C99.9894 70.9726 99.658 70.5074 99.2503 70.1545C98.8425 69.8015 98.3703 69.571 97.8732 69.4822C97.8288 69.4707 97.7828 69.4708 97.7383 69.4824C97.6939 69.494 97.652 69.5168 97.6155 69.5494C97.579 69.582 97.5487 69.6236 97.5266 69.6713C97.5045 69.7191 97.4911 69.772 97.4874 69.8264C97.4837 69.8809 97.4897 69.9356 97.5049 69.9871C97.5202 70.0386 97.5445 70.0855 97.576 70.1248C97.6076 70.1642 97.6458 70.1949 97.6881 70.2151C97.7304 70.2353 97.7757 70.2444 97.8212 70.2418C98.2126 70.3196 98.5831 70.5076 98.9025 70.7903C99.2219 71.073 99.4811 71.4425 99.6588 71.8685C99.6783 71.9144 99.7056 71.9548 99.7389 71.9871C99.7722 72.0194 99.8109 72.043 99.8523 72.0562" fill="#263238"/>
<path d="M92.457 72.3689L93.8037 72.4404C93.8037 72.4404 92.8514 73.3342 92.457 72.3689Z" fill="#263238"/>
<path d="M69.163 104.152L72.6077 123.216C73.2029 126.371 73.8055 129.472 74.4602 132.564C74.7876 134.084 75.1373 135.594 75.487 137.033C75.7965 138.319 76.164 139.585 76.5881 140.823L76.6848 141.082L76.7294 141.198C76.7294 141.198 76.7294 141.198 76.7294 141.261C76.7294 141.323 76.7294 141.261 76.789 141.377C76.9126 141.561 77.0442 141.737 77.1833 141.904C77.3575 142.133 77.5413 142.35 77.7338 142.557C78.5448 143.45 79.5418 144.398 80.5685 145.327C82.6294 147.186 84.839 149.028 87.071 150.833C91.535 154.408 96.1478 158.063 100.709 161.674L98.1194 167.931C92.8445 165.616 87.7034 163.06 82.6442 160.128C80.1072 158.653 77.585 157.125 75.048 155.346C73.7832 154.453 72.5184 153.514 71.1792 152.352C70.8444 152.057 70.517 151.762 70.1525 151.405C69.7879 151.047 69.4085 150.663 69.0514 150.225C68.8728 150.029 68.6347 149.698 68.4338 149.421C68.2124 149.141 68.0085 148.843 67.8238 148.527L67.541 148.027C67.4443 147.857 67.3922 147.741 67.3178 147.598L66.9235 146.775C66.1674 145.041 65.5063 143.25 64.9445 141.413C64.4014 139.723 63.9624 138.07 63.5234 136.417C62.653 133.047 61.909 129.776 61.165 126.505C59.7662 119.962 58.5684 113.483 57.5938 106.842L69.163 104.152Z" fill="#B55B52"/>
<path d="M100.715 161.646C100.715 161.646 106.905 163.112 108.021 164.042C109.279 165.078 105.573 173.444 103.379 173.73C101.184 174.016 98.126 167.912 98.126 167.912L100.715 161.646Z" fill="#B55B52"/>
<path d="M100.447 161.994C101.449 161.362 102.56 161.016 103.691 160.984C105.179 161.1 106.756 160.984 107.255 161.52C107.753 162.056 105.023 162.941 105.023 162.941L100.447 161.994Z" fill="#B55B52"/>
<path d="M108.036 164.042C108.036 164.042 111.176 167.063 111.689 169.405C112.202 171.746 109.375 169.056 109.375 169.056C109.375 169.056 112.522 172.569 109.784 175.196C108.445 176.492 104.048 174.642 102.181 173.328C102.166 173.337 104.785 166.116 108.036 164.042Z" fill="#B55B52"/>
<path d="M60.9928 92.3988C60.9928 92.3988 56.1122 93.7752 56.5884 107.405C57.0645 121.035 58.4856 124.047 58.4856 124.047L74.4072 119.122C74.4072 119.122 74.3328 96.5905 69.348 92.515C68.1455 91.4339 66.688 90.8401 65.1862 90.8192C63.6844 90.7983 62.2159 91.3515 60.9928 92.3988Z" fill="url(#paint17_linear_2277_6222)"/>
<g opacity="0.1">
<path d="M60.9928 92.3988C60.9928 92.3988 56.1122 93.7752 56.5884 107.405C57.0645 121.035 58.4856 124.047 58.4856 124.047L74.4072 119.122C74.4072 119.122 74.3328 96.5905 69.348 92.515C68.1455 91.4339 66.688 90.8401 65.1862 90.8192C63.6844 90.7983 62.2159 91.3515 60.9928 92.3988Z" fill="white"/>
</g>
<path d="M173.244 221.475L96.6094 283.548L97.462 285.067L174.097 222.995L173.244 221.475Z" fill="black"/>
<path d="M244.236 221.419L243.383 222.938L320.008 285.027L320.861 283.508L244.236 221.419Z" fill="black"/>
<path d="M241.673 205.181H176.707C172.068 205.181 168.308 209.699 168.308 215.272V216.353C168.308 221.926 172.068 226.444 176.707 226.444H241.673C246.313 226.444 250.073 221.926 250.073 216.353V215.272C250.073 209.699 246.313 205.181 241.673 205.181Z" fill="url(#paint18_linear_2277_6222)"/>
<g opacity="0.2">
<path d="M241.673 205.18H176.707C172.068 205.18 168.308 209.698 168.308 215.271V216.352C168.308 221.925 172.068 226.443 176.707 226.443H241.673C246.313 226.443 250.073 221.925 250.073 216.352V215.271C250.073 209.698 246.313 205.18 241.673 205.18Z" fill="black"/>
</g>
<path d="M330.426 205.181H249.88C245.241 205.181 241.48 209.699 241.48 215.272V216.353C241.48 221.926 245.241 226.444 249.88 226.444H330.426C335.065 226.444 338.825 221.926 338.825 216.353V215.272C338.825 209.699 335.065 205.181 330.426 205.181Z" fill="url(#paint19_linear_2277_6222)"/>
<g opacity="0.2">
<path d="M330.426 205.18H249.88C245.241 205.18 241.48 209.698 241.48 215.271V216.352C241.48 221.925 245.241 226.443 249.88 226.443H330.426C335.065 226.443 338.825 221.925 338.825 216.352V215.271C338.825 209.698 335.065 205.18 330.426 205.18Z" fill="black"/>
</g>
<path d="M169.699 205.181H89.1537C84.5146 205.181 80.7539 209.699 80.7539 215.272V216.353C80.7539 221.926 84.5146 226.444 89.1537 226.444H169.699C174.338 226.444 178.099 221.926 178.099 216.353V215.272C178.099 209.699 174.338 205.181 169.699 205.181Z" fill="url(#paint20_linear_2277_6222)"/>
<g opacity="0.2">
<path d="M169.699 205.18H89.1537C84.5146 205.18 80.7539 209.698 80.7539 215.271V216.352C80.7539 221.925 84.5146 226.443 89.1537 226.443H169.699C174.338 226.443 178.099 221.925 178.099 216.352V215.271C178.099 209.698 174.338 205.18 169.699 205.18Z" fill="black"/>
</g>
<path d="M98.721 226.059H95.373V335.483H98.721V226.059Z" fill="black"/>
<path d="M210.865 226.059H207.517V335.483H210.865V226.059Z" fill="black"/>
<path d="M322.116 226.059H318.768V335.483H322.116V226.059Z" fill="black"/>
<path d="M320.433 283.849H98.7207V284.761H320.433V283.849Z" fill="black"/>
<path d="M244.843 183.373C249.264 181.097 253.926 179.564 258.696 178.815C265.905 177.921 315.597 195.743 317.978 196.029C320.359 196.315 326.527 186.671 328.632 185.93C330.738 185.188 322.68 202.607 322.68 202.607C322.68 202.607 290.316 200.677 282.132 196.056L252.491 201.535L244.843 183.373Z" fill="#FF8B7B"/>
<path opacity="0.2" d="M244.843 183.373C249.264 181.097 253.926 179.564 258.696 178.815C265.905 177.921 315.597 195.743 317.978 196.029C320.359 196.315 326.527 186.671 328.632 185.93C330.738 185.188 322.68 202.607 322.68 202.607C322.68 202.607 290.316 200.677 282.132 196.056L252.491 201.535L244.843 183.373Z" fill="black"/>
<path d="M248.838 183.453C254.629 183.16 260.429 183.697 266.114 185.053C280.823 188.95 321.55 200.899 322.919 199.576C325.314 197.279 330.79 189.128 331.891 188.378C335.857 185.643 326.505 205.18 326.505 205.18C301.893 205.073 277.542 209.649 263.034 203.393C258.257 206.074 254.106 205.288 247.581 205.18L248.838 183.453Z" fill="#FF8B7B"/>
<path d="M127.187 206.691C130.87 204.501 132.098 204.904 130.446 193.437C127.217 180.03 116.942 177.635 112.419 176.598C106.37 175.222 101.557 176.598 98.6252 181.398C95.8872 185.867 94.9052 197.485 96.914 201.355C96.914 201.355 99.0716 207.934 107.33 207.227C115.209 206.557 121.57 208.47 127.187 206.691Z" fill="#263238"/>
<path d="M156.814 180.148C154.217 178.128 149.902 178.834 146.048 180.407C139.463 183.088 131.168 187.95 129.427 192.544C129.911 196.119 125.424 199.801 125.29 202.849C125.156 205.897 125.603 209.713 128.653 209.713C129.561 209.713 141.048 209.883 156.814 210.071V180.148Z" fill="#FF8B7B"/>
<path d="M127.38 205.441C128.982 202.969 130.74 200.65 132.641 198.506C133.264 197.806 133.823 197.027 134.307 196.182C135.602 193.903 136.42 191.775 135.505 191.043C135.298 190.879 135.076 190.744 134.843 190.64C134.058 190.288 133.205 190.213 132.386 190.425C131.567 190.637 130.816 191.128 130.223 191.838C129.656 192.537 128.933 193.024 128.141 193.241C127.349 193.458 126.522 193.396 125.759 193.062C124.828 192.734 123.935 192.265 123.102 191.668L121.614 192.893L114.732 199.355C118.854 199.73 125.468 201.223 127.38 205.441Z" fill="#FF8B7B"/>
<g opacity="0.2">
<path d="M125.721 193.017C124.791 192.688 123.898 192.22 123.065 191.623L121.577 192.847L121.666 196.932C123.341 196.2 124.767 194.824 125.721 193.017Z" fill="black"/>
</g>
<path d="M107.352 200.579C114.145 201.196 117.024 201.634 120.93 198.193C126.815 193.018 125.93 183.043 119.442 180.049C113.587 177.368 103.461 176.787 99.89 184.116C96.3188 191.445 100.582 199.962 107.375 200.579" fill="#FF8B7B"/>
<path d="M116.072 188.171C116.03 188.172 115.99 188.156 115.957 188.125C115.924 188.094 115.902 188.05 115.893 188.001C115.888 187.974 115.887 187.945 115.892 187.917C115.896 187.889 115.905 187.863 115.918 187.839C115.931 187.816 115.949 187.796 115.969 187.78C115.989 187.765 116.011 187.755 116.035 187.751C116.462 187.685 116.872 187.509 117.236 187.234C117.601 186.96 117.912 186.593 118.148 186.16C118.45 185.381 118.495 184.493 118.274 183.676C118.266 183.649 118.262 183.621 118.262 183.593C118.263 183.565 118.268 183.537 118.278 183.511C118.288 183.485 118.302 183.462 118.319 183.443C118.336 183.424 118.356 183.408 118.378 183.399C118.4 183.388 118.424 183.384 118.447 183.385C118.471 183.385 118.494 183.392 118.515 183.404C118.537 183.415 118.556 183.432 118.572 183.452C118.588 183.473 118.601 183.497 118.609 183.524C118.871 184.458 118.818 185.478 118.46 186.366C118.201 186.853 117.856 187.265 117.45 187.574C117.044 187.883 116.586 188.081 116.109 188.153L116.072 188.171Z" fill="#263238"/>
<path d="M111.756 188.457C111.724 188.46 111.692 188.451 111.665 188.432C111.637 188.413 111.614 188.384 111.6 188.35C111.588 188.326 111.579 188.299 111.576 188.272C111.572 188.244 111.573 188.215 111.579 188.188C111.584 188.16 111.594 188.135 111.608 188.112C111.622 188.089 111.639 188.07 111.659 188.055C111.844 187.943 111.991 187.759 112.078 187.534C112.164 187.308 112.185 187.054 112.136 186.813C112.096 186.583 111.998 186.374 111.856 186.214C111.713 186.054 111.533 185.951 111.339 185.919C111.316 185.916 111.293 185.907 111.273 185.893C111.252 185.879 111.234 185.86 111.219 185.838C111.205 185.815 111.194 185.79 111.188 185.762C111.182 185.735 111.18 185.706 111.183 185.678C111.185 185.65 111.192 185.623 111.202 185.598C111.213 185.573 111.228 185.551 111.246 185.534C111.264 185.516 111.285 185.503 111.308 185.496C111.33 185.488 111.354 185.486 111.377 185.49C111.646 185.535 111.898 185.68 112.097 185.904C112.295 186.128 112.431 186.421 112.485 186.741C112.548 187.07 112.52 187.413 112.404 187.72C112.288 188.027 112.092 188.28 111.845 188.44C111.818 188.457 111.787 188.463 111.756 188.457Z" fill="#263238"/>
<path d="M111.756 181.863C111.725 181.864 111.695 181.856 111.667 181.839C111.64 181.822 111.617 181.796 111.6 181.765C111.588 181.741 111.58 181.714 111.576 181.686C111.572 181.658 111.573 181.63 111.579 181.603C111.584 181.575 111.594 181.549 111.608 181.527C111.622 181.504 111.639 181.485 111.66 181.47C111.844 181.355 111.991 181.17 112.077 180.943C112.163 180.716 112.184 180.461 112.136 180.219C112.096 179.989 111.998 179.78 111.856 179.62C111.713 179.46 111.533 179.357 111.34 179.325C111.316 179.323 111.292 179.315 111.271 179.301C111.25 179.288 111.231 179.269 111.217 179.246C111.202 179.223 111.191 179.197 111.186 179.169C111.18 179.141 111.179 179.112 111.183 179.084C111.185 179.056 111.192 179.029 111.203 179.004C111.213 178.979 111.228 178.957 111.246 178.94C111.265 178.922 111.285 178.909 111.308 178.902C111.33 178.894 111.354 178.892 111.377 178.896C111.647 178.941 111.898 179.086 112.097 179.31C112.295 179.534 112.431 179.826 112.485 180.147C112.549 180.477 112.521 180.822 112.405 181.13C112.289 181.439 112.093 181.693 111.846 181.854C111.817 181.865 111.786 181.868 111.756 181.863Z" fill="#263238"/>
<path d="M109.018 178.297C109.018 178.297 104.338 172.621 99.5322 182.033C99.5322 182.033 93.6993 188.968 97.4639 197.629C101.229 206.29 110.112 206.969 117.768 200.257C117.768 200.257 110.953 200.829 109.145 197.718C107.337 194.608 105.782 191.248 103.624 192.49C103.624 192.49 104.599 190.238 106.481 190.318L105.923 186.064C104.952 186.112 104.002 186.417 103.141 186.957C103.872 185.814 104.865 184.951 105.998 184.473L106.89 180.969C106.89 180.969 104.115 181.121 103.036 182.006C103.036 182.024 105.99 178.351 109.018 178.297Z" fill="#263238"/>
<path d="M111.124 182.9C111.124 182.9 112.709 182.006 114.1 180.978C114.206 180.899 114.326 180.849 114.45 180.832C114.574 180.816 114.7 180.833 114.818 180.883C114.935 180.933 115.042 181.014 115.131 181.12C115.219 181.226 115.286 181.355 115.328 181.497C115.506 182.194 115.621 182.914 115.67 183.642L111.124 182.9Z" fill="#FF5652"/>
<path d="M111.689 204.223C112.286 204.018 112.84 203.663 113.313 203.18C113.787 202.698 114.169 202.1 114.435 201.426C115.06 199.692 113.52 198.53 111.794 198.744C110.239 198.95 108.074 200.103 108.163 201.962C108.252 203.821 110.127 204.786 111.689 204.205" fill="#FF8B7B"/>
<path d="M109.524 188.566C109.516 188.514 109.5 188.464 109.475 188.419C109.451 188.374 109.419 188.336 109.382 188.307C109.038 188.044 108.749 187.688 108.538 187.268C108.328 186.847 108.202 186.374 108.17 185.885C108.171 185.833 108.163 185.783 108.148 185.735C108.132 185.687 108.109 185.644 108.079 185.607C108.049 185.571 108.013 185.541 107.974 185.522C107.935 185.502 107.892 185.491 107.85 185.491C107.764 185.491 107.682 185.532 107.621 185.603C107.56 185.675 107.524 185.773 107.522 185.876C107.547 186.495 107.695 187.098 107.954 187.635C108.213 188.171 108.575 188.626 109.01 188.959C109.083 189.014 109.17 189.032 109.253 189.01C109.337 188.988 109.41 188.928 109.457 188.843C109.481 188.804 109.498 188.759 109.507 188.711C109.516 188.663 109.517 188.614 109.509 188.566" fill="#263238"/>
<path d="M109.42 177.376C109.425 177.326 109.421 177.275 109.408 177.228C109.395 177.18 109.374 177.136 109.346 177.099C109.319 177.059 109.286 177.026 109.249 177.002C109.212 176.978 109.171 176.963 109.129 176.958C109.086 176.953 109.044 176.958 109.003 176.973C108.963 176.988 108.925 177.012 108.892 177.045C108.485 177.425 108.158 177.915 107.939 178.476C107.721 179.037 107.616 179.652 107.635 180.272C107.644 180.374 107.687 180.469 107.754 180.534C107.821 180.599 107.906 180.63 107.992 180.62C108.034 180.616 108.075 180.601 108.112 180.578C108.15 180.554 108.183 180.522 108.21 180.483C108.237 180.444 108.257 180.399 108.27 180.35C108.282 180.302 108.286 180.251 108.282 180.2C108.274 179.709 108.362 179.223 108.539 178.781C108.717 178.338 108.977 177.952 109.301 177.653C109.336 177.619 109.365 177.577 109.385 177.529C109.406 177.482 109.418 177.429 109.42 177.376Z" fill="#263238"/>
<path d="M253.317 180.826C249.195 176.026 238.31 178.529 225.573 178.144C212.836 177.76 201.118 183.382 189.192 184.222C177.265 185.062 158.427 182.202 158.427 182.202C156.456 177.733 150.883 178.395 146.047 180.37C143.54 181.386 141.085 182.579 138.696 183.945V209.766C168.583 210.168 250.185 211.75 252.439 210.123C255.132 208.255 257.446 185.625 253.317 180.826Z" fill="url(#paint21_linear_2277_6222)"/>
<g opacity="0.6">
<path d="M252.439 210.194C251.115 211.15 222.619 210.999 193.209 210.632C183.455 210.516 173.59 210.364 164.595 210.23C154.387 210.078 145.251 209.926 138.696 209.837V183.989C141.085 182.616 143.543 181.422 146.054 180.414C150.876 178.439 156.47 177.822 158.42 182.201C158.42 182.201 177.258 185.061 189.192 184.23C201.125 183.399 212.843 177.786 225.573 178.144C238.303 178.501 249.195 175.999 253.317 180.825C257.439 185.651 255.132 208.255 252.439 210.194Z" fill="white"/>
</g>
<g opacity="0.2">
<path d="M254.44 200.856C254.44 200.856 208.677 205.897 186.818 204.771C164.959 203.645 158.062 202.313 158.062 202.313L163.01 205.182C163.01 205.182 183.098 207.443 201.4 206.567C219.703 205.691 249.396 203.367 254.44 200.856Z" fill="black"/>
</g>
<path d="M130.676 193.82C130.676 193.82 155.518 202.471 160.577 197.788C165.636 193.105 172.593 185.624 173.672 183.908C174.75 182.192 176.774 180.878 180.189 181.584C183.604 182.29 185.397 183.747 185.457 184.221C185.516 184.694 181.982 184.971 179.646 184.793C177.31 184.614 173.694 200.55 169.394 204.357C160.719 211.963 151.21 210.998 134.5 209.72L130.676 193.82Z" fill="#FF8B7B"/>
<g opacity="0.2">
<path d="M98.721 226.059H95.373V335.483H98.721V226.059Z" fill="white"/>
</g>
<g opacity="0.2">
<path d="M210.865 226.059H207.517V335.483H210.865V226.059Z" fill="white"/>
</g>
<g opacity="0.2">
<path d="M322.116 226.059H318.768V335.483H322.116V226.059Z" fill="white"/>
</g>
<defs>
<linearGradient id="paint0_linear_2277_6222" x1="296.347" y1="103.408" x2="296.347" y2="110.835" gradientUnits="userSpaceOnUse">
<stop offset="0.262495" stop-color="#DC143B"/>
<stop offset="1" stop-color="#FF6F45"/>
</linearGradient>
<linearGradient id="paint1_linear_2277_6222" x1="274.752" y1="110.836" x2="274.752" y2="118.21" gradientUnits="userSpaceOnUse">
<stop offset="0.262495" stop-color="#DC143B"/>
<stop offset="1" stop-color="#FF6F45"/>
</linearGradient>
<linearGradient id="paint2_linear_2277_6222" x1="317.942" y1="110.836" x2="317.942" y2="118.21" gradientUnits="userSpaceOnUse">
<stop offset="0.262495" stop-color="#DC143B"/>
<stop offset="1" stop-color="#FF6F45"/>
</linearGradient>
<linearGradient id="paint3_linear_2277_6222" x1="285.916" y1="89.5635" x2="285.916" y2="103.524" gradientUnits="userSpaceOnUse">
<stop offset="0.262495" stop-color="#DC143B"/>
<stop offset="1" stop-color="#FF6F45"/>
</linearGradient>
<linearGradient id="paint4_linear_2277_6222" x1="309.416" y1="89.5635" x2="309.416" y2="103.524" gradientUnits="userSpaceOnUse">
<stop offset="0.262495" stop-color="#DC143B"/>
<stop offset="1" stop-color="#FF6F45"/>
</linearGradient>
<linearGradient id="paint5_linear_2277_6222" x1="297.668" y1="75.7097" x2="297.668" y2="89.6614" gradientUnits="userSpaceOnUse">
<stop offset="0.262495" stop-color="#DC143B"/>
<stop offset="1" stop-color="#FF6F45"/>
</linearGradient>
<linearGradient id="paint6_linear_2277_6222" x1="173.215" y1="263.392" x2="173.215" y2="306.257" gradientUnits="userSpaceOnUse">
<stop offset="0.262495" stop-color="#DC143B"/>
<stop offset="1" stop-color="#FF6F45"/>
</linearGradient>
<linearGradient id="paint7_linear_2277_6222" x1="167.298" y1="243.612" x2="167.298" y2="274.483" gradientUnits="userSpaceOnUse">
<stop offset="0.262495" stop-color="#DC143B"/>
<stop offset="1" stop-color="#FF6F45"/>
</linearGradient>
<linearGradient id="paint8_linear_2277_6222" x1="149.831" y1="259.064" x2="149.831" y2="303.225" gradientUnits="userSpaceOnUse">
<stop offset="0.262495" stop-color="#DC143B"/>
<stop offset="1" stop-color="#FF6F45"/>
</linearGradient>
<linearGradient id="paint9_linear_2277_6222" x1="159.305" y1="254.884" x2="159.305" y2="314.971" gradientUnits="userSpaceOnUse">
<stop offset="0.262495" stop-color="#DC143B"/>
<stop offset="1" stop-color="#FF6F45"/>
</linearGradient>
<linearGradient id="paint10_linear_2277_6222" x1="56.6338" y1="323.602" x2="56.6338" y2="335.483" gradientUnits="userSpaceOnUse">
<stop offset="0.262495" stop-color="#DC143B"/>
<stop offset="1" stop-color="#FF6F45"/>
</linearGradient>
<linearGradient id="paint11_linear_2277_6222" x1="96.4746" y1="323.602" x2="96.4746" y2="335.483" gradientUnits="userSpaceOnUse">
<stop offset="0.262495" stop-color="#DC143B"/>
<stop offset="1" stop-color="#FF6F45"/>
</linearGradient>
<linearGradient id="paint12_linear_2277_6222" x1="75.2798" y1="156.409" x2="75.2798" y2="316.268" gradientUnits="userSpaceOnUse">
<stop offset="0.262495" stop-color="#DC143B"/>
<stop offset="1" stop-color="#FF6F45"/>
</linearGradient>
<linearGradient id="paint13_linear_2277_6222" x1="91.1881" y1="312.595" x2="91.1881" y2="316.796" gradientUnits="userSpaceOnUse">
<stop offset="0.262495" stop-color="#DC143B"/>
<stop offset="1" stop-color="#FF6F45"/>
</linearGradient>
<linearGradient id="paint14_linear_2277_6222" x1="53.267" y1="312.692" x2="53.267" y2="316.892" gradientUnits="userSpaceOnUse">
<stop offset="0.262495" stop-color="#DC143B"/>
<stop offset="1" stop-color="#FF6F45"/>
</linearGradient>
<linearGradient id="paint15_linear_2277_6222" x1="97.9882" y1="93.2202" x2="97.9882" y2="121.928" gradientUnits="userSpaceOnUse">
<stop offset="0.262495" stop-color="#DC143B"/>
<stop offset="1" stop-color="#FF6F45"/>
</linearGradient>
<linearGradient id="paint16_linear_2277_6222" x1="79.1587" y1="89.7139" x2="79.1587" y2="161.542" gradientUnits="userSpaceOnUse">
<stop offset="0.262495" stop-color="#DC143B"/>
<stop offset="1" stop-color="#FF6F45"/>
</linearGradient>
<linearGradient id="paint17_linear_2277_6222" x1="65.4814" y1="90.8186" x2="65.4814" y2="124.047" gradientUnits="userSpaceOnUse">
<stop offset="0.262495" stop-color="#DC143B"/>
<stop offset="1" stop-color="#FF6F45"/>
</linearGradient>
<linearGradient id="paint18_linear_2277_6222" x1="209.19" y1="205.181" x2="209.19" y2="226.444" gradientUnits="userSpaceOnUse">
<stop offset="0.262495" stop-color="#DC143B"/>
<stop offset="1" stop-color="#FF6F45"/>
</linearGradient>
<linearGradient id="paint19_linear_2277_6222" x1="290.153" y1="205.181" x2="290.153" y2="226.444" gradientUnits="userSpaceOnUse">
<stop offset="0.262495" stop-color="#DC143B"/>
<stop offset="1" stop-color="#FF6F45"/>
</linearGradient>
<linearGradient id="paint20_linear_2277_6222" x1="129.426" y1="205.181" x2="129.426" y2="226.444" gradientUnits="userSpaceOnUse">
<stop offset="0.262495" stop-color="#DC143B"/>
<stop offset="1" stop-color="#FF6F45"/>
</linearGradient>
<linearGradient id="paint21_linear_2277_6222" x1="197.132" y1="177.829" x2="197.132" y2="210.843" gradientUnits="userSpaceOnUse">
<stop offset="0.262495" stop-color="#DC143B"/>
<stop offset="1" stop-color="#FF6F45"/>
</linearGradient>
</defs>
</svg>
