<svg width="41" height="36" viewBox="0 0 41 36" fill="none" xmlns="http://www.w3.org/2000/svg">
<path d="M35.5 13.5H25.5V4.5C25.5 3.30653 24.9732 2.16193 24.0355 1.31802C23.0979 0.474106 21.8261 0 20.5 0C19.1739 0 17.9021 0.474106 16.9645 1.31802C16.0268 2.16193 15.5 3.30653 15.5 4.5L15.6775 13.5H5.5C4.17392 13.5 2.90215 13.9741 1.96447 14.818C1.02678 15.6619 0.5 16.8065 0.5 18C0.5 19.1935 1.02678 20.3381 1.96447 21.182C2.90215 22.0259 4.17392 22.5 5.5 22.5L15.6775 22.3403L15.5 31.5C15.5 32.6935 16.0268 33.8381 16.9645 34.682C17.9021 35.5259 19.1739 36 20.5 36C21.8261 36 23.0979 35.5259 24.0355 34.682C24.9732 33.8381 25.5 32.6935 25.5 31.5V22.3403L35.5 22.5C36.8261 22.5 38.0978 22.0259 39.0355 21.182C39.9732 20.3381 40.5 19.1935 40.5 18C40.5 16.8065 39.9732 15.6619 39.0355 14.818C38.0978 13.9741 36.8261 13.5 35.5 13.5Z" fill="#FD765E"/>
</svg>
