<svg width="40" height="40" viewBox="0 0 40 40" fill="none" xmlns="http://www.w3.org/2000/svg">
<path d="M0 20C0 23.9556 1.17298 27.8224 3.37061 31.1114C5.56823 34.4004 8.69181 36.9638 12.3463 38.4776C16.0009 39.9913 20.0222 40.3874 23.9018 39.6157C27.7814 38.844 31.3451 36.9392 34.1421 34.1421C36.9392 31.3451 38.844 27.7814 39.6157 23.9018C40.3874 20.0222 39.9913 16.0009 38.4776 12.3463C36.9638 8.69181 34.4004 5.56823 31.1114 3.37061C27.8224 1.17298 23.9556 0 20 0C14.6957 0 9.60859 2.10714 5.85786 5.85786C2.10714 9.60859 0 14.6957 0 20ZM8.57143 18.5714H25.9286L17.9571 10.5614L20 8.57143L31.4286 20L20 31.4286L17.9571 29.39L25.9286 21.4286H8.57143V18.5714Z" fill="#DC143B"/>
</svg>
