<svg width="36" height="36" viewBox="0 0 36 36" fill="none" xmlns="http://www.w3.org/2000/svg">
<path fill-rule="evenodd" clip-rule="evenodd" d="M4.38112 3.90964C4.3142 3.9093 4.24786 3.92233 4.18593 3.94798C4.124 3.97363 4.0677 4.0114 4.02025 4.05911C3.97281 4.10682 3.93516 4.16354 3.90947 4.22601C3.88378 4.28848 3.87055 4.35546 3.87055 4.42311V26.6325H26.8695V20.4683C26.8695 19.9498 27.0733 19.4526 27.436 19.086C27.7987 18.7194 28.2906 18.5135 28.8035 18.5135C29.3164 18.5135 29.8084 18.7194 30.171 19.086C30.5337 19.4526 30.7375 19.9498 30.7375 20.4683V31.5769C30.7375 34.0191 28.7777 36 26.3615 36H4.37597C1.95977 36 0 34.0191 0 31.5769V4.42311C0.00136675 3.24955 0.463551 2.12453 1.28502 1.29518C2.1065 0.465838 3.22007 -8.13109e-07 4.38112 0H20.2553C20.7682 0 21.2601 0.205954 21.6228 0.572554C21.9855 0.939154 22.1893 1.43637 22.1893 1.95482C22.1893 2.47327 21.9855 2.97049 21.6228 3.33709C21.2601 3.70369 20.7682 3.90964 20.2553 3.90964H4.38112ZM9.26509 7.59253C9.05344 7.59253 8.84387 7.63466 8.64833 7.71653C8.4528 7.7984 8.27513 7.91839 8.12547 8.06966C7.97582 8.22092 7.8571 8.40051 7.77611 8.59815C7.69512 8.79579 7.65343 9.00762 7.65343 9.22155C7.65343 9.43547 7.69512 9.6473 7.77611 9.84494C7.8571 10.0426 7.97582 10.2222 8.12547 10.3734C8.27513 10.5247 8.4528 10.6447 8.64833 10.7266C8.84387 10.8084 9.05344 10.8506 9.26509 10.8506H14.149C14.5765 10.8506 14.9864 10.6789 15.2887 10.3734C15.5909 10.0679 15.7607 9.65359 15.7607 9.22155C15.7607 8.7895 15.5909 8.37516 15.2887 8.06966C14.9864 7.76416 14.5765 7.59253 14.149 7.59253H9.26509ZM7.65343 16.6968C7.65343 15.7976 8.37545 15.0678 9.26509 15.0678H11.7071C12.1345 15.0678 12.5444 15.2394 12.8467 15.5449C13.1489 15.8504 13.3187 16.2647 13.3187 16.6968C13.3187 17.1288 13.1489 17.5432 12.8467 17.8487C12.5444 18.1542 12.1345 18.3258 11.7071 18.3258H9.26509C8.83765 18.3258 8.42772 18.1542 8.12547 17.8487C7.82323 17.5432 7.65343 17.1288 7.65343 16.6968ZM23.9814 19.3918C24.2417 19.3442 24.4812 19.2168 24.6674 19.0269L35.2372 8.29366C35.4789 8.05136 35.6708 7.76308 35.8017 7.44546C35.9326 7.12785 36 6.78717 36 6.44309C36 6.09901 35.9326 5.75834 35.8017 5.44072C35.6708 5.1231 35.4789 4.83483 35.2372 4.59253L32.5039 1.82971C32.2642 1.58542 31.979 1.39151 31.6647 1.25919C31.3505 1.12686 31.0134 1.05874 30.673 1.05874C30.3326 1.05874 29.9956 1.12686 29.6813 1.25919C29.3671 1.39151 29.0819 1.58542 28.8422 1.82971L18.2285 12.5056C18.0373 12.6987 17.911 12.9476 17.8675 13.2172L16.9391 18.9044C16.9056 19.1105 16.9216 19.3217 16.9857 19.5203C17.0499 19.7188 17.1603 19.8989 17.3076 20.0453C17.455 20.1917 17.635 20.3001 17.8325 20.3615C18.03 20.4229 18.2392 20.4354 18.4425 20.3979L23.9814 19.3918Z" fill="#372F30"/>
</svg>
