<svg width="40" height="40" viewBox="0 0 40 40" fill="none" xmlns="http://www.w3.org/2000/svg">
<path d="M40 20C40 16.0444 38.827 12.1776 36.6294 8.8886C34.4318 5.59962 31.3082 3.03617 27.6537 1.52242C23.9991 0.00866699 19.9778 -0.387402 16.0982 0.384304C12.2186 1.15601 8.65492 3.06083 5.85787 5.85787C3.06083 8.65492 1.15601 12.2186 0.384304 16.0982C-0.387402 19.9778 0.00866699 23.9991 1.52242 27.6537C3.03617 31.3082 5.59962 34.4318 8.8886 36.6294C12.1776 38.827 16.0444 40 20 40C25.3043 40 30.3914 37.8929 34.1421 34.1421C37.8929 30.3914 40 25.3043 40 20ZM31.4286 21.4286L14.0714 21.4286L22.0429 29.4386L20 31.4286L8.57144 20L20 8.57144L22.0429 10.61L14.0714 18.5714L31.4286 18.5714V21.4286Z" fill="#DC143B"/>
</svg>
