<svg width="56" height="55" viewBox="0 0 56 55" fill="none" xmlns="http://www.w3.org/2000/svg">
<path d="M28.0003 0C12.9381 0 0.726562 12.2115 0.726562 27.2738C0.726562 42.336 12.9381 54.5475 28.0003 54.5475C43.0626 54.5475 55.2741 42.336 55.2741 27.2738C55.2741 12.2115 43.0626 0 28.0003 0ZM38.1669 38.5718C35.6942 40.8503 32.3237 42.189 28.2969 42.189C26.3387 42.189 24.3997 41.8031 22.5907 41.0534C20.7817 40.3037 19.1381 39.2049 17.754 37.8198C16.3698 36.4346 15.2721 34.7903 14.5237 32.9808C13.7753 31.1712 13.3908 29.232 13.3922 27.2738C13.3915 25.3151 13.7766 23.3754 14.5255 21.5655C15.2745 19.7557 16.3725 18.111 17.757 16.7255C19.1416 15.34 20.7854 14.2408 22.5948 13.4906C24.4041 12.7404 26.3435 12.3539 28.3022 12.3532C32.3184 12.3532 35.6916 13.8311 38.2772 16.2382L34.0063 20.517C32.4576 19.0365 30.4941 18.2857 28.3074 18.2857C24.4224 18.2857 21.1359 20.9107 19.9599 24.4361C19.6633 25.3312 19.4927 26.2868 19.4927 27.2738C19.4927 28.2608 19.6633 29.2163 19.9599 30.1088C21.1359 33.6367 24.4224 36.2591 28.3022 36.2591C30.3103 36.2591 32.0139 35.7289 33.3474 34.8338C34.1226 34.3235 34.7862 33.6611 35.2979 32.8868C35.8095 32.1126 36.1587 31.2425 36.3242 30.3293H28.3022V24.5595H42.3459C42.5218 25.5386 42.6137 26.5545 42.6137 27.6098C42.6137 32.1562 40.9836 35.973 38.1669 38.5718Z" fill="#FD765E"/>
</svg>
