<svg width="40" height="37" viewBox="0 0 40 37" xmlns="http://www.w3.org/2000/svg">
<path d="M28 7.2631H32V36.9102H8V7.2631H12V5.14545C12 4.02218 12.4214 2.94492 13.1716 2.15065C13.9217 1.35637 14.9391 0.910156 16 0.910156H24C25.0609 0.910156 26.0783 1.35637 26.8284 2.15065C27.5786 2.94492 28 4.02218 28 5.14545V7.2631ZM34 7.2631H36C37.0609 7.2631 38.0783 7.70931 38.8284 8.50359C39.5786 9.29786 40 10.3751 40 11.4984V32.6749C40 33.7981 39.5786 34.8754 38.8284 35.6697C38.0783 36.4639 37.0609 36.9102 36 36.9102H34V7.2631ZM6 7.2631V36.9102H4C2.93913 36.9102 1.92172 36.4639 1.17157 35.6697C0.421427 34.8754 0 33.7981 0 32.6749V11.4984C0 9.16898 1.8 7.2631 4 7.2631H6ZM16 5.14545V7.2631H24V5.14545H16Z" fill="currentColor"/>
</svg>
