<svg width="24" height="15" viewBox="0 0 24 15" fill="none" xmlns="http://www.w3.org/2000/svg">
<path d="M12 4.5C11.132 4.5 10.2996 4.81607 9.68583 5.37868C9.07208 5.94129 8.72727 6.70435 8.72727 7.5C8.72727 8.29565 9.07208 9.05871 9.68583 9.62132C10.2996 10.1839 11.132 10.5 12 10.5C12.868 10.5 13.7004 10.1839 14.3142 9.62132C14.9279 9.05871 15.2727 8.29565 15.2727 7.5C15.2727 6.70435 14.9279 5.94129 14.3142 5.37868C13.7004 4.81607 12.868 4.5 12 4.5ZM12 12.5C10.5534 12.5 9.16598 11.9732 8.14305 11.0355C7.12013 10.0979 6.54545 8.82608 6.54545 7.5C6.54545 6.17392 7.12013 4.90215 8.14305 3.96447C9.16598 3.02678 10.5534 2.5 12 2.5C13.4466 2.5 14.834 3.02678 15.8569 3.96447C16.8799 4.90215 17.4545 6.17392 17.4545 7.5C17.4545 8.82608 16.8799 10.0979 15.8569 11.0355C14.834 11.9732 13.4466 12.5 12 12.5ZM12 0C6.54545 0 1.88727 3.11 0 7.5C1.88727 11.89 6.54545 15 12 15C17.4545 15 22.1127 11.89 24 7.5C22.1127 3.11 17.4545 0 12 0Z" fill="#676767"/>
</svg>
