<svg width="25" height="18" viewBox="0 0 25 18" fill="none" xmlns="http://www.w3.org/2000/svg">
<path d="M12.8145 5.68421L16.2727 8.67789V8.52632C16.2727 7.77254 15.9279 7.04964 15.3142 6.51664C14.7004 5.98365 13.868 5.68421 13 5.68421H12.8145ZM8.12364 6.44211L9.81455 7.91053C9.76 8.10947 9.72727 8.30842 9.72727 8.52632C9.72727 9.28009 10.0721 10.003 10.6858 10.536C11.2996 11.069 12.132 11.3684 13 11.3684C13.24 11.3684 13.48 11.34 13.7091 11.2926L15.4 12.7611C14.6691 13.0737 13.8618 13.2632 13 13.2632C11.5534 13.2632 10.166 12.7641 9.14305 11.8758C8.12013 10.9874 7.54545 9.7826 7.54545 8.52632C7.54545 7.77789 7.76364 7.07684 8.12364 6.44211ZM2.09091 1.20316L4.57818 3.36316L5.06909 3.78947C3.26909 5.02105 1.85091 6.63158 1 8.52632C2.88727 12.6853 7.54545 15.6316 13 15.6316C14.6909 15.6316 16.3055 15.3474 17.7782 14.8358L18.2473 15.2337L21.4327 18L22.8182 16.7968L3.47636 0M13 3.78947C14.4466 3.78947 15.834 4.28853 16.8569 5.17686C17.8799 6.06519 18.4545 7.27003 18.4545 8.52632C18.4545 9.13263 18.3127 9.72 18.0618 10.2505L21.2582 13.0263C22.8945 11.8421 24.2036 10.2884 25 8.52632C23.1127 4.36737 18.4545 1.42105 13 1.42105C11.4727 1.42105 10.0109 1.65789 8.63636 2.08421L11.0036 4.12105C11.6255 3.91263 12.2909 3.78947 13 3.78947Z" fill="#676767"/>
</svg>
