<svg width="30" height="30" viewBox="0 0 30 30" fill="none" xmlns="http://www.w3.org/2000/svg">
<path d="M17.0244 25.5822C17.2906 25.3172 17.5018 25.0022 17.6459 24.6553C17.79 24.3085 17.8642 23.9365 17.8642 23.5609C17.8642 23.1853 17.79 22.8134 17.6459 22.4665C17.5018 22.1196 17.2906 21.8046 17.0244 21.5396C16.7595 21.2728 16.4445 21.061 16.0975 20.9164C15.7504 20.7718 15.3782 20.6972 15.0023 20.6969C14.6263 20.6967 14.254 20.7707 13.9068 20.9148C13.5595 21.059 13.2442 21.2703 12.9789 21.5367C12.7057 21.8006 12.4877 22.1163 12.3378 22.4654C12.1878 22.8145 12.1089 23.1899 12.1056 23.5698C12.1023 23.9497 12.1747 24.3264 12.3185 24.678C12.4624 25.0296 12.6748 25.3491 12.9435 25.6177C13.2121 25.8863 13.5315 26.0988 13.8831 26.2426C14.2347 26.3865 14.6115 26.4589 14.9914 26.4556C15.3713 26.4523 15.7467 26.3733 16.0957 26.2234C16.4448 26.0734 16.7605 25.8555 17.0244 25.5822ZM27.1396 14.2855C26.7638 14.2862 26.3916 14.2124 26.0444 14.0686C25.6972 13.9247 25.382 13.7135 25.1168 13.4472C19.5393 7.86959 10.4641 7.87102 4.88507 13.4472C4.34841 13.9838 3.62055 14.2853 2.86161 14.2853C2.10266 14.2853 1.3748 13.9838 0.838146 13.4472C0.30149 12.9105 0 12.1827 0 11.4237C0 10.6648 0.30149 9.9369 0.838146 9.40024C8.64732 1.5925 21.3532 1.5925 29.1609 9.40024C29.5613 9.8002 29.8341 10.3099 29.9448 10.8649C30.0554 11.42 29.999 11.9953 29.7826 12.5183C29.5663 13.0412 29.1996 13.4882 28.7292 13.8028C28.2587 14.1174 27.7055 14.2853 27.1396 14.2855ZM8.932 20.3537C8.36623 20.3536 7.81319 20.1857 7.34281 19.8713C6.87243 19.5569 6.50582 19.1102 6.28933 18.5875C6.07283 18.0647 6.01617 17.4896 6.12652 16.9347C6.23686 16.3798 6.50925 15.87 6.90925 15.4699C11.3696 11.0081 18.6309 11.0081 23.0927 15.4699C23.6293 16.0066 23.9308 16.7344 23.9308 17.4934C23.9308 18.2523 23.6293 18.9802 23.0927 19.5168C22.556 20.0535 21.8281 20.355 21.0692 20.355C20.3102 20.355 19.5824 20.0535 19.0457 19.5168C17.9717 18.4454 16.5166 17.8437 14.9995 17.8437C13.4825 17.8437 12.0273 18.4454 10.9533 19.5168C10.6882 19.7827 10.3732 19.9936 10.0263 20.1372C9.67935 20.2808 9.30746 20.3544 8.932 20.3537Z" fill="#574A4D"/>
</svg>
