<svg width="55" height="54" viewBox="0 0 55 54" fill="none" xmlns="http://www.w3.org/2000/svg">
<path d="M27.2734 0C42.2006 0 54.2734 12.0729 54.2734 27C54.2734 41.9271 42.2006 54 27.2734 54C12.3463 54 0.273438 41.9271 0.273438 27C0.273438 12.0729 12.3463 0 27.2734 0ZM22.3363 41.2329C34.2934 41.2329 40.8506 31.32 40.8506 22.7186V21.87C42.1234 20.9443 43.242 19.7871 44.0906 18.4757C42.9334 18.9771 41.6606 19.3243 40.3492 19.5171C41.6992 18.7071 42.7406 17.4343 43.2034 15.93C41.9306 16.6629 40.542 17.2029 39.0763 17.5114C37.8806 16.2386 36.1834 15.4671 34.332 15.4671C30.7449 15.4671 27.8134 18.3986 27.8134 21.9857C27.8134 22.4871 27.852 22.9886 28.0063 23.4514C22.6063 23.1814 17.7849 20.5971 14.5834 16.6629C14.0434 17.6271 13.6963 18.7457 13.6963 19.9414C13.6963 22.1786 14.8534 24.1843 16.5892 25.3414C15.5092 25.3414 14.5063 25.0329 13.6577 24.5314V24.6086C13.6577 27.7714 15.8949 30.3943 18.8649 31.0114C18.3249 31.1657 17.7463 31.2429 17.1677 31.2429C16.7434 31.2429 16.3577 31.2043 15.9334 31.1271C16.7434 33.7114 19.1734 35.6014 21.9892 35.64C19.752 37.3757 16.9363 38.4171 13.8892 38.4171C13.3492 38.4171 12.8477 38.4171 12.3463 38.34C15.2006 40.1914 18.6334 41.2714 22.2977 41.2714" fill="#FD765E"/>
</svg>
